M48
; DRILL file {KiCad 9.0.2} date 2025-07-05T22:14:20-0500
; FORMAT={-:-/ absolute / metric / decimal}
; #@! TF.CreationDate,2025-07-05T22:14:20-05:00
; #@! TF.GenerationSoftware,Kicad,Pcbnew,9.0.2
; #@! TF.FileFunction,NonPlated,1,2,NPTH
FMAT,2
METRIC
; #@! TA.AperFunction,NonPlated,NPTH,ComponentDrill
T1C1.700
; #@! TA.AperFunction,NonPlated,NPTH,ComponentDrill
T2C4.000
%
G90
G05
T1
X75.882Y-142.875
X75.882Y-161.925
X86.042Y-142.875
X86.042Y-161.925
X94.932Y-123.825
X94.932Y-142.875
X94.932Y-161.925
X105.093Y-123.825
X105.093Y-142.875
X105.093Y-161.925
X113.983Y-142.875
X113.983Y-161.925
X113.992Y-123.805
X124.142Y-142.875
X124.142Y-161.925
X124.152Y-123.805
T2
X80.962Y-142.875
X80.962Y-161.925
X100.012Y-123.825
X100.012Y-142.875
X100.012Y-161.925
X119.062Y-142.875
X119.062Y-161.925
X119.072Y-123.805
M30
