M48
; DRILL file {KiCad 9.0.2} date 2025-07-05T22:14:20-0500
; FORMAT={-:-/ absolute / metric / decimal}
; #@! TF.CreationDate,2025-07-05T22:14:20-05:00
; #@! TF.GenerationSoftware,Kicad,Pcbnew,9.0.2
; #@! TF.FileFunction,Plated,1,2,PTH
FMAT,2
METRIC
; #@! TA.AperFunction,Plated,PTH,ViaDrill
T1C0.300
; #@! TA.AperFunction,Plated,PTH,ComponentDrill
T2C0.800
; #@! TA.AperFunction,Plated,PTH,ComponentDrill
T3C0.889
; #@! TA.AperFunction,Plated,PTH,ComponentDrill
T4C1.000
; #@! TA.AperFunction,Plated,PTH,ComponentDrill
T5C1.500
%
G90
G05
T1
X80.962Y-147.637
X80.962Y-153.076
X82.75Y-151.75
X82.75Y-153.5
X82.902Y-147.637
X85.682Y-138.156
X85.725Y-128.588
X85.725Y-151.876
X87.506Y-147.637
X87.865Y-151.634
X90.832Y-150.364
X92.869Y-154.781
X95.25Y-150.964
X97.132Y-171.104
X98.5Y-172.335
X102.0Y-132.542
X102.0Y-172.335
X102.394Y-169.069
X107.156Y-138.112
X114.3Y-130.969
X114.3Y-132.751
X116.999Y-138.112
X117.5Y-132.75
X121.0Y-132.75
T2
X69.056Y-120.015
X69.056Y-127.635
X71.438Y-139.065
X71.438Y-146.685
X71.438Y-158.115
X71.438Y-165.735
X90.487Y-120.015
X90.487Y-127.635
X90.487Y-139.065
X90.487Y-146.685
X90.487Y-158.115
X90.487Y-165.735
X109.537Y-120.015
X109.537Y-127.635
X109.537Y-139.065
X109.537Y-146.685
X109.537Y-158.115
X109.537Y-165.735
T3
X131.97Y-92.96
X131.97Y-95.5
X131.97Y-98.04
X131.97Y-100.58
X131.97Y-103.12
X131.97Y-105.66
X131.97Y-108.2
X147.21Y-92.96
X147.21Y-95.5
X147.21Y-98.04
X147.21Y-100.58
X147.21Y-103.12
X147.21Y-105.66
X147.21Y-108.2
T4
X73.606Y-121.325
X73.606Y-123.825
X73.606Y-126.325
X88.106Y-121.325
X88.106Y-126.325
X114.685Y-96.455
X114.685Y-98.995
X114.685Y-101.535
X114.685Y-104.075
T5
X77.153Y-140.335
X77.153Y-159.385
X83.502Y-137.795
X83.502Y-156.845
X96.203Y-121.285
X96.203Y-140.335
X96.203Y-159.385
X102.552Y-118.745
X102.552Y-137.795
X102.552Y-156.845
X115.252Y-140.335
X115.252Y-159.385
X115.262Y-121.265
X121.602Y-137.795
X121.602Y-156.845
X121.612Y-118.725
T5
G00X80.456Y-118.225
M15
G01X81.756Y-118.225
M16
G05
G00X80.456Y-129.425
M15
G01X81.756Y-129.425
M16
G05
M30
