%TF.GenerationSoftware,KiCad,Pcbnew,9.0.2*%
%TF.CreationDate,2025-07-05T22:13:59-05:00*%
%TF.ProjectId,starpad,73746172-7061-4642-9e6b-696361645f70,rev?*%
%TF.SameCoordinates,Original*%
%TF.FileFunction,Copper,L1,Top*%
%TF.FilePolarity,Positive*%
%FSLAX46Y46*%
G04 Gerber Fmt 4.6, Leading zero omitted, Abs format (unit mm)*
G04 Created by KiCad (PCBNEW 9.0.2) date 2025-07-05 22:13:59*
%MOMM*%
%LPD*%
G01*
G04 APERTURE LIST*
G04 Aperture macros list*
%AMRoundRect*
0 Rectangle with rounded corners*
0 $1 Rounding radius*
0 $2 $3 $4 $5 $6 $7 $8 $9 X,Y pos of 4 corners*
0 Add a 4 corners polygon primitive as box body*
4,1,4,$2,$3,$4,$5,$6,$7,$8,$9,$2,$3,0*
0 Add four circle primitives for the rounded corners*
1,1,$1+$1,$2,$3*
1,1,$1+$1,$4,$5*
1,1,$1+$1,$6,$7*
1,1,$1+$1,$8,$9*
0 Add four rect primitives between the rounded corners*
20,1,$1+$1,$2,$3,$4,$5,0*
20,1,$1+$1,$4,$5,$6,$7,0*
20,1,$1+$1,$6,$7,$8,$9,0*
20,1,$1+$1,$8,$9,$2,$3,0*%
G04 Aperture macros list end*
%ADD10C,0.300000*%
%TA.AperFunction,NonConductor*%
%ADD11C,0.300000*%
%TD*%
%TA.AperFunction,NonConductor*%
%ADD12C,0.200000*%
%TD*%
%TA.AperFunction,SMDPad,CuDef*%
%ADD13RoundRect,0.152400X1.063600X0.609600X-1.063600X0.609600X-1.063600X-0.609600X1.063600X-0.609600X0*%
%TD*%
%TA.AperFunction,ComponentPad*%
%ADD14C,1.524000*%
%TD*%
%TA.AperFunction,SMDPad,CuDef*%
%ADD15RoundRect,0.152400X-1.063600X-0.609600X1.063600X-0.609600X1.063600X0.609600X-1.063600X0.609600X0*%
%TD*%
%TA.AperFunction,SMDPad,CuDef*%
%ADD16R,1.600000X0.850000*%
%TD*%
%TA.AperFunction,ComponentPad*%
%ADD17RoundRect,0.250000X0.550000X-0.550000X0.550000X0.550000X-0.550000X0.550000X-0.550000X-0.550000X0*%
%TD*%
%TA.AperFunction,ComponentPad*%
%ADD18C,1.600000*%
%TD*%
%TA.AperFunction,ComponentPad*%
%ADD19R,1.700000X1.700000*%
%TD*%
%TA.AperFunction,ComponentPad*%
%ADD20O,1.700000X1.700000*%
%TD*%
%TA.AperFunction,ComponentPad*%
%ADD21C,2.200000*%
%TD*%
%TA.AperFunction,ComponentPad*%
%ADD22C,1.500000*%
%TD*%
%TA.AperFunction,ComponentPad*%
%ADD23R,2.000000X2.000000*%
%TD*%
%TA.AperFunction,ComponentPad*%
%ADD24C,2.000000*%
%TD*%
%TA.AperFunction,ComponentPad*%
%ADD25R,3.200000X2.000000*%
%TD*%
%TA.AperFunction,ViaPad*%
%ADD26C,0.600000*%
%TD*%
%TA.AperFunction,Conductor*%
%ADD27C,0.200000*%
%TD*%
G04 APERTURE END LIST*
D10*
D11*
X146600715Y-129171185D02*
X146672143Y-129099757D01*
X146672143Y-129099757D02*
X146815001Y-129028328D01*
X146815001Y-129028328D02*
X147172143Y-129028328D01*
X147172143Y-129028328D02*
X147315001Y-129099757D01*
X147315001Y-129099757D02*
X147386429Y-129171185D01*
X147386429Y-129171185D02*
X147457858Y-129314042D01*
X147457858Y-129314042D02*
X147457858Y-129456900D01*
X147457858Y-129456900D02*
X147386429Y-129671185D01*
X147386429Y-129671185D02*
X146529286Y-130528328D01*
X146529286Y-130528328D02*
X147457858Y-130528328D01*
X148100714Y-130385471D02*
X148172143Y-130456900D01*
X148172143Y-130456900D02*
X148100714Y-130528328D01*
X148100714Y-130528328D02*
X148029286Y-130456900D01*
X148029286Y-130456900D02*
X148100714Y-130385471D01*
X148100714Y-130385471D02*
X148100714Y-130528328D01*
X148672143Y-129028328D02*
X149672143Y-129028328D01*
X149672143Y-129028328D02*
X149029286Y-130528328D01*
X150957857Y-129028328D02*
X150243571Y-129028328D01*
X150243571Y-129028328D02*
X150172143Y-129742614D01*
X150172143Y-129742614D02*
X150243571Y-129671185D01*
X150243571Y-129671185D02*
X150386429Y-129599757D01*
X150386429Y-129599757D02*
X150743571Y-129599757D01*
X150743571Y-129599757D02*
X150886429Y-129671185D01*
X150886429Y-129671185D02*
X150957857Y-129742614D01*
X150957857Y-129742614D02*
X151029286Y-129885471D01*
X151029286Y-129885471D02*
X151029286Y-130242614D01*
X151029286Y-130242614D02*
X150957857Y-130385471D01*
X150957857Y-130385471D02*
X150886429Y-130456900D01*
X150886429Y-130456900D02*
X150743571Y-130528328D01*
X150743571Y-130528328D02*
X150386429Y-130528328D01*
X150386429Y-130528328D02*
X150243571Y-130456900D01*
X150243571Y-130456900D02*
X150172143Y-130385471D01*
D12*
X150190000Y-133836875D02*
X150190000Y-131063580D01*
X147440000Y-131063580D02*
X147440000Y-134460000D01*
X150190000Y-131650000D02*
X147440000Y-131650000D01*
X150190000Y-131650000D02*
X149063496Y-132236421D01*
X150190000Y-131650000D02*
X149063496Y-131063579D01*
X147440000Y-131650000D02*
X148566504Y-131063579D01*
X147440000Y-131650000D02*
X148566504Y-132236421D01*
D10*
D11*
X137518572Y-72848328D02*
X136661429Y-72848328D01*
X137090000Y-72848328D02*
X137090000Y-71348328D01*
X137090000Y-71348328D02*
X136947143Y-71562614D01*
X136947143Y-71562614D02*
X136804286Y-71705471D01*
X136804286Y-71705471D02*
X136661429Y-71776900D01*
X138018571Y-71348328D02*
X139018571Y-71348328D01*
X139018571Y-71348328D02*
X138375714Y-72848328D01*
X139589999Y-72705471D02*
X139661428Y-72776900D01*
X139661428Y-72776900D02*
X139589999Y-72848328D01*
X139589999Y-72848328D02*
X139518571Y-72776900D01*
X139518571Y-72776900D02*
X139589999Y-72705471D01*
X139589999Y-72705471D02*
X139589999Y-72848328D01*
X140161428Y-71348328D02*
X141161428Y-71348328D01*
X141161428Y-71348328D02*
X140518571Y-72848328D01*
X141947142Y-71991185D02*
X141804285Y-71919757D01*
X141804285Y-71919757D02*
X141732856Y-71848328D01*
X141732856Y-71848328D02*
X141661428Y-71705471D01*
X141661428Y-71705471D02*
X141661428Y-71634042D01*
X141661428Y-71634042D02*
X141732856Y-71491185D01*
X141732856Y-71491185D02*
X141804285Y-71419757D01*
X141804285Y-71419757D02*
X141947142Y-71348328D01*
X141947142Y-71348328D02*
X142232856Y-71348328D01*
X142232856Y-71348328D02*
X142375714Y-71419757D01*
X142375714Y-71419757D02*
X142447142Y-71491185D01*
X142447142Y-71491185D02*
X142518571Y-71634042D01*
X142518571Y-71634042D02*
X142518571Y-71705471D01*
X142518571Y-71705471D02*
X142447142Y-71848328D01*
X142447142Y-71848328D02*
X142375714Y-71919757D01*
X142375714Y-71919757D02*
X142232856Y-71991185D01*
X142232856Y-71991185D02*
X141947142Y-71991185D01*
X141947142Y-71991185D02*
X141804285Y-72062614D01*
X141804285Y-72062614D02*
X141732856Y-72134042D01*
X141732856Y-72134042D02*
X141661428Y-72276900D01*
X141661428Y-72276900D02*
X141661428Y-72562614D01*
X141661428Y-72562614D02*
X141732856Y-72705471D01*
X141732856Y-72705471D02*
X141804285Y-72776900D01*
X141804285Y-72776900D02*
X141947142Y-72848328D01*
X141947142Y-72848328D02*
X142232856Y-72848328D01*
X142232856Y-72848328D02*
X142375714Y-72776900D01*
X142375714Y-72776900D02*
X142447142Y-72705471D01*
X142447142Y-72705471D02*
X142518571Y-72562614D01*
X142518571Y-72562614D02*
X142518571Y-72276900D01*
X142518571Y-72276900D02*
X142447142Y-72134042D01*
X142447142Y-72134042D02*
X142375714Y-72062614D01*
X142375714Y-72062614D02*
X142232856Y-71991185D01*
D12*
X130700000Y-91444000D02*
X130700000Y-73383580D01*
X148480000Y-73383580D02*
X148480000Y-91444000D01*
X130700000Y-73970000D02*
X148480000Y-73970000D01*
X130700000Y-73970000D02*
X131826504Y-73383579D01*
X130700000Y-73970000D02*
X131826504Y-74556421D01*
X148480000Y-73970000D02*
X147353496Y-74556421D01*
X148480000Y-73970000D02*
X147353496Y-73383579D01*
D10*
D11*
X107061185Y-104394284D02*
X106989757Y-104322856D01*
X106989757Y-104322856D02*
X106918328Y-104179999D01*
X106918328Y-104179999D02*
X106918328Y-103822856D01*
X106918328Y-103822856D02*
X106989757Y-103679999D01*
X106989757Y-103679999D02*
X107061185Y-103608570D01*
X107061185Y-103608570D02*
X107204042Y-103537141D01*
X107204042Y-103537141D02*
X107346900Y-103537141D01*
X107346900Y-103537141D02*
X107561185Y-103608570D01*
X107561185Y-103608570D02*
X108418328Y-104465713D01*
X108418328Y-104465713D02*
X108418328Y-103537141D01*
X107418328Y-102251428D02*
X108418328Y-102251428D01*
X106846900Y-102608570D02*
X107918328Y-102965713D01*
X107918328Y-102965713D02*
X107918328Y-102037142D01*
X108275471Y-101465714D02*
X108346900Y-101394285D01*
X108346900Y-101394285D02*
X108418328Y-101465714D01*
X108418328Y-101465714D02*
X108346900Y-101537142D01*
X108346900Y-101537142D02*
X108275471Y-101465714D01*
X108275471Y-101465714D02*
X108418328Y-101465714D01*
X107061185Y-100822856D02*
X106989757Y-100751428D01*
X106989757Y-100751428D02*
X106918328Y-100608571D01*
X106918328Y-100608571D02*
X106918328Y-100251428D01*
X106918328Y-100251428D02*
X106989757Y-100108571D01*
X106989757Y-100108571D02*
X107061185Y-100037142D01*
X107061185Y-100037142D02*
X107204042Y-99965713D01*
X107204042Y-99965713D02*
X107346900Y-99965713D01*
X107346900Y-99965713D02*
X107561185Y-100037142D01*
X107561185Y-100037142D02*
X108418328Y-100894285D01*
X108418328Y-100894285D02*
X108418328Y-99965713D01*
D12*
X109047500Y-114280000D02*
X108953580Y-114280000D01*
X109540000Y-90080000D02*
X109540000Y-90080000D01*
X109540000Y-114280000D02*
X109540000Y-90080000D01*
X109540000Y-114280000D02*
X108953579Y-113153496D01*
X109540000Y-114280000D02*
X110126421Y-113153496D01*
X109540000Y-90080000D02*
X110126421Y-91206504D01*
X109540000Y-90080000D02*
X108953579Y-91206504D01*
D10*
D11*
X135031608Y-136221185D02*
X135103036Y-136149757D01*
X135103036Y-136149757D02*
X135245894Y-136078328D01*
X135245894Y-136078328D02*
X135603036Y-136078328D01*
X135603036Y-136078328D02*
X135745894Y-136149757D01*
X135745894Y-136149757D02*
X135817322Y-136221185D01*
X135817322Y-136221185D02*
X135888751Y-136364042D01*
X135888751Y-136364042D02*
X135888751Y-136506900D01*
X135888751Y-136506900D02*
X135817322Y-136721185D01*
X135817322Y-136721185D02*
X134960179Y-137578328D01*
X134960179Y-137578328D02*
X135888751Y-137578328D01*
X137317322Y-137578328D02*
X136460179Y-137578328D01*
X136888750Y-137578328D02*
X136888750Y-136078328D01*
X136888750Y-136078328D02*
X136745893Y-136292614D01*
X136745893Y-136292614D02*
X136603036Y-136435471D01*
X136603036Y-136435471D02*
X136460179Y-136506900D01*
X137960178Y-137435471D02*
X138031607Y-137506900D01*
X138031607Y-137506900D02*
X137960178Y-137578328D01*
X137960178Y-137578328D02*
X137888750Y-137506900D01*
X137888750Y-137506900D02*
X137960178Y-137435471D01*
X137960178Y-137435471D02*
X137960178Y-137578328D01*
X139317322Y-136078328D02*
X139031607Y-136078328D01*
X139031607Y-136078328D02*
X138888750Y-136149757D01*
X138888750Y-136149757D02*
X138817322Y-136221185D01*
X138817322Y-136221185D02*
X138674464Y-136435471D01*
X138674464Y-136435471D02*
X138603036Y-136721185D01*
X138603036Y-136721185D02*
X138603036Y-137292614D01*
X138603036Y-137292614D02*
X138674464Y-137435471D01*
X138674464Y-137435471D02*
X138745893Y-137506900D01*
X138745893Y-137506900D02*
X138888750Y-137578328D01*
X138888750Y-137578328D02*
X139174464Y-137578328D01*
X139174464Y-137578328D02*
X139317322Y-137506900D01*
X139317322Y-137506900D02*
X139388750Y-137435471D01*
X139388750Y-137435471D02*
X139460179Y-137292614D01*
X139460179Y-137292614D02*
X139460179Y-136935471D01*
X139460179Y-136935471D02*
X139388750Y-136792614D01*
X139388750Y-136792614D02*
X139317322Y-136721185D01*
X139317322Y-136721185D02*
X139174464Y-136649757D01*
X139174464Y-136649757D02*
X138888750Y-136649757D01*
X138888750Y-136649757D02*
X138745893Y-136721185D01*
X138745893Y-136721185D02*
X138674464Y-136792614D01*
X138674464Y-136792614D02*
X138603036Y-136935471D01*
X140388750Y-136078328D02*
X140531607Y-136078328D01*
X140531607Y-136078328D02*
X140674464Y-136149757D01*
X140674464Y-136149757D02*
X140745893Y-136221185D01*
X140745893Y-136221185D02*
X140817321Y-136364042D01*
X140817321Y-136364042D02*
X140888750Y-136649757D01*
X140888750Y-136649757D02*
X140888750Y-137006900D01*
X140888750Y-137006900D02*
X140817321Y-137292614D01*
X140817321Y-137292614D02*
X140745893Y-137435471D01*
X140745893Y-137435471D02*
X140674464Y-137506900D01*
X140674464Y-137506900D02*
X140531607Y-137578328D01*
X140531607Y-137578328D02*
X140388750Y-137578328D01*
X140388750Y-137578328D02*
X140245893Y-137506900D01*
X140245893Y-137506900D02*
X140174464Y-137435471D01*
X140174464Y-137435471D02*
X140103035Y-137292614D01*
X140103035Y-137292614D02*
X140031607Y-137006900D01*
X140031607Y-137006900D02*
X140031607Y-136649757D01*
X140031607Y-136649757D02*
X140103035Y-136364042D01*
X140103035Y-136364042D02*
X140174464Y-136221185D01*
X140174464Y-136221185D02*
X140245893Y-136149757D01*
X140245893Y-136149757D02*
X140388750Y-136078328D01*
X141460178Y-136221185D02*
X141531606Y-136149757D01*
X141531606Y-136149757D02*
X141674464Y-136078328D01*
X141674464Y-136078328D02*
X142031606Y-136078328D01*
X142031606Y-136078328D02*
X142174464Y-136149757D01*
X142174464Y-136149757D02*
X142245892Y-136221185D01*
X142245892Y-136221185D02*
X142317321Y-136364042D01*
X142317321Y-136364042D02*
X142317321Y-136506900D01*
X142317321Y-136506900D02*
X142245892Y-136721185D01*
X142245892Y-136721185D02*
X141388749Y-137578328D01*
X141388749Y-137578328D02*
X142317321Y-137578328D01*
X143674463Y-136078328D02*
X142960177Y-136078328D01*
X142960177Y-136078328D02*
X142888749Y-136792614D01*
X142888749Y-136792614D02*
X142960177Y-136721185D01*
X142960177Y-136721185D02*
X143103035Y-136649757D01*
X143103035Y-136649757D02*
X143460177Y-136649757D01*
X143460177Y-136649757D02*
X143603035Y-136721185D01*
X143603035Y-136721185D02*
X143674463Y-136792614D01*
X143674463Y-136792614D02*
X143745892Y-136935471D01*
X143745892Y-136935471D02*
X143745892Y-137292614D01*
X143745892Y-137292614D02*
X143674463Y-137435471D01*
X143674463Y-137435471D02*
X143603035Y-137506900D01*
X143603035Y-137506900D02*
X143460177Y-137578328D01*
X143460177Y-137578328D02*
X143103035Y-137578328D01*
X143103035Y-137578328D02*
X142960177Y-137506900D01*
X142960177Y-137506900D02*
X142888749Y-137435471D01*
D12*
X128587500Y-133850000D02*
X128587500Y-139286420D01*
X150190000Y-139286420D02*
X150190000Y-134836875D01*
X128587500Y-138700000D02*
X150190000Y-138700000D01*
X128587500Y-138700000D02*
X129714004Y-138113579D01*
X128587500Y-138700000D02*
X129714004Y-139286421D01*
X150190000Y-138700000D02*
X149063496Y-139286421D01*
X150190000Y-138700000D02*
X149063496Y-138113579D01*
D10*
D11*
X65646608Y-179618328D02*
X64932322Y-179618328D01*
X64932322Y-179618328D02*
X64860894Y-180332614D01*
X64860894Y-180332614D02*
X64932322Y-180261185D01*
X64932322Y-180261185D02*
X65075180Y-180189757D01*
X65075180Y-180189757D02*
X65432322Y-180189757D01*
X65432322Y-180189757D02*
X65575180Y-180261185D01*
X65575180Y-180261185D02*
X65646608Y-180332614D01*
X65646608Y-180332614D02*
X65718037Y-180475471D01*
X65718037Y-180475471D02*
X65718037Y-180832614D01*
X65718037Y-180832614D02*
X65646608Y-180975471D01*
X65646608Y-180975471D02*
X65575180Y-181046900D01*
X65575180Y-181046900D02*
X65432322Y-181118328D01*
X65432322Y-181118328D02*
X65075180Y-181118328D01*
X65075180Y-181118328D02*
X64932322Y-181046900D01*
X64932322Y-181046900D02*
X64860894Y-180975471D01*
X66360893Y-180975471D02*
X66432322Y-181046900D01*
X66432322Y-181046900D02*
X66360893Y-181118328D01*
X66360893Y-181118328D02*
X66289465Y-181046900D01*
X66289465Y-181046900D02*
X66360893Y-180975471D01*
X66360893Y-180975471D02*
X66360893Y-181118328D01*
X67289465Y-180261185D02*
X67146608Y-180189757D01*
X67146608Y-180189757D02*
X67075179Y-180118328D01*
X67075179Y-180118328D02*
X67003751Y-179975471D01*
X67003751Y-179975471D02*
X67003751Y-179904042D01*
X67003751Y-179904042D02*
X67075179Y-179761185D01*
X67075179Y-179761185D02*
X67146608Y-179689757D01*
X67146608Y-179689757D02*
X67289465Y-179618328D01*
X67289465Y-179618328D02*
X67575179Y-179618328D01*
X67575179Y-179618328D02*
X67718037Y-179689757D01*
X67718037Y-179689757D02*
X67789465Y-179761185D01*
X67789465Y-179761185D02*
X67860894Y-179904042D01*
X67860894Y-179904042D02*
X67860894Y-179975471D01*
X67860894Y-179975471D02*
X67789465Y-180118328D01*
X67789465Y-180118328D02*
X67718037Y-180189757D01*
X67718037Y-180189757D02*
X67575179Y-180261185D01*
X67575179Y-180261185D02*
X67289465Y-180261185D01*
X67289465Y-180261185D02*
X67146608Y-180332614D01*
X67146608Y-180332614D02*
X67075179Y-180404042D01*
X67075179Y-180404042D02*
X67003751Y-180546900D01*
X67003751Y-180546900D02*
X67003751Y-180832614D01*
X67003751Y-180832614D02*
X67075179Y-180975471D01*
X67075179Y-180975471D02*
X67146608Y-181046900D01*
X67146608Y-181046900D02*
X67289465Y-181118328D01*
X67289465Y-181118328D02*
X67575179Y-181118328D01*
X67575179Y-181118328D02*
X67718037Y-181046900D01*
X67718037Y-181046900D02*
X67789465Y-180975471D01*
X67789465Y-180975471D02*
X67860894Y-180832614D01*
X67860894Y-180832614D02*
X67860894Y-180546900D01*
X67860894Y-180546900D02*
X67789465Y-180404042D01*
X67789465Y-180404042D02*
X67718037Y-180332614D01*
X67718037Y-180332614D02*
X67575179Y-180261185D01*
X69146608Y-179618328D02*
X68860893Y-179618328D01*
X68860893Y-179618328D02*
X68718036Y-179689757D01*
X68718036Y-179689757D02*
X68646608Y-179761185D01*
X68646608Y-179761185D02*
X68503750Y-179975471D01*
X68503750Y-179975471D02*
X68432322Y-180261185D01*
X68432322Y-180261185D02*
X68432322Y-180832614D01*
X68432322Y-180832614D02*
X68503750Y-180975471D01*
X68503750Y-180975471D02*
X68575179Y-181046900D01*
X68575179Y-181046900D02*
X68718036Y-181118328D01*
X68718036Y-181118328D02*
X69003750Y-181118328D01*
X69003750Y-181118328D02*
X69146608Y-181046900D01*
X69146608Y-181046900D02*
X69218036Y-180975471D01*
X69218036Y-180975471D02*
X69289465Y-180832614D01*
X69289465Y-180832614D02*
X69289465Y-180475471D01*
X69289465Y-180475471D02*
X69218036Y-180332614D01*
X69218036Y-180332614D02*
X69146608Y-180261185D01*
X69146608Y-180261185D02*
X69003750Y-180189757D01*
X69003750Y-180189757D02*
X68718036Y-180189757D01*
X68718036Y-180189757D02*
X68575179Y-180261185D01*
X68575179Y-180261185D02*
X68503750Y-180332614D01*
X68503750Y-180332614D02*
X68432322Y-180475471D01*
X69789464Y-179618328D02*
X70789464Y-179618328D01*
X70789464Y-179618328D02*
X70146607Y-181118328D01*
X72075178Y-179618328D02*
X71360892Y-179618328D01*
X71360892Y-179618328D02*
X71289464Y-180332614D01*
X71289464Y-180332614D02*
X71360892Y-180261185D01*
X71360892Y-180261185D02*
X71503750Y-180189757D01*
X71503750Y-180189757D02*
X71860892Y-180189757D01*
X71860892Y-180189757D02*
X72003750Y-180261185D01*
X72003750Y-180261185D02*
X72075178Y-180332614D01*
X72075178Y-180332614D02*
X72146607Y-180475471D01*
X72146607Y-180475471D02*
X72146607Y-180832614D01*
X72146607Y-180832614D02*
X72075178Y-180975471D01*
X72075178Y-180975471D02*
X72003750Y-181046900D01*
X72003750Y-181046900D02*
X71860892Y-181118328D01*
X71860892Y-181118328D02*
X71503750Y-181118328D01*
X71503750Y-181118328D02*
X71360892Y-181046900D01*
X71360892Y-181046900D02*
X71289464Y-180975471D01*
D12*
X71437500Y-171950000D02*
X71437500Y-182826420D01*
X65570000Y-182826420D02*
X65570000Y-171950000D01*
X71437500Y-182240000D02*
X65570000Y-182240000D01*
X71437500Y-182240000D02*
X70310996Y-182826421D01*
X71437500Y-182240000D02*
X70310996Y-181653579D01*
X65570000Y-182240000D02*
X66696504Y-181653579D01*
X65570000Y-182240000D02*
X66696504Y-182826421D01*
D10*
D11*
X60688328Y-177315713D02*
X60688328Y-176315713D01*
X60688328Y-176315713D02*
X62188328Y-176958570D01*
X62045471Y-175744285D02*
X62116900Y-175672856D01*
X62116900Y-175672856D02*
X62188328Y-175744285D01*
X62188328Y-175744285D02*
X62116900Y-175815713D01*
X62116900Y-175815713D02*
X62045471Y-175744285D01*
X62045471Y-175744285D02*
X62188328Y-175744285D01*
X62188328Y-174244284D02*
X62188328Y-175101427D01*
X62188328Y-174672856D02*
X60688328Y-174672856D01*
X60688328Y-174672856D02*
X60902614Y-174815713D01*
X60902614Y-174815713D02*
X61045471Y-174958570D01*
X61045471Y-174958570D02*
X61116900Y-175101427D01*
X60688328Y-172958571D02*
X60688328Y-173244285D01*
X60688328Y-173244285D02*
X60759757Y-173387142D01*
X60759757Y-173387142D02*
X60831185Y-173458571D01*
X60831185Y-173458571D02*
X61045471Y-173601428D01*
X61045471Y-173601428D02*
X61331185Y-173672856D01*
X61331185Y-173672856D02*
X61902614Y-173672856D01*
X61902614Y-173672856D02*
X62045471Y-173601428D01*
X62045471Y-173601428D02*
X62116900Y-173529999D01*
X62116900Y-173529999D02*
X62188328Y-173387142D01*
X62188328Y-173387142D02*
X62188328Y-173101428D01*
X62188328Y-173101428D02*
X62116900Y-172958571D01*
X62116900Y-172958571D02*
X62045471Y-172887142D01*
X62045471Y-172887142D02*
X61902614Y-172815713D01*
X61902614Y-172815713D02*
X61545471Y-172815713D01*
X61545471Y-172815713D02*
X61402614Y-172887142D01*
X61402614Y-172887142D02*
X61331185Y-172958571D01*
X61331185Y-172958571D02*
X61259757Y-173101428D01*
X61259757Y-173101428D02*
X61259757Y-173387142D01*
X61259757Y-173387142D02*
X61331185Y-173529999D01*
X61331185Y-173529999D02*
X61402614Y-173601428D01*
X61402614Y-173601428D02*
X61545471Y-173672856D01*
D12*
X70937500Y-171450000D02*
X62723580Y-171450000D01*
X62723580Y-178610000D02*
X71020000Y-178610000D01*
X63310000Y-171450000D02*
X63310000Y-178610000D01*
X63310000Y-171450000D02*
X63896421Y-172576504D01*
X63310000Y-171450000D02*
X62723579Y-172576504D01*
X63310000Y-178610000D02*
X62723579Y-177483496D01*
X63310000Y-178610000D02*
X63896421Y-177483496D01*
D10*
D11*
X98115715Y-84638328D02*
X97830000Y-84638328D01*
X97830000Y-84638328D02*
X97687143Y-84709757D01*
X97687143Y-84709757D02*
X97615715Y-84781185D01*
X97615715Y-84781185D02*
X97472857Y-84995471D01*
X97472857Y-84995471D02*
X97401429Y-85281185D01*
X97401429Y-85281185D02*
X97401429Y-85852614D01*
X97401429Y-85852614D02*
X97472857Y-85995471D01*
X97472857Y-85995471D02*
X97544286Y-86066900D01*
X97544286Y-86066900D02*
X97687143Y-86138328D01*
X97687143Y-86138328D02*
X97972857Y-86138328D01*
X97972857Y-86138328D02*
X98115715Y-86066900D01*
X98115715Y-86066900D02*
X98187143Y-85995471D01*
X98187143Y-85995471D02*
X98258572Y-85852614D01*
X98258572Y-85852614D02*
X98258572Y-85495471D01*
X98258572Y-85495471D02*
X98187143Y-85352614D01*
X98187143Y-85352614D02*
X98115715Y-85281185D01*
X98115715Y-85281185D02*
X97972857Y-85209757D01*
X97972857Y-85209757D02*
X97687143Y-85209757D01*
X97687143Y-85209757D02*
X97544286Y-85281185D01*
X97544286Y-85281185D02*
X97472857Y-85352614D01*
X97472857Y-85352614D02*
X97401429Y-85495471D01*
X98972857Y-86138328D02*
X99258571Y-86138328D01*
X99258571Y-86138328D02*
X99401428Y-86066900D01*
X99401428Y-86066900D02*
X99472857Y-85995471D01*
X99472857Y-85995471D02*
X99615714Y-85781185D01*
X99615714Y-85781185D02*
X99687143Y-85495471D01*
X99687143Y-85495471D02*
X99687143Y-84924042D01*
X99687143Y-84924042D02*
X99615714Y-84781185D01*
X99615714Y-84781185D02*
X99544286Y-84709757D01*
X99544286Y-84709757D02*
X99401428Y-84638328D01*
X99401428Y-84638328D02*
X99115714Y-84638328D01*
X99115714Y-84638328D02*
X98972857Y-84709757D01*
X98972857Y-84709757D02*
X98901428Y-84781185D01*
X98901428Y-84781185D02*
X98830000Y-84924042D01*
X98830000Y-84924042D02*
X98830000Y-85281185D01*
X98830000Y-85281185D02*
X98901428Y-85424042D01*
X98901428Y-85424042D02*
X98972857Y-85495471D01*
X98972857Y-85495471D02*
X99115714Y-85566900D01*
X99115714Y-85566900D02*
X99401428Y-85566900D01*
X99401428Y-85566900D02*
X99544286Y-85495471D01*
X99544286Y-85495471D02*
X99615714Y-85424042D01*
X99615714Y-85424042D02*
X99687143Y-85281185D01*
X100329999Y-85995471D02*
X100401428Y-86066900D01*
X100401428Y-86066900D02*
X100329999Y-86138328D01*
X100329999Y-86138328D02*
X100258571Y-86066900D01*
X100258571Y-86066900D02*
X100329999Y-85995471D01*
X100329999Y-85995471D02*
X100329999Y-86138328D01*
X101758571Y-84638328D02*
X101044285Y-84638328D01*
X101044285Y-84638328D02*
X100972857Y-85352614D01*
X100972857Y-85352614D02*
X101044285Y-85281185D01*
X101044285Y-85281185D02*
X101187143Y-85209757D01*
X101187143Y-85209757D02*
X101544285Y-85209757D01*
X101544285Y-85209757D02*
X101687143Y-85281185D01*
X101687143Y-85281185D02*
X101758571Y-85352614D01*
X101758571Y-85352614D02*
X101830000Y-85495471D01*
X101830000Y-85495471D02*
X101830000Y-85852614D01*
X101830000Y-85852614D02*
X101758571Y-85995471D01*
X101758571Y-85995471D02*
X101687143Y-86066900D01*
X101687143Y-86066900D02*
X101544285Y-86138328D01*
X101544285Y-86138328D02*
X101187143Y-86138328D01*
X101187143Y-86138328D02*
X101044285Y-86066900D01*
X101044285Y-86066900D02*
X100972857Y-85995471D01*
X102401428Y-84781185D02*
X102472856Y-84709757D01*
X102472856Y-84709757D02*
X102615714Y-84638328D01*
X102615714Y-84638328D02*
X102972856Y-84638328D01*
X102972856Y-84638328D02*
X103115714Y-84709757D01*
X103115714Y-84709757D02*
X103187142Y-84781185D01*
X103187142Y-84781185D02*
X103258571Y-84924042D01*
X103258571Y-84924042D02*
X103258571Y-85066900D01*
X103258571Y-85066900D02*
X103187142Y-85281185D01*
X103187142Y-85281185D02*
X102329999Y-86138328D01*
X102329999Y-86138328D02*
X103258571Y-86138328D01*
D12*
X135090000Y-89530000D02*
X135090000Y-86673580D01*
X65570000Y-86673580D02*
X65570000Y-89580000D01*
X135090000Y-87260000D02*
X65570000Y-87260000D01*
X135090000Y-87260000D02*
X133963496Y-87846421D01*
X135090000Y-87260000D02*
X133963496Y-86673579D01*
X65570000Y-87260000D02*
X66696504Y-86673579D01*
X65570000Y-87260000D02*
X66696504Y-87846421D01*
D10*
D11*
X146354286Y-85038328D02*
X146068571Y-85038328D01*
X146068571Y-85038328D02*
X145925714Y-85109757D01*
X145925714Y-85109757D02*
X145854286Y-85181185D01*
X145854286Y-85181185D02*
X145711428Y-85395471D01*
X145711428Y-85395471D02*
X145640000Y-85681185D01*
X145640000Y-85681185D02*
X145640000Y-86252614D01*
X145640000Y-86252614D02*
X145711428Y-86395471D01*
X145711428Y-86395471D02*
X145782857Y-86466900D01*
X145782857Y-86466900D02*
X145925714Y-86538328D01*
X145925714Y-86538328D02*
X146211428Y-86538328D01*
X146211428Y-86538328D02*
X146354286Y-86466900D01*
X146354286Y-86466900D02*
X146425714Y-86395471D01*
X146425714Y-86395471D02*
X146497143Y-86252614D01*
X146497143Y-86252614D02*
X146497143Y-85895471D01*
X146497143Y-85895471D02*
X146425714Y-85752614D01*
X146425714Y-85752614D02*
X146354286Y-85681185D01*
X146354286Y-85681185D02*
X146211428Y-85609757D01*
X146211428Y-85609757D02*
X145925714Y-85609757D01*
X145925714Y-85609757D02*
X145782857Y-85681185D01*
X145782857Y-85681185D02*
X145711428Y-85752614D01*
X145711428Y-85752614D02*
X145640000Y-85895471D01*
X147139999Y-86395471D02*
X147211428Y-86466900D01*
X147211428Y-86466900D02*
X147139999Y-86538328D01*
X147139999Y-86538328D02*
X147068571Y-86466900D01*
X147068571Y-86466900D02*
X147139999Y-86395471D01*
X147139999Y-86395471D02*
X147139999Y-86538328D01*
X148640000Y-86538328D02*
X147782857Y-86538328D01*
X148211428Y-86538328D02*
X148211428Y-85038328D01*
X148211428Y-85038328D02*
X148068571Y-85252614D01*
X148068571Y-85252614D02*
X147925714Y-85395471D01*
X147925714Y-85395471D02*
X147782857Y-85466900D01*
D12*
X150190000Y-89580000D02*
X150190000Y-87073580D01*
X144090000Y-87073580D02*
X144090000Y-89620000D01*
X150190000Y-87660000D02*
X144090000Y-87660000D01*
X150190000Y-87660000D02*
X149063496Y-88246421D01*
X150190000Y-87660000D02*
X149063496Y-87073579D01*
X144090000Y-87660000D02*
X145216504Y-87073579D01*
X144090000Y-87660000D02*
X145216504Y-88246421D01*
D10*
D11*
X157211185Y-138408302D02*
X157139757Y-138551159D01*
X157139757Y-138551159D02*
X157068328Y-138622588D01*
X157068328Y-138622588D02*
X156925471Y-138694016D01*
X156925471Y-138694016D02*
X156854042Y-138694016D01*
X156854042Y-138694016D02*
X156711185Y-138622588D01*
X156711185Y-138622588D02*
X156639757Y-138551159D01*
X156639757Y-138551159D02*
X156568328Y-138408302D01*
X156568328Y-138408302D02*
X156568328Y-138122588D01*
X156568328Y-138122588D02*
X156639757Y-137979731D01*
X156639757Y-137979731D02*
X156711185Y-137908302D01*
X156711185Y-137908302D02*
X156854042Y-137836873D01*
X156854042Y-137836873D02*
X156925471Y-137836873D01*
X156925471Y-137836873D02*
X157068328Y-137908302D01*
X157068328Y-137908302D02*
X157139757Y-137979731D01*
X157139757Y-137979731D02*
X157211185Y-138122588D01*
X157211185Y-138122588D02*
X157211185Y-138408302D01*
X157211185Y-138408302D02*
X157282614Y-138551159D01*
X157282614Y-138551159D02*
X157354042Y-138622588D01*
X157354042Y-138622588D02*
X157496900Y-138694016D01*
X157496900Y-138694016D02*
X157782614Y-138694016D01*
X157782614Y-138694016D02*
X157925471Y-138622588D01*
X157925471Y-138622588D02*
X157996900Y-138551159D01*
X157996900Y-138551159D02*
X158068328Y-138408302D01*
X158068328Y-138408302D02*
X158068328Y-138122588D01*
X158068328Y-138122588D02*
X157996900Y-137979731D01*
X157996900Y-137979731D02*
X157925471Y-137908302D01*
X157925471Y-137908302D02*
X157782614Y-137836873D01*
X157782614Y-137836873D02*
X157496900Y-137836873D01*
X157496900Y-137836873D02*
X157354042Y-137908302D01*
X157354042Y-137908302D02*
X157282614Y-137979731D01*
X157282614Y-137979731D02*
X157211185Y-138122588D01*
X157211185Y-136979731D02*
X157139757Y-137122588D01*
X157139757Y-137122588D02*
X157068328Y-137194017D01*
X157068328Y-137194017D02*
X156925471Y-137265445D01*
X156925471Y-137265445D02*
X156854042Y-137265445D01*
X156854042Y-137265445D02*
X156711185Y-137194017D01*
X156711185Y-137194017D02*
X156639757Y-137122588D01*
X156639757Y-137122588D02*
X156568328Y-136979731D01*
X156568328Y-136979731D02*
X156568328Y-136694017D01*
X156568328Y-136694017D02*
X156639757Y-136551160D01*
X156639757Y-136551160D02*
X156711185Y-136479731D01*
X156711185Y-136479731D02*
X156854042Y-136408302D01*
X156854042Y-136408302D02*
X156925471Y-136408302D01*
X156925471Y-136408302D02*
X157068328Y-136479731D01*
X157068328Y-136479731D02*
X157139757Y-136551160D01*
X157139757Y-136551160D02*
X157211185Y-136694017D01*
X157211185Y-136694017D02*
X157211185Y-136979731D01*
X157211185Y-136979731D02*
X157282614Y-137122588D01*
X157282614Y-137122588D02*
X157354042Y-137194017D01*
X157354042Y-137194017D02*
X157496900Y-137265445D01*
X157496900Y-137265445D02*
X157782614Y-137265445D01*
X157782614Y-137265445D02*
X157925471Y-137194017D01*
X157925471Y-137194017D02*
X157996900Y-137122588D01*
X157996900Y-137122588D02*
X158068328Y-136979731D01*
X158068328Y-136979731D02*
X158068328Y-136694017D01*
X158068328Y-136694017D02*
X157996900Y-136551160D01*
X157996900Y-136551160D02*
X157925471Y-136479731D01*
X157925471Y-136479731D02*
X157782614Y-136408302D01*
X157782614Y-136408302D02*
X157496900Y-136408302D01*
X157496900Y-136408302D02*
X157354042Y-136479731D01*
X157354042Y-136479731D02*
X157282614Y-136551160D01*
X157282614Y-136551160D02*
X157211185Y-136694017D01*
X157925471Y-135765446D02*
X157996900Y-135694017D01*
X157996900Y-135694017D02*
X158068328Y-135765446D01*
X158068328Y-135765446D02*
X157996900Y-135836874D01*
X157996900Y-135836874D02*
X157925471Y-135765446D01*
X157925471Y-135765446D02*
X158068328Y-135765446D01*
X156568328Y-134336874D02*
X156568328Y-135051160D01*
X156568328Y-135051160D02*
X157282614Y-135122588D01*
X157282614Y-135122588D02*
X157211185Y-135051160D01*
X157211185Y-135051160D02*
X157139757Y-134908303D01*
X157139757Y-134908303D02*
X157139757Y-134551160D01*
X157139757Y-134551160D02*
X157211185Y-134408303D01*
X157211185Y-134408303D02*
X157282614Y-134336874D01*
X157282614Y-134336874D02*
X157425471Y-134265445D01*
X157425471Y-134265445D02*
X157782614Y-134265445D01*
X157782614Y-134265445D02*
X157925471Y-134336874D01*
X157925471Y-134336874D02*
X157996900Y-134408303D01*
X157996900Y-134408303D02*
X158068328Y-134551160D01*
X158068328Y-134551160D02*
X158068328Y-134908303D01*
X158068328Y-134908303D02*
X157996900Y-135051160D01*
X157996900Y-135051160D02*
X157925471Y-135122588D01*
X158068328Y-132836874D02*
X158068328Y-133694017D01*
X158068328Y-133265446D02*
X156568328Y-133265446D01*
X156568328Y-133265446D02*
X156782614Y-133408303D01*
X156782614Y-133408303D02*
X156925471Y-133551160D01*
X156925471Y-133551160D02*
X156996900Y-133694017D01*
X156568328Y-132336875D02*
X156568328Y-131408303D01*
X156568328Y-131408303D02*
X157139757Y-131908303D01*
X157139757Y-131908303D02*
X157139757Y-131694018D01*
X157139757Y-131694018D02*
X157211185Y-131551161D01*
X157211185Y-131551161D02*
X157282614Y-131479732D01*
X157282614Y-131479732D02*
X157425471Y-131408303D01*
X157425471Y-131408303D02*
X157782614Y-131408303D01*
X157782614Y-131408303D02*
X157925471Y-131479732D01*
X157925471Y-131479732D02*
X157996900Y-131551161D01*
X157996900Y-131551161D02*
X158068328Y-131694018D01*
X158068328Y-131694018D02*
X158068328Y-132122589D01*
X158068328Y-132122589D02*
X157996900Y-132265446D01*
X157996900Y-132265446D02*
X157925471Y-132336875D01*
X157211185Y-130551161D02*
X157139757Y-130694018D01*
X157139757Y-130694018D02*
X157068328Y-130765447D01*
X157068328Y-130765447D02*
X156925471Y-130836875D01*
X156925471Y-130836875D02*
X156854042Y-130836875D01*
X156854042Y-130836875D02*
X156711185Y-130765447D01*
X156711185Y-130765447D02*
X156639757Y-130694018D01*
X156639757Y-130694018D02*
X156568328Y-130551161D01*
X156568328Y-130551161D02*
X156568328Y-130265447D01*
X156568328Y-130265447D02*
X156639757Y-130122590D01*
X156639757Y-130122590D02*
X156711185Y-130051161D01*
X156711185Y-130051161D02*
X156854042Y-129979732D01*
X156854042Y-129979732D02*
X156925471Y-129979732D01*
X156925471Y-129979732D02*
X157068328Y-130051161D01*
X157068328Y-130051161D02*
X157139757Y-130122590D01*
X157139757Y-130122590D02*
X157211185Y-130265447D01*
X157211185Y-130265447D02*
X157211185Y-130551161D01*
X157211185Y-130551161D02*
X157282614Y-130694018D01*
X157282614Y-130694018D02*
X157354042Y-130765447D01*
X157354042Y-130765447D02*
X157496900Y-130836875D01*
X157496900Y-130836875D02*
X157782614Y-130836875D01*
X157782614Y-130836875D02*
X157925471Y-130765447D01*
X157925471Y-130765447D02*
X157996900Y-130694018D01*
X157996900Y-130694018D02*
X158068328Y-130551161D01*
X158068328Y-130551161D02*
X158068328Y-130265447D01*
X158068328Y-130265447D02*
X157996900Y-130122590D01*
X157996900Y-130122590D02*
X157925471Y-130051161D01*
X157925471Y-130051161D02*
X157782614Y-129979732D01*
X157782614Y-129979732D02*
X157496900Y-129979732D01*
X157496900Y-129979732D02*
X157354042Y-130051161D01*
X157354042Y-130051161D02*
X157282614Y-130122590D01*
X157282614Y-130122590D02*
X157211185Y-130265447D01*
D12*
X150690000Y-90080000D02*
X159776420Y-90080000D01*
X159776420Y-178593750D02*
X150690000Y-178593750D01*
X159190000Y-90080000D02*
X159190000Y-178593750D01*
X159190000Y-90080000D02*
X159776421Y-91206504D01*
X159190000Y-90080000D02*
X158603579Y-91206504D01*
X159190000Y-178593750D02*
X158603579Y-177467246D01*
X159190000Y-178593750D02*
X159776421Y-177467246D01*
D10*
D11*
X110522856Y-79891185D02*
X110665713Y-79819757D01*
X110665713Y-79819757D02*
X110737142Y-79748328D01*
X110737142Y-79748328D02*
X110808570Y-79605471D01*
X110808570Y-79605471D02*
X110808570Y-79534042D01*
X110808570Y-79534042D02*
X110737142Y-79391185D01*
X110737142Y-79391185D02*
X110665713Y-79319757D01*
X110665713Y-79319757D02*
X110522856Y-79248328D01*
X110522856Y-79248328D02*
X110237142Y-79248328D01*
X110237142Y-79248328D02*
X110094285Y-79319757D01*
X110094285Y-79319757D02*
X110022856Y-79391185D01*
X110022856Y-79391185D02*
X109951427Y-79534042D01*
X109951427Y-79534042D02*
X109951427Y-79605471D01*
X109951427Y-79605471D02*
X110022856Y-79748328D01*
X110022856Y-79748328D02*
X110094285Y-79819757D01*
X110094285Y-79819757D02*
X110237142Y-79891185D01*
X110237142Y-79891185D02*
X110522856Y-79891185D01*
X110522856Y-79891185D02*
X110665713Y-79962614D01*
X110665713Y-79962614D02*
X110737142Y-80034042D01*
X110737142Y-80034042D02*
X110808570Y-80176900D01*
X110808570Y-80176900D02*
X110808570Y-80462614D01*
X110808570Y-80462614D02*
X110737142Y-80605471D01*
X110737142Y-80605471D02*
X110665713Y-80676900D01*
X110665713Y-80676900D02*
X110522856Y-80748328D01*
X110522856Y-80748328D02*
X110237142Y-80748328D01*
X110237142Y-80748328D02*
X110094285Y-80676900D01*
X110094285Y-80676900D02*
X110022856Y-80605471D01*
X110022856Y-80605471D02*
X109951427Y-80462614D01*
X109951427Y-80462614D02*
X109951427Y-80176900D01*
X109951427Y-80176900D02*
X110022856Y-80034042D01*
X110022856Y-80034042D02*
X110094285Y-79962614D01*
X110094285Y-79962614D02*
X110237142Y-79891185D01*
X108665714Y-79748328D02*
X108665714Y-80748328D01*
X109022856Y-79176900D02*
X109379999Y-80248328D01*
X109379999Y-80248328D02*
X108451428Y-80248328D01*
X107880000Y-80605471D02*
X107808571Y-80676900D01*
X107808571Y-80676900D02*
X107880000Y-80748328D01*
X107880000Y-80748328D02*
X107951428Y-80676900D01*
X107951428Y-80676900D02*
X107880000Y-80605471D01*
X107880000Y-80605471D02*
X107880000Y-80748328D01*
X106522857Y-79248328D02*
X106808571Y-79248328D01*
X106808571Y-79248328D02*
X106951428Y-79319757D01*
X106951428Y-79319757D02*
X107022857Y-79391185D01*
X107022857Y-79391185D02*
X107165714Y-79605471D01*
X107165714Y-79605471D02*
X107237142Y-79891185D01*
X107237142Y-79891185D02*
X107237142Y-80462614D01*
X107237142Y-80462614D02*
X107165714Y-80605471D01*
X107165714Y-80605471D02*
X107094285Y-80676900D01*
X107094285Y-80676900D02*
X106951428Y-80748328D01*
X106951428Y-80748328D02*
X106665714Y-80748328D01*
X106665714Y-80748328D02*
X106522857Y-80676900D01*
X106522857Y-80676900D02*
X106451428Y-80605471D01*
X106451428Y-80605471D02*
X106379999Y-80462614D01*
X106379999Y-80462614D02*
X106379999Y-80105471D01*
X106379999Y-80105471D02*
X106451428Y-79962614D01*
X106451428Y-79962614D02*
X106522857Y-79891185D01*
X106522857Y-79891185D02*
X106665714Y-79819757D01*
X106665714Y-79819757D02*
X106951428Y-79819757D01*
X106951428Y-79819757D02*
X107094285Y-79891185D01*
X107094285Y-79891185D02*
X107165714Y-79962614D01*
X107165714Y-79962614D02*
X107237142Y-80105471D01*
X105808571Y-79391185D02*
X105737143Y-79319757D01*
X105737143Y-79319757D02*
X105594286Y-79248328D01*
X105594286Y-79248328D02*
X105237143Y-79248328D01*
X105237143Y-79248328D02*
X105094286Y-79319757D01*
X105094286Y-79319757D02*
X105022857Y-79391185D01*
X105022857Y-79391185D02*
X104951428Y-79534042D01*
X104951428Y-79534042D02*
X104951428Y-79676900D01*
X104951428Y-79676900D02*
X105022857Y-79891185D01*
X105022857Y-79891185D02*
X105880000Y-80748328D01*
X105880000Y-80748328D02*
X104951428Y-80748328D01*
D12*
X150190000Y-89580000D02*
X150190000Y-81283580D01*
X65570000Y-81283580D02*
X65570000Y-89580000D01*
X150190000Y-81870000D02*
X65570000Y-81870000D01*
X150190000Y-81870000D02*
X149063496Y-82456421D01*
X150190000Y-81870000D02*
X149063496Y-81283579D01*
X65570000Y-81870000D02*
X66696504Y-81283579D01*
X65570000Y-81870000D02*
X66696504Y-82456421D01*
D13*
%TO.P,U1,1,GPIO26/ADC0/A0*%
%TO.N,Col1*%
X131135000Y-92960000D03*
D14*
X131970000Y-92960000D03*
D13*
%TO.P,U1,2,GPIO27/ADC1/A1*%
%TO.N,Col2*%
X131135000Y-95500000D03*
D14*
X131970000Y-95500000D03*
D13*
%TO.P,U1,3,GPIO28/ADC2/A2*%
%TO.N,Col3*%
X131135000Y-98040000D03*
D14*
X131970000Y-98040000D03*
D13*
%TO.P,U1,4,GPIO29/ADC3/A3*%
%TO.N,LEDs*%
X131135000Y-100580000D03*
D14*
X131970000Y-100580000D03*
D13*
%TO.P,U1,5,GPIO6/SDA*%
%TO.N,SDA*%
X131135000Y-103120000D03*
D14*
X131970000Y-103120000D03*
D13*
%TO.P,U1,6,GPIO7/SCL*%
%TO.N,SCL*%
X131135000Y-105660000D03*
D14*
X131970000Y-105660000D03*
D13*
%TO.P,U1,7,GPIO0/TX*%
%TO.N,Row1*%
X131135000Y-108200000D03*
D14*
X131970000Y-108200000D03*
%TO.P,U1,8,GPIO1/RX*%
%TO.N,Row3*%
X147210000Y-108200000D03*
D15*
X148045000Y-108200000D03*
D14*
%TO.P,U1,9,GPIO2/SCK*%
%TO.N,Row2*%
X147210000Y-105660000D03*
D15*
X148045000Y-105660000D03*
D14*
%TO.P,U1,10,GPIO4/MISO*%
%TO.N,Rota2*%
X147210000Y-103120000D03*
D15*
X148045000Y-103120000D03*
D14*
%TO.P,U1,11,GPIO3/MOSI*%
%TO.N,Rota1*%
X147210000Y-100580000D03*
D15*
X148045000Y-100580000D03*
D14*
%TO.P,U1,12,3V3*%
%TO.N,unconnected-(U1-3V3-Pad12)*%
X147210000Y-98040000D03*
D15*
X148045000Y-98040000D03*
D14*
%TO.P,U1,13,GND*%
%TO.N,GND*%
X147210000Y-95500000D03*
D15*
X148045000Y-95500000D03*
D14*
%TO.P,U1,14,VBUS*%
%TO.N,+5V*%
X147210000Y-92960000D03*
D15*
X148045000Y-92960000D03*
%TD*%
D16*
%TO.P,D10,1,VSS*%
%TO.N,GND*%
X79250000Y-132625000D03*
%TO.P,D10,2,DIN*%
%TO.N,LEDs*%
X79250000Y-134375000D03*
%TO.P,D10,3,VDD*%
%TO.N,+5V*%
X82750000Y-134375000D03*
%TO.P,D10,4,DOUT*%
%TO.N,Net-(D10-DOUT)*%
X82750000Y-132625000D03*
%TD*%
D17*
%TO.P,D7,1,K*%
%TO.N,Row3*%
X90487500Y-165735000D03*
D18*
%TO.P,D7,2,A*%
%TO.N,Net-(D7-A)*%
X90487500Y-158115000D03*
%TD*%
D17*
%TO.P,D4,1,K*%
%TO.N,Row2*%
X90487500Y-146685000D03*
D18*
%TO.P,D4,2,A*%
%TO.N,Net-(D4-A)*%
X90487500Y-139065000D03*
%TD*%
D19*
%TO.P,J1,1,Pin_1*%
%TO.N,GND*%
X114685000Y-96455000D03*
D20*
%TO.P,J1,2,Pin_2*%
%TO.N,+3V3*%
X114685000Y-98995000D03*
%TO.P,J1,3,Pin_3*%
%TO.N,SCL*%
X114685000Y-101535000D03*
%TO.P,J1,4,Pin_4*%
%TO.N,SDA*%
X114685000Y-104075000D03*
%TD*%
D17*
%TO.P,D6,1,K*%
%TO.N,Row3*%
X71437500Y-165735000D03*
D18*
%TO.P,D6,2,A*%
%TO.N,Net-(D6-A)*%
X71437500Y-158115000D03*
%TD*%
D16*
%TO.P,D13,1,VSS*%
%TO.N,GND*%
X79250000Y-151750000D03*
%TO.P,D13,2,DIN*%
%TO.N,Net-(D11-DOUT)*%
X79250000Y-153500000D03*
%TO.P,D13,3,VDD*%
%TO.N,+5V*%
X82750000Y-153500000D03*
%TO.P,D13,4,DOUT*%
%TO.N,Net-(D12-DIN)*%
X82750000Y-151750000D03*
%TD*%
D21*
%TO.P,SW6,1,1*%
%TO.N,Col1*%
X83502500Y-156845000D03*
%TO.P,SW6,2,2*%
%TO.N,Net-(D6-A)*%
X77152500Y-159385000D03*
%TD*%
D17*
%TO.P,D2,1,K*%
%TO.N,Row1*%
X109537500Y-127635000D03*
D18*
%TO.P,D2,2,A*%
%TO.N,Net-(D2-A)*%
X109537500Y-120015000D03*
%TD*%
D16*
%TO.P,D17,1,VSS*%
%TO.N,GND*%
X98500000Y-170585000D03*
%TO.P,D17,2,DIN*%
%TO.N,Net-(D16-DOUT)*%
X98500000Y-172335000D03*
%TO.P,D17,3,VDD*%
%TO.N,+5V*%
X102000000Y-172335000D03*
%TO.P,D17,4,DOUT*%
%TO.N,Net-(D17-DOUT)*%
X102000000Y-170585000D03*
%TD*%
D21*
%TO.P,SW2,1,1*%
%TO.N,Col3*%
X121612500Y-118725000D03*
%TO.P,SW2,2,2*%
%TO.N,Net-(D2-A)*%
X115262500Y-121265000D03*
%TD*%
%TO.P,SW3,1,1*%
%TO.N,Col2*%
X83502500Y-137795000D03*
%TO.P,SW3,2,2*%
%TO.N,Net-(D3-A)*%
X77152500Y-140335000D03*
%TD*%
D16*
%TO.P,D12,1,VSS*%
%TO.N,GND*%
X117500000Y-132750000D03*
%TO.P,D12,2,DIN*%
%TO.N,Net-(D12-DIN)*%
X117500000Y-134500000D03*
%TO.P,D12,3,VDD*%
%TO.N,+5V*%
X121000000Y-134500000D03*
%TO.P,D12,4,DOUT*%
%TO.N,Net-(D12-DOUT)*%
X121000000Y-132750000D03*
%TD*%
D17*
%TO.P,D1,1,K*%
%TO.N,Row1*%
X90487500Y-127635000D03*
D18*
%TO.P,D1,2,A*%
%TO.N,Net-(D1-A)*%
X90487500Y-120015000D03*
%TD*%
D16*
%TO.P,D15,1,VSS*%
%TO.N,GND*%
X117500000Y-151750000D03*
%TO.P,D15,2,DIN*%
%TO.N,Net-(D14-DOUT)*%
X117500000Y-153500000D03*
%TO.P,D15,3,VDD*%
%TO.N,+5V*%
X121000000Y-153500000D03*
%TO.P,D15,4,DOUT*%
%TO.N,Net-(D15-DOUT)*%
X121000000Y-151750000D03*
%TD*%
D17*
%TO.P,D5,1,K*%
%TO.N,Row2*%
X109537500Y-146685000D03*
D18*
%TO.P,D5,2,A*%
%TO.N,Net-(D5-A)*%
X109537500Y-139065000D03*
%TD*%
D22*
%TO.P,SW10,*%
%TO.N,*%
X88106250Y-121325000D03*
X88106250Y-126325000D03*
D23*
%TO.P,SW10,A,A*%
%TO.N,Rota1*%
X73606250Y-121325000D03*
D24*
%TO.P,SW10,B,B*%
%TO.N,Rota2*%
X73606250Y-126325000D03*
%TO.P,SW10,C,C*%
%TO.N,GND*%
X73606250Y-123825000D03*
D25*
%TO.P,SW10,MP*%
%TO.N,N/C*%
X81106250Y-118225000D03*
X81106250Y-129425000D03*
%TD*%
D21*
%TO.P,SW8,1,1*%
%TO.N,Col3*%
X121602500Y-156845000D03*
%TO.P,SW8,2,2*%
%TO.N,Net-(D8-A)*%
X115252500Y-159385000D03*
%TD*%
%TO.P,SW7,1,1*%
%TO.N,Col2*%
X102552500Y-156845000D03*
%TO.P,SW7,2,2*%
%TO.N,Net-(D7-A)*%
X96202500Y-159385000D03*
%TD*%
%TO.P,SW5,1,1*%
%TO.N,Col3*%
X121602500Y-137795000D03*
%TO.P,SW5,2,2*%
%TO.N,Net-(D5-A)*%
X115252500Y-140335000D03*
%TD*%
D17*
%TO.P,D9,1,K*%
%TO.N,Row1*%
X69056250Y-127635000D03*
D18*
%TO.P,D9,2,A*%
%TO.N,Net-(D9-A)*%
X69056250Y-120015000D03*
%TD*%
D17*
%TO.P,D8,1,K*%
%TO.N,Row3*%
X109537500Y-165735000D03*
D18*
%TO.P,D8,2,A*%
%TO.N,Net-(D8-A)*%
X109537500Y-158115000D03*
%TD*%
D16*
%TO.P,D18,1,VSS*%
%TO.N,GND*%
X117520000Y-170535000D03*
%TO.P,D18,2,DIN*%
%TO.N,Net-(D17-DOUT)*%
X117520000Y-172285000D03*
%TO.P,D18,3,VDD*%
%TO.N,+5V*%
X121020000Y-172285000D03*
%TO.P,D18,4,DOUT*%
%TO.N,unconnected-(D18-DOUT-Pad4)*%
X121020000Y-170535000D03*
%TD*%
%TO.P,D14,1,VSS*%
%TO.N,GND*%
X98500000Y-151750000D03*
%TO.P,D14,2,DIN*%
%TO.N,Net-(D12-DOUT)*%
X98500000Y-153500000D03*
%TO.P,D14,3,VDD*%
%TO.N,+5V*%
X102000000Y-153500000D03*
%TO.P,D14,4,DOUT*%
%TO.N,Net-(D14-DOUT)*%
X102000000Y-151750000D03*
%TD*%
%TO.P,D16,1,VSS*%
%TO.N,GND*%
X79212500Y-170575000D03*
%TO.P,D16,2,DIN*%
%TO.N,Net-(D15-DOUT)*%
X79212500Y-172325000D03*
%TO.P,D16,3,VDD*%
%TO.N,+5V*%
X82712500Y-172325000D03*
%TO.P,D16,4,DOUT*%
%TO.N,Net-(D16-DOUT)*%
X82712500Y-170575000D03*
%TD*%
D21*
%TO.P,SW1,1,1*%
%TO.N,Col2*%
X102552500Y-118745000D03*
%TO.P,SW1,2,2*%
%TO.N,Net-(D1-A)*%
X96202500Y-121285000D03*
%TD*%
%TO.P,SW4,1,1*%
%TO.N,Col1*%
X102552500Y-137795000D03*
%TO.P,SW4,2,2*%
%TO.N,Net-(D4-A)*%
X96202500Y-140335000D03*
%TD*%
D17*
%TO.P,D3,1,K*%
%TO.N,Row2*%
X71437500Y-146685000D03*
D18*
%TO.P,D3,2,A*%
%TO.N,Net-(D3-A)*%
X71437500Y-139065000D03*
%TD*%
D16*
%TO.P,D11,1,VSS*%
%TO.N,GND*%
X98500000Y-132541875D03*
%TO.P,D11,2,DIN*%
%TO.N,Net-(D10-DOUT)*%
X98500000Y-134291875D03*
%TO.P,D11,3,VDD*%
%TO.N,+5V*%
X102000000Y-134291875D03*
%TO.P,D11,4,DOUT*%
%TO.N,Net-(D11-DOUT)*%
X102000000Y-132541875D03*
%TD*%
D26*
%TO.N,Row2*%
X87506250Y-147637500D03*
X82902500Y-147637500D03*
%TO.N,+5V*%
X102393750Y-169068750D03*
X85725000Y-151876000D03*
X92868750Y-154781250D03*
X102000000Y-172335000D03*
X95250000Y-150963640D03*
X82750000Y-153500000D03*
%TO.N,GND*%
X117500000Y-132750000D03*
X114300000Y-130968750D03*
X114300000Y-132751000D03*
%TO.N,Net-(D11-DOUT)*%
X85681985Y-138155515D03*
X80962500Y-147637500D03*
X102000000Y-132541875D03*
X80962500Y-153076000D03*
%TO.N,Net-(D12-DIN)*%
X116999000Y-138112500D03*
X82750000Y-151750000D03*
X87864610Y-151634360D03*
X90832390Y-150363640D03*
%TO.N,Net-(D12-DOUT)*%
X121000000Y-132750000D03*
X107156250Y-138112500D03*
%TO.N,Net-(D16-DOUT)*%
X97132475Y-171103996D03*
X98500000Y-172335000D03*
%TO.N,Rota2*%
X85725000Y-128587500D03*
%TD*%
D27*
%TO.N,Row1*%
X109537500Y-127635000D02*
X111860970Y-127635000D01*
X111860970Y-127635000D02*
X116663500Y-122832470D01*
X90487500Y-127635000D02*
X109537500Y-127635000D01*
X129925000Y-108200000D02*
X131970000Y-108200000D01*
X116663500Y-121461500D02*
X129925000Y-108200000D01*
X116663500Y-122832470D02*
X116663500Y-121461500D01*
%TO.N,Net-(D1-A)*%
X96202500Y-121285000D02*
X91757500Y-121285000D01*
X91757500Y-121285000D02*
X90487500Y-120015000D01*
%TO.N,Net-(D2-A)*%
X114012500Y-120015000D02*
X115262500Y-121265000D01*
X109537500Y-120015000D02*
X114012500Y-120015000D01*
%TO.N,Net-(D3-A)*%
X77152500Y-140335000D02*
X72707500Y-140335000D01*
X72707500Y-140335000D02*
X71437500Y-139065000D01*
%TO.N,Row2*%
X109537500Y-146685000D02*
X90487500Y-146685000D01*
X82902500Y-147637500D02*
X87506250Y-147637500D01*
%TO.N,Net-(D4-A)*%
X91757500Y-140335000D02*
X90487500Y-139065000D01*
X96202500Y-140335000D02*
X91757500Y-140335000D01*
%TO.N,Net-(D5-A)*%
X115252500Y-140335000D02*
X110807500Y-140335000D01*
X110807500Y-140335000D02*
X109537500Y-139065000D01*
%TO.N,Net-(D6-A)*%
X77152500Y-159385000D02*
X72707500Y-159385000D01*
X72707500Y-159385000D02*
X71437500Y-158115000D01*
%TO.N,Net-(D7-A)*%
X96202500Y-159385000D02*
X91757500Y-159385000D01*
X91757500Y-159385000D02*
X90487500Y-158115000D01*
%TO.N,Net-(D8-A)*%
X110807500Y-159385000D02*
X109537500Y-158115000D01*
X115252500Y-159385000D02*
X110807500Y-159385000D01*
%TO.N,LEDs*%
X131536000Y-100146000D02*
X107798911Y-100146000D01*
X83007250Y-124937661D02*
X83007250Y-130617750D01*
X83007250Y-130617750D02*
X79250000Y-134375000D01*
X107798911Y-100146000D02*
X83007250Y-124937661D01*
X131970000Y-100580000D02*
X131536000Y-100146000D01*
%TO.N,+5V*%
X95250000Y-150963640D02*
X93781110Y-149494750D01*
X100986316Y-154513684D02*
X100718750Y-154781250D01*
X121000000Y-134500000D02*
X118524000Y-132024000D01*
X100986316Y-159574000D02*
X102393750Y-160981434D01*
X104267875Y-132024000D02*
X102000000Y-134291875D01*
X80962500Y-171450000D02*
X80962500Y-166687500D01*
X88106250Y-149494750D02*
X85725000Y-151876000D01*
X149562000Y-109001626D02*
X124063626Y-134500000D01*
X102000000Y-153500000D02*
X100986316Y-154513684D01*
X100986316Y-154513684D02*
X100986316Y-159574000D01*
X119718750Y-154781250D02*
X121000000Y-153500000D01*
X80962500Y-166687500D02*
X83343750Y-164306250D01*
X82750000Y-134375000D02*
X88106250Y-139731250D01*
X82101500Y-157425314D02*
X82101500Y-154148500D01*
X122121000Y-171184000D02*
X122121000Y-159344814D01*
X147823626Y-92960000D02*
X149562000Y-94698374D01*
X122121000Y-159344814D02*
X119718750Y-156942564D01*
X83343750Y-164306250D02*
X83343750Y-158667564D01*
X102393750Y-160981434D02*
X102393750Y-169068750D01*
X82101500Y-154148500D02*
X82750000Y-153500000D01*
X121020000Y-172285000D02*
X120294000Y-173011000D01*
X102000000Y-134291875D02*
X101274000Y-135017875D01*
X101274000Y-135017875D02*
X83392875Y-135017875D01*
X120294000Y-173011000D02*
X102676000Y-173011000D01*
X124063626Y-134500000D02*
X121000000Y-134500000D01*
X82712500Y-172325000D02*
X81837500Y-172325000D01*
X118524000Y-132024000D02*
X104267875Y-132024000D01*
X119718750Y-156942564D02*
X119718750Y-154781250D01*
X102676000Y-173011000D02*
X102000000Y-172335000D01*
X100718750Y-154781250D02*
X92868750Y-154781250D01*
X83343750Y-158667564D02*
X82101500Y-157425314D01*
X147210000Y-92960000D02*
X147823626Y-92960000D01*
X149562000Y-94698374D02*
X149562000Y-109001626D01*
X93781110Y-149494750D02*
X88106250Y-149494750D01*
X121020000Y-172285000D02*
X122121000Y-171184000D01*
X88106250Y-139731250D02*
X88106250Y-149494750D01*
X81837500Y-172325000D02*
X80962500Y-171450000D01*
X83392875Y-135017875D02*
X82750000Y-134375000D01*
%TO.N,GND*%
X78149000Y-152851000D02*
X79250000Y-151750000D01*
X74907250Y-125126000D02*
X73606250Y-123825000D01*
X117500000Y-155327000D02*
X117500000Y-160162684D01*
X79250000Y-132625000D02*
X74907250Y-128282250D01*
X79212500Y-170575000D02*
X82468750Y-173831250D01*
X117500000Y-160162684D02*
X116419000Y-161243684D01*
X119062500Y-153764500D02*
X117500000Y-155327000D01*
X74907250Y-128282250D02*
X74907250Y-125126000D01*
X98500000Y-132541875D02*
X100073125Y-130968750D01*
X99388750Y-169696250D02*
X116681250Y-169696250D01*
X116419000Y-161243684D02*
X116419000Y-169434000D01*
X114685000Y-96455000D02*
X114793000Y-96563000D01*
X78149000Y-133726000D02*
X79250000Y-132625000D01*
X97774000Y-152476000D02*
X98500000Y-151750000D01*
X117500000Y-151750000D02*
X119062500Y-153312500D01*
X98500000Y-170585000D02*
X99388750Y-169696250D01*
X79212500Y-170575000D02*
X78581250Y-169943750D01*
X79976000Y-152476000D02*
X97774000Y-152476000D01*
X119062500Y-153312500D02*
X119062500Y-153764500D01*
X78149000Y-154226000D02*
X78149000Y-152851000D01*
X114793000Y-96563000D02*
X146147000Y-96563000D01*
X95253750Y-173831250D02*
X98500000Y-170585000D01*
X116681250Y-139782436D02*
X116681250Y-150931250D01*
X116399000Y-133851000D02*
X116399000Y-139500186D01*
X78581250Y-169943750D02*
X78581250Y-154658250D01*
X116419000Y-169434000D02*
X117520000Y-170535000D01*
X116681250Y-169696250D02*
X117520000Y-170535000D01*
X78611500Y-151111500D02*
X78611500Y-135563500D01*
X79250000Y-151750000D02*
X79976000Y-152476000D01*
X116399000Y-133851000D02*
X115299000Y-132751000D01*
X117500000Y-132750000D02*
X116399000Y-133851000D01*
X116399000Y-139500186D02*
X116681250Y-139782436D01*
X78581250Y-154658250D02*
X78149000Y-154226000D01*
X78611500Y-135563500D02*
X78149000Y-135101000D01*
X115299000Y-132751000D02*
X114300000Y-132751000D01*
X100073125Y-130968750D02*
X114300000Y-130968750D01*
X146147000Y-96563000D02*
X147210000Y-95500000D01*
X116681250Y-150931250D02*
X117500000Y-151750000D01*
X82468750Y-173831250D02*
X95253750Y-173831250D01*
X78149000Y-135101000D02*
X78149000Y-133726000D01*
X79250000Y-151750000D02*
X78611500Y-151111500D01*
%TO.N,Net-(D10-DOUT)*%
X98500000Y-134291875D02*
X84416875Y-134291875D01*
X84416875Y-134291875D02*
X82750000Y-132625000D01*
%TO.N,Net-(D11-DOUT)*%
X80962500Y-146256530D02*
X85681985Y-141537045D01*
X80962500Y-147637500D02*
X80962500Y-146256530D01*
X80538500Y-153500000D02*
X80962500Y-153076000D01*
X85681985Y-141537045D02*
X85681985Y-138155515D01*
X79250000Y-153500000D02*
X80538500Y-153500000D01*
%TO.N,Net-(D12-DIN)*%
X117500000Y-137611500D02*
X116999000Y-138112500D01*
X117500000Y-134500000D02*
X117500000Y-137611500D01*
X90832390Y-150363640D02*
X89561670Y-151634360D01*
X89561670Y-151634360D02*
X87864610Y-151634360D01*
%TO.N,Net-(D12-DOUT)*%
X110638500Y-145899840D02*
X107156250Y-142417590D01*
X104214000Y-147786000D02*
X110322660Y-147786000D01*
X110638500Y-147470160D02*
X110638500Y-145899840D01*
X98500000Y-153500000D02*
X104214000Y-147786000D01*
X107156250Y-142417590D02*
X107156250Y-138112500D01*
X110322660Y-147786000D02*
X110638500Y-147470160D01*
%TO.N,Net-(D14-DOUT)*%
X115998000Y-153500000D02*
X114248000Y-151750000D01*
X102000000Y-151750000D02*
X114248000Y-151750000D01*
X117500000Y-153500000D02*
X115998000Y-153500000D01*
%TO.N,Net-(D15-DOUT)*%
X79212500Y-172325000D02*
X81119750Y-174232250D01*
X81119750Y-174232250D02*
X120899750Y-174232250D01*
X122662157Y-172469843D02*
X122662157Y-157766657D01*
X123003500Y-157425314D02*
X123003500Y-153753500D01*
X120899750Y-174232250D02*
X122662157Y-172469843D01*
X123003500Y-153753500D02*
X121000000Y-151750000D01*
X122662157Y-157766657D02*
X123003500Y-157425314D01*
%TO.N,Net-(D16-DOUT)*%
X96603479Y-170575000D02*
X97132475Y-171103996D01*
X82712500Y-170575000D02*
X96603479Y-170575000D01*
%TO.N,Net-(D17-DOUT)*%
X115820000Y-170585000D02*
X117520000Y-172285000D01*
X102000000Y-170585000D02*
X115820000Y-170585000D01*
%TO.N,SDA*%
X132410310Y-106723000D02*
X117333000Y-106723000D01*
X133033000Y-106100310D02*
X132410310Y-106723000D01*
X117333000Y-106723000D02*
X114685000Y-104075000D01*
X133033000Y-104183000D02*
X133033000Y-106100310D01*
X131970000Y-103120000D02*
X133033000Y-104183000D01*
%TO.N,SCL*%
X114685000Y-101535000D02*
X118810000Y-105660000D01*
X118810000Y-105660000D02*
X131970000Y-105660000D01*
%TO.N,Rota2*%
X147210000Y-103120000D02*
X121594000Y-128736000D01*
X85873500Y-128736000D02*
X85725000Y-128587500D01*
X121594000Y-128736000D02*
X85873500Y-128736000D01*
%TO.N,Rota1*%
X116789520Y-99471760D02*
X115161760Y-97844000D01*
X147210000Y-100580000D02*
X146101760Y-99471760D01*
X115161760Y-97844000D02*
X97087250Y-97844000D01*
X146101760Y-99471760D02*
X116789520Y-99471760D01*
X97087250Y-97844000D02*
X73606250Y-121325000D01*
%TD*%
M02*
