%TF.GenerationSoftware,KiCad,Pcbnew,9.0.2*%
%TF.CreationDate,2025-07-05T22:13:59-05:00*%
%TF.ProjectId,starpad,73746172-7061-4642-9e6b-696361645f70,rev?*%
%TF.SameCoordinates,Original*%
%TF.FileFunction,Copper,L2,Bot*%
%TF.FilePolarity,Positive*%
%FSLAX46Y46*%
G04 Gerber Fmt 4.6, Leading zero omitted, Abs format (unit mm)*
G04 Created by KiCad (PCBNEW 9.0.2) date 2025-07-05 22:13:59*
%MOMM*%
%LPD*%
G01*
G04 APERTURE LIST*
G04 Aperture macros list*
%AMRoundRect*
0 Rectangle with rounded corners*
0 $1 Rounding radius*
0 $2 $3 $4 $5 $6 $7 $8 $9 X,Y pos of 4 corners*
0 Add a 4 corners polygon primitive as box body*
4,1,4,$2,$3,$4,$5,$6,$7,$8,$9,$2,$3,0*
0 Add four circle primitives for the rounded corners*
1,1,$1+$1,$2,$3*
1,1,$1+$1,$4,$5*
1,1,$1+$1,$6,$7*
1,1,$1+$1,$8,$9*
0 Add four rect primitives between the rounded corners*
20,1,$1+$1,$2,$3,$4,$5,0*
20,1,$1+$1,$4,$5,$6,$7,0*
20,1,$1+$1,$6,$7,$8,$9,0*
20,1,$1+$1,$8,$9,$2,$3,0*%
G04 Aperture macros list end*
%TA.AperFunction,ComponentPad*%
%ADD10C,1.524000*%
%TD*%
%TA.AperFunction,ComponentPad*%
%ADD11RoundRect,0.250000X0.550000X-0.550000X0.550000X0.550000X-0.550000X0.550000X-0.550000X-0.550000X0*%
%TD*%
%TA.AperFunction,ComponentPad*%
%ADD12C,1.600000*%
%TD*%
%TA.AperFunction,ComponentPad*%
%ADD13R,1.700000X1.700000*%
%TD*%
%TA.AperFunction,ComponentPad*%
%ADD14O,1.700000X1.700000*%
%TD*%
%TA.AperFunction,ComponentPad*%
%ADD15C,2.200000*%
%TD*%
%TA.AperFunction,ComponentPad*%
%ADD16C,1.500000*%
%TD*%
%TA.AperFunction,ComponentPad*%
%ADD17R,2.000000X2.000000*%
%TD*%
%TA.AperFunction,ComponentPad*%
%ADD18C,2.000000*%
%TD*%
%TA.AperFunction,ComponentPad*%
%ADD19R,3.200000X2.000000*%
%TD*%
%TA.AperFunction,ViaPad*%
%ADD20C,0.600000*%
%TD*%
%TA.AperFunction,Conductor*%
%ADD21C,0.200000*%
%TD*%
G04 APERTURE END LIST*
D10*
%TO.P,U1,1,GPIO26/ADC0/A0*%
%TO.N,Col1*%
X131970000Y-92960000D03*
%TO.P,U1,2,GPIO27/ADC1/A1*%
%TO.N,Col2*%
X131970000Y-95500000D03*
%TO.P,U1,3,GPIO28/ADC2/A2*%
%TO.N,Col3*%
X131970000Y-98040000D03*
%TO.P,U1,4,GPIO29/ADC3/A3*%
%TO.N,LEDs*%
X131970000Y-100580000D03*
%TO.P,U1,5,GPIO6/SDA*%
%TO.N,SDA*%
X131970000Y-103120000D03*
%TO.P,U1,6,GPIO7/SCL*%
%TO.N,SCL*%
X131970000Y-105660000D03*
%TO.P,U1,7,GPIO0/TX*%
%TO.N,Row1*%
X131970000Y-108200000D03*
%TO.P,U1,8,GPIO1/RX*%
%TO.N,Row3*%
X147210000Y-108200000D03*
%TO.P,U1,9,GPIO2/SCK*%
%TO.N,Row2*%
X147210000Y-105660000D03*
%TO.P,U1,10,GPIO4/MISO*%
%TO.N,Rota2*%
X147210000Y-103120000D03*
%TO.P,U1,11,GPIO3/MOSI*%
%TO.N,Rota1*%
X147210000Y-100580000D03*
%TO.P,U1,12,3V3*%
%TO.N,unconnected-(U1-3V3-Pad12)*%
X147210000Y-98040000D03*
%TO.P,U1,13,GND*%
%TO.N,GND*%
X147210000Y-95500000D03*
%TO.P,U1,14,VBUS*%
%TO.N,+5V*%
X147210000Y-92960000D03*
%TD*%
D11*
%TO.P,D7,1,K*%
%TO.N,Row3*%
X90487500Y-165735000D03*
D12*
%TO.P,D7,2,A*%
%TO.N,Net-(D7-A)*%
X90487500Y-158115000D03*
%TD*%
D11*
%TO.P,D4,1,K*%
%TO.N,Row2*%
X90487500Y-146685000D03*
D12*
%TO.P,D4,2,A*%
%TO.N,Net-(D4-A)*%
X90487500Y-139065000D03*
%TD*%
D13*
%TO.P,J1,1,Pin_1*%
%TO.N,GND*%
X114685000Y-96455000D03*
D14*
%TO.P,J1,2,Pin_2*%
%TO.N,+3V3*%
X114685000Y-98995000D03*
%TO.P,J1,3,Pin_3*%
%TO.N,SCL*%
X114685000Y-101535000D03*
%TO.P,J1,4,Pin_4*%
%TO.N,SDA*%
X114685000Y-104075000D03*
%TD*%
D11*
%TO.P,D6,1,K*%
%TO.N,Row3*%
X71437500Y-165735000D03*
D12*
%TO.P,D6,2,A*%
%TO.N,Net-(D6-A)*%
X71437500Y-158115000D03*
%TD*%
D15*
%TO.P,SW6,1,1*%
%TO.N,Col1*%
X83502500Y-156845000D03*
%TO.P,SW6,2,2*%
%TO.N,Net-(D6-A)*%
X77152500Y-159385000D03*
%TD*%
D11*
%TO.P,D2,1,K*%
%TO.N,Row1*%
X109537500Y-127635000D03*
D12*
%TO.P,D2,2,A*%
%TO.N,Net-(D2-A)*%
X109537500Y-120015000D03*
%TD*%
D15*
%TO.P,SW2,1,1*%
%TO.N,Col3*%
X121612500Y-118725000D03*
%TO.P,SW2,2,2*%
%TO.N,Net-(D2-A)*%
X115262500Y-121265000D03*
%TD*%
%TO.P,SW3,1,1*%
%TO.N,Col2*%
X83502500Y-137795000D03*
%TO.P,SW3,2,2*%
%TO.N,Net-(D3-A)*%
X77152500Y-140335000D03*
%TD*%
D11*
%TO.P,D1,1,K*%
%TO.N,Row1*%
X90487500Y-127635000D03*
D12*
%TO.P,D1,2,A*%
%TO.N,Net-(D1-A)*%
X90487500Y-120015000D03*
%TD*%
D11*
%TO.P,D5,1,K*%
%TO.N,Row2*%
X109537500Y-146685000D03*
D12*
%TO.P,D5,2,A*%
%TO.N,Net-(D5-A)*%
X109537500Y-139065000D03*
%TD*%
D16*
%TO.P,SW10,*%
%TO.N,*%
X88106250Y-121325000D03*
X88106250Y-126325000D03*
D17*
%TO.P,SW10,A,A*%
%TO.N,Rota1*%
X73606250Y-121325000D03*
D18*
%TO.P,SW10,B,B*%
%TO.N,Rota2*%
X73606250Y-126325000D03*
%TO.P,SW10,C,C*%
%TO.N,GND*%
X73606250Y-123825000D03*
D19*
%TO.P,SW10,MP*%
%TO.N,N/C*%
X81106250Y-118225000D03*
X81106250Y-129425000D03*
%TD*%
D15*
%TO.P,SW8,1,1*%
%TO.N,Col3*%
X121602500Y-156845000D03*
%TO.P,SW8,2,2*%
%TO.N,Net-(D8-A)*%
X115252500Y-159385000D03*
%TD*%
%TO.P,SW7,1,1*%
%TO.N,Col2*%
X102552500Y-156845000D03*
%TO.P,SW7,2,2*%
%TO.N,Net-(D7-A)*%
X96202500Y-159385000D03*
%TD*%
%TO.P,SW5,1,1*%
%TO.N,Col3*%
X121602500Y-137795000D03*
%TO.P,SW5,2,2*%
%TO.N,Net-(D5-A)*%
X115252500Y-140335000D03*
%TD*%
D11*
%TO.P,D9,1,K*%
%TO.N,Row1*%
X69056250Y-127635000D03*
D12*
%TO.P,D9,2,A*%
%TO.N,Net-(D9-A)*%
X69056250Y-120015000D03*
%TD*%
D11*
%TO.P,D8,1,K*%
%TO.N,Row3*%
X109537500Y-165735000D03*
D12*
%TO.P,D8,2,A*%
%TO.N,Net-(D8-A)*%
X109537500Y-158115000D03*
%TD*%
D15*
%TO.P,SW1,1,1*%
%TO.N,Col2*%
X102552500Y-118745000D03*
%TO.P,SW1,2,2*%
%TO.N,Net-(D1-A)*%
X96202500Y-121285000D03*
%TD*%
%TO.P,SW4,1,1*%
%TO.N,Col1*%
X102552500Y-137795000D03*
%TO.P,SW4,2,2*%
%TO.N,Net-(D4-A)*%
X96202500Y-140335000D03*
%TD*%
D11*
%TO.P,D3,1,K*%
%TO.N,Row2*%
X71437500Y-146685000D03*
D12*
%TO.P,D3,2,A*%
%TO.N,Net-(D3-A)*%
X71437500Y-139065000D03*
%TD*%
D20*
%TO.N,Row2*%
X87506250Y-147637500D03*
X82902500Y-147637500D03*
%TO.N,+5V*%
X102393750Y-169068750D03*
X85725000Y-151876000D03*
X92868750Y-154781250D03*
X102000000Y-172335000D03*
X95250000Y-150963640D03*
X82750000Y-153500000D03*
%TO.N,GND*%
X117500000Y-132750000D03*
X114300000Y-130968750D03*
X114300000Y-132751000D03*
%TO.N,Net-(D11-DOUT)*%
X85681985Y-138155515D03*
X80962500Y-147637500D03*
X102000000Y-132541875D03*
X80962500Y-153076000D03*
%TO.N,Net-(D12-DIN)*%
X116999000Y-138112500D03*
X82750000Y-151750000D03*
X87864610Y-151634360D03*
X90832390Y-150363640D03*
%TO.N,Net-(D12-DOUT)*%
X121000000Y-132750000D03*
X107156250Y-138112500D03*
%TO.N,Net-(D16-DOUT)*%
X97132475Y-171103996D03*
X98500000Y-172335000D03*
%TO.N,Rota2*%
X85725000Y-128587500D03*
%TD*%
D21*
%TO.N,Row1*%
X87153750Y-130968750D02*
X90487500Y-127635000D01*
X72390000Y-130968750D02*
X87153750Y-130968750D01*
X69056250Y-127635000D02*
X72390000Y-130968750D01*
%TO.N,Row2*%
X146147000Y-106723000D02*
X146147000Y-134281814D01*
X122182814Y-158246000D02*
X121022186Y-158246000D01*
X109537500Y-146761314D02*
X109537500Y-146685000D01*
X88458750Y-146685000D02*
X90487500Y-146685000D01*
X87506250Y-147637500D02*
X88458750Y-146685000D01*
X121022186Y-158246000D02*
X109537500Y-146761314D01*
X146147000Y-134281814D02*
X122182814Y-158246000D01*
X71437500Y-146685000D02*
X81950000Y-146685000D01*
X147210000Y-105660000D02*
X146147000Y-106723000D01*
X81950000Y-146685000D02*
X82902500Y-147637500D01*
%TO.N,Row3*%
X109537500Y-165735000D02*
X90487500Y-165735000D01*
X90487500Y-165735000D02*
X71437500Y-165735000D01*
X147210000Y-108200000D02*
X147210000Y-137102316D01*
X147210000Y-137102316D02*
X118577316Y-165735000D01*
X118577316Y-165735000D02*
X109537500Y-165735000D01*
%TO.N,+5V*%
X84374000Y-151876000D02*
X82750000Y-153500000D01*
X92868750Y-154781250D02*
X95250000Y-152400000D01*
X102393750Y-171941250D02*
X102000000Y-172335000D01*
X95250000Y-152400000D02*
X95250000Y-150963640D01*
X85725000Y-151876000D02*
X84374000Y-151876000D01*
X102393750Y-169068750D02*
X102393750Y-171941250D01*
%TO.N,GND*%
X116681250Y-131931250D02*
X117500000Y-132750000D01*
X116681250Y-98451250D02*
X116681250Y-131931250D01*
X114685000Y-96455000D02*
X116681250Y-98451250D01*
X114300000Y-130968750D02*
X114300000Y-132751000D01*
%TO.N,Net-(D11-DOUT)*%
X91295625Y-132541875D02*
X102000000Y-132541875D01*
X85681985Y-138155515D02*
X91295625Y-132541875D01*
X80962500Y-153076000D02*
X80962500Y-147637500D01*
%TO.N,Net-(D12-DIN)*%
X87505250Y-151275000D02*
X83225000Y-151275000D01*
X83225000Y-151275000D02*
X82750000Y-151750000D01*
X115493686Y-138112500D02*
X103242546Y-150363640D01*
X116999000Y-138112500D02*
X115493686Y-138112500D01*
X87864610Y-151634360D02*
X87505250Y-151275000D01*
X103242546Y-150363640D02*
X90832390Y-150363640D01*
%TO.N,Net-(D12-DOUT)*%
X107156250Y-138112500D02*
X111917750Y-133351000D01*
X120399000Y-133351000D02*
X121000000Y-132750000D01*
X111917750Y-133351000D02*
X120399000Y-133351000D01*
%TO.N,Net-(D16-DOUT)*%
X97268996Y-171103996D02*
X98500000Y-172335000D01*
X97132475Y-171103996D02*
X97268996Y-171103996D01*
%TO.N,Col2*%
X83502500Y-149563000D02*
X82101500Y-150964000D01*
X133033000Y-92519690D02*
X132410310Y-91897000D01*
X82101500Y-157425314D02*
X82922186Y-158246000D01*
X132410310Y-91897000D02*
X116373900Y-91897000D01*
X102552500Y-105718400D02*
X102552500Y-118745000D01*
X133033000Y-94437000D02*
X133033000Y-92519690D01*
X102552500Y-118745000D02*
X101710970Y-118745000D01*
X101710970Y-118745000D02*
X83502500Y-136953470D01*
X84082814Y-158246000D02*
X85483814Y-156845000D01*
X116373900Y-91897000D02*
X102552500Y-105718400D01*
X82101500Y-150964000D02*
X82101500Y-157425314D01*
X82922186Y-158246000D02*
X84082814Y-158246000D01*
X85483814Y-156845000D02*
X102552500Y-156845000D01*
X131970000Y-95500000D02*
X133033000Y-94437000D01*
X83502500Y-137795000D02*
X83502500Y-149563000D01*
X83502500Y-136953470D02*
X83502500Y-137795000D01*
%TO.N,Col3*%
X121612500Y-118725000D02*
X121612500Y-137785000D01*
X121602500Y-137795000D02*
X121602500Y-156845000D01*
X121612500Y-108397500D02*
X121612500Y-118725000D01*
X121612500Y-137785000D02*
X121602500Y-137795000D01*
X131970000Y-98040000D02*
X121612500Y-108397500D01*
%TO.N,Col1*%
X102552500Y-137795000D02*
X100996866Y-137795000D01*
X97631250Y-142716250D02*
X83502500Y-156845000D01*
X97631250Y-141160616D02*
X97631250Y-142716250D01*
X131970000Y-92960000D02*
X115878000Y-92960000D01*
X115878000Y-92960000D02*
X106293500Y-102544500D01*
X106293500Y-102544500D02*
X106293500Y-134054000D01*
X100996866Y-137795000D02*
X97631250Y-141160616D01*
X106293500Y-134054000D02*
X102552500Y-137795000D01*
%TO.N,Rota2*%
X85725000Y-128587500D02*
X83462500Y-126325000D01*
X83462500Y-126325000D02*
X73606250Y-126325000D01*
%TD*%
M02*
