%TF.GenerationSoftware,KiCad,Pcbnew,9.0.2*%
%TF.CreationDate,2025-07-05T22:13:59-05:00*%
%TF.ProjectId,starpad,73746172-7061-4642-9e6b-696361645f70,rev?*%
%TF.SameCoordinates,Original*%
%TF.FileFunction,Soldermask,Top*%
%TF.FilePolarity,Negative*%
%FSLAX46Y46*%
G04 Gerber Fmt 4.6, Leading zero omitted, Abs format (unit mm)*
G04 Created by KiCad (PCBNEW 9.0.2) date 2025-07-05 22:13:59*
%MOMM*%
%LPD*%
G01*
G04 APERTURE LIST*
G04 Aperture macros list*
%AMRoundRect*
0 Rectangle with rounded corners*
0 $1 Rounding radius*
0 $2 $3 $4 $5 $6 $7 $8 $9 X,Y pos of 4 corners*
0 Add a 4 corners polygon primitive as box body*
4,1,4,$2,$3,$4,$5,$6,$7,$8,$9,$2,$3,0*
0 Add four circle primitives for the rounded corners*
1,1,$1+$1,$2,$3*
1,1,$1+$1,$4,$5*
1,1,$1+$1,$6,$7*
1,1,$1+$1,$8,$9*
0 Add four rect primitives between the rounded corners*
20,1,$1+$1,$2,$3,$4,$5,0*
20,1,$1+$1,$4,$5,$6,$7,0*
20,1,$1+$1,$6,$7,$8,$9,0*
20,1,$1+$1,$8,$9,$2,$3,0*%
G04 Aperture macros list end*
%ADD10RoundRect,0.152400X1.063600X0.609600X-1.063600X0.609600X-1.063600X-0.609600X1.063600X-0.609600X0*%
%ADD11C,1.524000*%
%ADD12RoundRect,0.152400X-1.063600X-0.609600X1.063600X-0.609600X1.063600X0.609600X-1.063600X0.609600X0*%
%ADD13R,1.600000X0.850000*%
%ADD14RoundRect,0.250000X0.550000X-0.550000X0.550000X0.550000X-0.550000X0.550000X-0.550000X-0.550000X0*%
%ADD15C,1.600000*%
%ADD16R,1.700000X1.700000*%
%ADD17O,1.700000X1.700000*%
%ADD18C,1.700000*%
%ADD19C,4.000000*%
%ADD20C,2.200000*%
%ADD21C,1.500000*%
%ADD22R,2.000000X2.000000*%
%ADD23C,2.000000*%
%ADD24R,3.200000X2.000000*%
G04 APERTURE END LIST*
D10*
%TO.C,U1*%
X131135000Y-92960000D03*
D11*
X131970000Y-92960000D03*
D10*
X131135000Y-95500000D03*
D11*
X131970000Y-95500000D03*
D10*
X131135000Y-98040000D03*
D11*
X131970000Y-98040000D03*
D10*
X131135000Y-100580000D03*
D11*
X131970000Y-100580000D03*
D10*
X131135000Y-103120000D03*
D11*
X131970000Y-103120000D03*
D10*
X131135000Y-105660000D03*
D11*
X131970000Y-105660000D03*
D10*
X131135000Y-108200000D03*
D11*
X131970000Y-108200000D03*
X147210000Y-108200000D03*
D12*
X148045000Y-108200000D03*
D11*
X147210000Y-105660000D03*
D12*
X148045000Y-105660000D03*
D11*
X147210000Y-103120000D03*
D12*
X148045000Y-103120000D03*
D11*
X147210000Y-100580000D03*
D12*
X148045000Y-100580000D03*
D11*
X147210000Y-98040000D03*
D12*
X148045000Y-98040000D03*
D11*
X147210000Y-95500000D03*
D12*
X148045000Y-95500000D03*
D11*
X147210000Y-92960000D03*
D12*
X148045000Y-92960000D03*
%TD*%
D13*
%TO.C,D10*%
X79250000Y-132625000D03*
X79250000Y-134375000D03*
X82750000Y-134375000D03*
X82750000Y-132625000D03*
%TD*%
D14*
%TO.C,D7*%
X90487500Y-165735000D03*
D15*
X90487500Y-158115000D03*
%TD*%
D14*
%TO.C,D4*%
X90487500Y-146685000D03*
D15*
X90487500Y-139065000D03*
%TD*%
D16*
%TO.C,J1*%
X114685000Y-96455000D03*
D17*
X114685000Y-98995000D03*
X114685000Y-101535000D03*
X114685000Y-104075000D03*
%TD*%
D14*
%TO.C,D6*%
X71437500Y-165735000D03*
D15*
X71437500Y-158115000D03*
%TD*%
D13*
%TO.C,D13*%
X79250000Y-151750000D03*
X79250000Y-153500000D03*
X82750000Y-153500000D03*
X82750000Y-151750000D03*
%TD*%
D18*
%TO.C,SW6*%
X75882500Y-161925000D03*
D19*
X80962500Y-161925000D03*
D18*
X86042500Y-161925000D03*
D20*
X83502500Y-156845000D03*
X77152500Y-159385000D03*
%TD*%
D14*
%TO.C,D2*%
X109537500Y-127635000D03*
D15*
X109537500Y-120015000D03*
%TD*%
D13*
%TO.C,D17*%
X98500000Y-170585000D03*
X98500000Y-172335000D03*
X102000000Y-172335000D03*
X102000000Y-170585000D03*
%TD*%
D18*
%TO.C,SW2*%
X113992500Y-123805000D03*
D19*
X119072500Y-123805000D03*
D18*
X124152500Y-123805000D03*
D20*
X121612500Y-118725000D03*
X115262500Y-121265000D03*
%TD*%
D18*
%TO.C,SW3*%
X75882500Y-142875000D03*
D19*
X80962500Y-142875000D03*
D18*
X86042500Y-142875000D03*
D20*
X83502500Y-137795000D03*
X77152500Y-140335000D03*
%TD*%
D13*
%TO.C,D12*%
X117500000Y-132750000D03*
X117500000Y-134500000D03*
X121000000Y-134500000D03*
X121000000Y-132750000D03*
%TD*%
D14*
%TO.C,D1*%
X90487500Y-127635000D03*
D15*
X90487500Y-120015000D03*
%TD*%
D13*
%TO.C,D15*%
X117500000Y-151750000D03*
X117500000Y-153500000D03*
X121000000Y-153500000D03*
X121000000Y-151750000D03*
%TD*%
D14*
%TO.C,D5*%
X109537500Y-146685000D03*
D15*
X109537500Y-139065000D03*
%TD*%
D21*
%TO.C,SW10*%
X88106250Y-121325000D03*
X88106250Y-126325000D03*
D22*
X73606250Y-121325000D03*
D23*
X73606250Y-126325000D03*
X73606250Y-123825000D03*
D24*
X81106250Y-118225000D03*
X81106250Y-129425000D03*
%TD*%
D18*
%TO.C,SW8*%
X113982500Y-161925000D03*
D19*
X119062500Y-161925000D03*
D18*
X124142500Y-161925000D03*
D20*
X121602500Y-156845000D03*
X115252500Y-159385000D03*
%TD*%
D18*
%TO.C,SW7*%
X94932500Y-161925000D03*
D19*
X100012500Y-161925000D03*
D18*
X105092500Y-161925000D03*
D20*
X102552500Y-156845000D03*
X96202500Y-159385000D03*
%TD*%
D18*
%TO.C,SW5*%
X113982500Y-142875000D03*
D19*
X119062500Y-142875000D03*
D18*
X124142500Y-142875000D03*
D20*
X121602500Y-137795000D03*
X115252500Y-140335000D03*
%TD*%
D14*
%TO.C,D9*%
X69056250Y-127635000D03*
D15*
X69056250Y-120015000D03*
%TD*%
D14*
%TO.C,D8*%
X109537500Y-165735000D03*
D15*
X109537500Y-158115000D03*
%TD*%
D13*
%TO.C,D18*%
X117520000Y-170535000D03*
X117520000Y-172285000D03*
X121020000Y-172285000D03*
X121020000Y-170535000D03*
%TD*%
%TO.C,D14*%
X98500000Y-151750000D03*
X98500000Y-153500000D03*
X102000000Y-153500000D03*
X102000000Y-151750000D03*
%TD*%
%TO.C,D16*%
X79212500Y-170575000D03*
X79212500Y-172325000D03*
X82712500Y-172325000D03*
X82712500Y-170575000D03*
%TD*%
D18*
%TO.C,SW1*%
X94932500Y-123825000D03*
D19*
X100012500Y-123825000D03*
D18*
X105092500Y-123825000D03*
D20*
X102552500Y-118745000D03*
X96202500Y-121285000D03*
%TD*%
D18*
%TO.C,SW4*%
X94932500Y-142875000D03*
D19*
X100012500Y-142875000D03*
D18*
X105092500Y-142875000D03*
D20*
X102552500Y-137795000D03*
X96202500Y-140335000D03*
%TD*%
D14*
%TO.C,D3*%
X71437500Y-146685000D03*
D15*
X71437500Y-139065000D03*
%TD*%
D13*
%TO.C,D11*%
X98500000Y-132541875D03*
X98500000Y-134291875D03*
X102000000Y-134291875D03*
X102000000Y-132541875D03*
%TD*%
M02*
