<?xml version="1.0" encoding="UTF-8"?>
<svg version="1.1" xmlns="http://www.w3.org/2000/svg" width="532" height="469">
<path d="M0 0 C0.80824219 0.10183594 1.61648437 0.20367187 2.44921875 0.30859375 C3.06410156 0.39238281 3.67898437 0.47617188 4.3125 0.5625 C4.3125 1.2225 4.3125 1.8825 4.3125 2.5625 C5.3025 2.5625 6.2925 2.5625 7.3125 2.5625 C7.3125 3.2225 7.3125 3.8825 7.3125 4.5625 C7.9725 4.5625 8.6325 4.5625 9.3125 4.5625 C19.67637271 14.89515623 23.31802194 29.60990329 23.43994141 43.74267578 C23.43647245 46.6836576 23.38479557 49.62248002 23.3125 52.5625 C25.05273438 52.51029297 25.05273438 52.51029297 26.828125 52.45703125 C41.76820861 52.13953242 52.8302509 54.84312102 66.3125 61.5625 C66.3125 62.2225 66.3125 62.8825 66.3125 63.5625 C66.951875 63.830625 67.59125 64.09875 68.25 64.375 C70.3125 65.5625 70.3125 65.5625 71.3125 68.5625 C71.9725 68.5625 72.6325 68.5625 73.3125 68.5625 C73.3125 69.5525 73.3125 70.5425 73.3125 71.5625 C73.9725 71.5625 74.6325 71.5625 75.3125 71.5625 C75.90417969 72.70847656 76.49585938 73.85445313 77.10546875 75.03515625 C77.90336951 76.56524829 78.70156221 78.09518812 79.5 79.625 C79.88736328 80.37716797 80.27472656 81.12933594 80.67382812 81.90429688 C82.62001288 85.6197405 84.62676446 89.113203 87.11328125 92.49609375 C89.3125 95.5625 89.3125 95.5625 89.3125 97.5625 C89.9725 97.5625 90.6325 97.5625 91.3125 97.5625 C91.3125 98.2225 91.3125 98.8825 91.3125 99.5625 C91.89 99.7996875 92.4675 100.036875 93.0625 100.28125 C99.68359872 104.05159788 104.15676418 111.98818174 106.6328125 119 C109.2626335 128.91472747 109.64937783 140.6715103 104.4765625 149.7890625 C101.09086916 154.94713222 97.10255269 158.77501648 92.3125 162.5625 C92.745625 163.80386719 92.745625 163.80386719 93.1875 165.0703125 C95.6734985 173.06348824 96.74422104 180.49233472 96.8125 188.875 C96.83054687 189.78072754 96.84859375 190.68645508 96.8671875 191.61962891 C96.80195979 199.08140719 94.61990136 204.94769728 91.3125 211.5625 C90.6525 211.5625 89.9925 211.5625 89.3125 211.5625 C89.3125 212.2225 89.3125 212.8825 89.3125 213.5625 C88.6525 213.5625 87.9925 213.5625 87.3125 213.5625 C87.3125 214.2225 87.3125 214.8825 87.3125 215.5625 C86.6525 215.5625 85.9925 215.5625 85.3125 215.5625 C85.3125 216.2225 85.3125 216.8825 85.3125 217.5625 C84.3225 217.5625 83.3325 217.5625 82.3125 217.5625 C82.4775 218.7175 82.6425 219.8725 82.8125 221.0625 C84.50416331 236.60618894 84.1494603 253.09665573 75.3125 266.5625 C76.3334375 266.624375 76.3334375 266.624375 77.375 266.6875 C82.07617124 268.08784888 85.8908113 271.28685967 88.49609375 275.45703125 C90.02802601 279.40780392 89.84454624 283.40465717 89.3125 287.5625 C87.13275268 292.00272601 84.88312115 294.63268218 80.3125 296.5625 C71.51968682 298.00333913 62.79501212 297.3498438 53.93725586 296.89379883 C51.94168481 296.79367543 49.94544384 296.70719766 47.94921875 296.62109375 C46.77061279 296.56236084 45.59200684 296.50362793 44.37768555 296.44311523 C41.34311599 296.56130755 39.75780449 296.7947358 37.3125 298.5625 C36.9825 299.5525 36.6525 300.5425 36.3125 301.5625 C25.96810391 308.45876406 2.96794741 305.12686148 -8.97265625 302.96875 C-15.72886314 301.36469572 -22.21869099 299.07107357 -28.6875 296.5625 C-28.6875 295.9025 -28.6875 295.2425 -28.6875 294.5625 C-29.75097656 294.46388672 -29.75097656 294.46388672 -30.8359375 294.36328125 C-34.5966572 293.30718873 -36.47898612 291.41568868 -39.3125 288.75 C-40.72402344 287.44095703 -40.72402344 287.44095703 -42.1640625 286.10546875 C-44.6875 283.5625 -44.6875 283.5625 -46.2265625 281.30078125 C-48.165288 278.99400893 -49.48819448 278.92887336 -52.4375 278.5625 C-58.76991871 277.48405315 -63.36611399 275.5941061 -67.4375 270.375 C-73.47665597 260.88774507 -74.3081542 249.62167156 -72.11328125 238.70703125 C-70.05772143 232.21407247 -66.94521294 226.98375861 -61.6875 222.5625 C-60.49125 222.315 -59.295 222.0675 -58.0625 221.8125 C-54.66305246 220.98630257 -54.66305246 220.98630257 -53.8203125 218.8671875 C-53.37677752 217.3394559 -52.95684993 215.80476518 -52.5546875 214.265625 C-50.05551447 206.47540998 -44.76367337 198.94397509 -39.6875 192.5625 C-39.0275 192.5625 -38.3675 192.5625 -37.6875 192.5625 C-37.584375 191.923125 -37.48125 191.28375 -37.375 190.625 C-37.148125 189.944375 -36.92125 189.26375 -36.6875 188.5625 C-35.6975 188.2325 -34.7075 187.9025 -33.6875 187.5625 C-32.67833967 185.79658113 -32.67833967 185.79658113 -31.6875 183.5625 C-29.68553645 180.49282256 -27.62322184 177.46797329 -25.5625 174.4375 C-24.08863218 172.17756934 -22.81505478 170.00553535 -21.6875 167.5625 C-22.1825 166.94375 -22.6775 166.325 -23.1875 165.6875 C-24.6875 163.5625 -24.6875 163.5625 -24.6875 161.5625 C-25.3475 161.5625 -26.0075 161.5625 -26.6875 161.5625 C-32.4570859 150.42123069 -36.08424902 139.98139495 -35.9375 127.3125 C-35.93363281 126.49418701 -35.92976563 125.67587402 -35.92578125 124.83276367 C-35.82855575 117.93853018 -35.04821169 111.32961082 -33.6875 104.5625 C-34.37714844 104.21058594 -35.06679687 103.85867187 -35.77734375 103.49609375 C-42.17568881 100.13454895 -48.43358512 96.59588018 -53.6875 91.5625 C-53.6875 90.9025 -53.6875 90.2425 -53.6875 89.5625 C-55.1725 89.0675 -55.1725 89.0675 -56.6875 88.5625 C-56.6875 87.9025 -56.6875 87.2425 -56.6875 86.5625 C-57.3475 86.5625 -58.0075 86.5625 -58.6875 86.5625 C-58.6875 85.9025 -58.6875 85.2425 -58.6875 84.5625 C-59.3475 84.5625 -60.0075 84.5625 -60.6875 84.5625 C-67.40970153 77.1008563 -71.95638181 68.86030256 -75.6875 59.5625 C-76.01621094 58.75941406 -76.34492188 57.95632812 -76.68359375 57.12890625 C-79.75347657 48.88869448 -81.05318589 39.83647782 -77.6875 31.5625 C-74.58083272 27.98749092 -71.45455952 25.29723945 -66.6875 24.5625 C-58.91507275 24.50625957 -52.51457857 25.85587906 -45.6875 29.5625 C-45.6875 30.2225 -45.6875 30.8825 -45.6875 31.5625 C-45.171875 31.645 -44.65625 31.7275 -44.125 31.8125 C-40.64294268 32.88390225 -37.81549115 34.69773605 -34.6875 36.5625 C-34.6875 37.2225 -34.6875 37.8825 -34.6875 38.5625 C-34.171875 38.789375 -33.65625 39.01625 -33.125 39.25 C-28.06329127 41.97553547 -23.59866379 45.33844311 -19.6875 49.5625 C-19.84863281 48.840625 -20.00976562 48.11875 -20.17578125 47.375 C-22.50259202 34.5864217 -19.56697233 21.38219268 -14.6875 9.5625 C-14.0275 9.5625 -13.3675 9.5625 -12.6875 9.5625 C-12.605 9.005625 -12.5225 8.44875 -12.4375 7.875 C-11.44360222 4.81048184 -9.85587401 2.92220113 -7.6875 0.5625 C-4.59271121 -0.46909626 -3.16118607 -0.41232862 0 0 Z M-4.6875 3.5625 C-5.0175 4.5525 -5.3475 5.5425 -5.6875 6.5625 C-6.3475 6.5625 -7.0075 6.5625 -7.6875 6.5625 C-8.65095444 8.43487371 -9.60803102 10.3105299 -10.5625 12.1875 C-11.09617188 13.23164062 -11.62984375 14.27578125 -12.1796875 15.3515625 C-17.89301686 27.5182898 -19.22815351 44.69339393 -14.6875 57.5625 C-13.60180687 59.50855373 -12.39513437 61.31133531 -11.12890625 63.14453125 C-9.16737974 66.43500526 -7.7843313 69.88183609 -6.375 73.4375 C-6.10848633 74.10483154 -5.84197266 74.77216309 -5.56738281 75.4597168 C-3.6875 80.28479052 -3.6875 80.28479052 -3.6875 82.5625 C-5.1725 83.0575 -5.1725 83.0575 -6.6875 83.5625 C-7.16858275 82.14648286 -7.64728141 80.72965563 -8.125 79.3125 C-8.39183594 78.52359375 -8.65867187 77.7346875 -8.93359375 76.921875 C-9.60704708 74.81428012 -10.17900595 72.71496027 -10.6875 70.5625 C-11.3475 70.5625 -12.0075 70.5625 -12.6875 70.5625 C-12.6875 69.2425 -12.6875 67.9225 -12.6875 66.5625 C-13.3475 66.5625 -14.0075 66.5625 -14.6875 66.5625 C-14.89375 65.9025 -15.1 65.2425 -15.3125 64.5625 C-18.80454587 56.94349083 -25.67459128 47.80155169 -33.43359375 44.3359375 C-34.54927734 43.95308594 -34.54927734 43.95308594 -35.6875 43.5625 C-35.6875 42.9025 -35.6875 42.2425 -35.6875 41.5625 C-38.1350284 39.81169134 -40.56689739 38.19952207 -43.125 36.625 C-43.8576709 36.17205566 -44.5903418 35.71911133 -45.34521484 35.25244141 C-51.88937601 31.29291241 -58.75791855 27.32900955 -66.6875 28.5625 C-70.3453218 30.60243908 -72.35696174 32.06669262 -74.6875 35.5625 C-76.7111622 51.70473568 -69.78339114 65.7531018 -60.35888672 78.33642578 C-59.19448608 79.79459526 -57.94680661 81.18546189 -56.6875 82.5625 C-56.0275 82.5625 -55.3675 82.5625 -54.6875 82.5625 C-54.6875 83.2225 -54.6875 83.8825 -54.6875 84.5625 C-54.0275 84.5625 -53.3675 84.5625 -52.6875 84.5625 C-52.48125 85.14 -52.275 85.7175 -52.0625 86.3125 C-50.18676262 89.38188843 -47.70155737 90.65564738 -44.6875 92.5625 C-44.24921875 93.03429687 -43.8109375 93.50609375 -43.359375 93.9921875 C-41.10066472 96.11368641 -38.65138481 97.2595076 -35.875 98.625 C-34.85792969 99.13160156 -33.84085938 99.63820313 -32.79296875 100.16015625 C-29.8000458 101.51167743 -26.81986004 102.58393012 -23.6875 103.5625 C-23.6875 104.8825 -23.6875 106.2025 -23.6875 107.5625 C-25.3375 107.2325 -26.9875 106.9025 -28.6875 106.5625 C-33.19414788 122.469894 -33.50635904 139.20250089 -25.93359375 154.23828125 C-24.30060754 157.13947388 -22.71707446 159.92305341 -20.6875 162.5625 C-20.0275 162.5625 -19.3675 162.5625 -18.6875 162.5625 C-18.43097656 163.160625 -18.17445313 163.75875 -17.91015625 164.375 C-16.23432822 167.37328657 -13.93978155 168.93913283 -11.24609375 171 C-9.43831899 172.81230553 -9.08002509 174.06754602 -8.6875 176.5625 C-10.38020833 175.48828125 -12.07291667 174.4140625 -13.765625 173.33984375 C-16.23033603 172.34293827 -17.21429036 172.6566185 -19.6875 173.5625 C-21.18655176 174.97725788 -21.18655176 174.97725788 -22.4140625 176.80078125 C-22.8884375 177.45626953 -23.3628125 178.11175781 -23.8515625 178.78710938 C-24.33367187 179.47611328 -24.81578125 180.16511719 -25.3125 180.875 C-25.80234375 181.55240234 -26.2921875 182.22980469 -26.796875 182.92773438 C-29.03506634 186.0556985 -31.02711676 189.08412645 -32.6875 192.5625 C-33.3475 192.5625 -34.0075 192.5625 -34.6875 192.5625 C-34.6875 193.5525 -34.6875 194.5425 -34.6875 195.5625 C-35.3475 195.5625 -36.0075 195.5625 -36.6875 195.5625 C-38.25134697 197.48862812 -39.66684271 199.39394001 -41.0625 201.4375 C-41.46662109 202.02305664 -41.87074219 202.60861328 -42.28710938 203.21191406 C-45.17663973 207.51811043 -47.32015958 211.82291175 -49.03125 216.734375 C-49.6875 218.5625 -49.6875 218.5625 -50.6875 219.5625 C-50.92113881 221.41141946 -51.10053635 223.26738031 -51.25 225.125 C-51.33378906 226.13691406 -51.41757813 227.14882813 -51.50390625 228.19140625 C-51.56449219 228.97386719 -51.62507813 229.75632812 -51.6875 230.5625 C-52.6775 230.5625 -53.6675 230.5625 -54.6875 230.5625 C-54.6875 229.2425 -54.6875 227.9225 -54.6875 226.5625 C-56.92974658 225.97286322 -56.92974658 225.97286322 -59.6875 226.5625 C-64.36157477 230.38355613 -67.58225255 235.63764893 -68.6875 241.5625 C-69.65825196 251.72303717 -69.02749219 259.56079887 -63.6875 268.5625 C-63.0275 268.5625 -62.3675 268.5625 -61.6875 268.5625 C-61.6875 269.2225 -61.6875 269.8825 -61.6875 270.5625 C-61.0275 270.5625 -60.3675 270.5625 -59.6875 270.5625 C-59.6875 271.2225 -59.6875 271.8825 -59.6875 272.5625 C-54.74000648 274.51281608 -54.74000648 274.51281608 -49.6875 273.5625 C-50.1825 272.510625 -50.6775 271.45875 -51.1875 270.375 C-52.51529788 267.30797391 -52.99465006 264.94115064 -52.6875 261.5625 C-49.99424082 263.90479623 -48.94503289 266.03608837 -47.75 269.375 C-46.14427579 273.57695261 -44.47720081 277.02887898 -41.6875 280.5625 C-41.0275 280.5625 -40.3675 280.5625 -39.6875 280.5625 C-39.501875 281.119375 -39.31625 281.67625 -39.125 282.25 C-37.30470281 285.17830417 -35.1019239 286.54975758 -32.24609375 288.4140625 C-30.6875 289.5625 -30.6875 289.5625 -29.6875 291.5625 C-15.32265653 298.62685453 -1.14450738 300.81892954 14.75 301.0625 C16.56407349 301.10866455 16.56407349 301.10866455 18.41479492 301.15576172 C25.71281071 301.15677442 30.70395075 300.41858055 36.3125 295.5625 C38.55904488 293.31595512 39.22958661 292.33550793 39.56640625 289.1953125 C39.10910551 284.45345561 35.72391514 281.64550779 32.3125 278.5625 C27.26846556 275.76025864 21.93389407 274.64598865 16.3125 273.5625 C16.3125 272.5725 16.3125 271.5825 16.3125 270.5625 C29.83365034 272.75511897 29.83365034 272.75511897 35 276.875 C38.39385354 279.37048054 40.30177949 279.96079821 44.5 279.375 C53.97927315 276.94510181 63.1403754 272.21380466 70.3125 265.5625 C70.3125 264.9025 70.3125 264.2425 70.3125 263.5625 C70.9725 263.5625 71.6325 263.5625 72.3125 263.5625 C72.910625 262.428125 73.50875 261.29375 74.125 260.125 C74.46144531 259.48691406 74.79789063 258.84882813 75.14453125 258.19140625 C78.89007215 249.7608075 79.70799587 242.74248323 79.5 233.5 C79.48646484 232.34822266 79.47292969 231.19644531 79.45898438 230.00976562 C79.42392725 227.19351028 79.37478856 224.37826235 79.3125 221.5625 C77.17476088 220.35674685 77.17476088 220.35674685 73.9375 220.125 C70.84048105 219.64442809 68.89501007 219.25106427 66.3125 217.5625 C65.9825 216.9025 65.6525 216.2425 65.3125 215.5625 C64.6525 215.5625 63.9925 215.5625 63.3125 215.5625 C62.9825 214.9025 62.6525 214.2425 62.3125 213.5625 C62.003125 214.51125 61.69375 215.46 61.375 216.4375 C60.3125 219.5625 60.3125 219.5625 59.3125 221.5625 C53.22989703 223.59003432 45.86669706 223.70980194 40 220.9375 C35.67471258 218.40385883 30.59594163 215.12938325 28.3125 210.5625 C27.6525 210.5625 26.9925 210.5625 26.3125 210.5625 C26.3125 209.9025 26.3125 209.2425 26.3125 208.5625 C25.70664062 208.25957031 25.10078125 207.95664062 24.4765625 207.64453125 C22.71458326 206.76354163 20.95288408 205.88199174 19.19140625 205 C17.30547088 204.05831178 15.41751528 203.12065621 13.52734375 202.1875 C12.65207031 201.754375 11.77679688 201.32125 10.875 200.875 C10.07191406 200.47925781 9.26882812 200.08351563 8.44140625 199.67578125 C3.48041166 197.08149968 3.48041166 197.08149968 2.625 194.4375 C2.521875 193.81875 2.41875 193.2 2.3125 192.5625 C3.06080078 192.99949219 3.06080078 192.99949219 3.82421875 193.4453125 C9.50554776 196.68887197 15.32508091 199.46425717 21.296875 202.1328125 C26.31323411 204.51103457 29.35708695 206.55658077 32.78515625 210.9375 C36.35563004 214.73626495 42.27813926 219.29185376 47.58984375 219.765625 C48.46769531 219.78109375 49.34554687 219.7965625 50.25 219.8125 C51.12527344 219.83828125 52.00054687 219.8640625 52.90234375 219.890625 C55.34848352 219.75489813 55.34848352 219.75489813 57.0703125 218.2578125 C59.28258568 215.23854658 59.50395567 212.17763345 59.3125 208.5625 C57.64755539 201.06089563 54.8805086 194.32941287 51.3125 187.5625 C50.94574316 186.23797053 50.60348035 184.90571232 50.3125 183.5625 C55.11328317 185.40109781 56.13649891 188.592559 58.2109375 193.046875 C60.92567054 199.2464781 61.80900523 204.85806961 62.3125 211.5625 C62.6425 211.5625 62.9725 211.5625 63.3125 211.5625 C63.38597656 210.00402344 63.38597656 210.00402344 63.4609375 208.4140625 C63.86459446 200.64296683 64.43466201 193.14677772 66.3125 185.5625 C67.6325 185.5625 68.9525 185.5625 70.3125 185.5625 C70.0959375 186.25472656 69.879375 186.94695312 69.65625 187.66015625 C67.33904648 195.80255197 66.02410496 204.12199078 67.3125 212.5625 C69.17621164 214.89213955 70.54257947 216.21479396 73.25 217.4375 C76.9588898 217.6622812 79.58388462 216.03511538 82.625 214.0625 C83.181875 213.5675 83.73875 213.0725 84.3125 212.5625 C84.3125 211.9025 84.3125 211.2425 84.3125 210.5625 C84.9725 210.5625 85.6325 210.5625 86.3125 210.5625 C87.10673861 209.00130578 87.89777123 207.43848036 88.6875 205.875 C89.34878906 204.56982422 89.34878906 204.56982422 90.0234375 203.23828125 C96.43074849 189.93825693 92.81328845 177.83982592 88.3125 164.5625 C85.6725 164.8925 83.0325 165.2225 80.3125 165.5625 C80.3125 164.5725 80.3125 163.5825 80.3125 162.5625 C81.67375 162.129375 81.67375 162.129375 83.0625 161.6875 C85.63452908 160.79718224 87.92596766 159.84755587 90.3125 158.5625 C90.3125 157.9025 90.3125 157.2425 90.3125 156.5625 C90.869375 156.335625 91.42625 156.10875 92 155.875 C98.24271886 152.33183524 101.20967183 146.76815634 104.3125 140.5625 C105.15096984 128.42081171 102.88294326 120.12713377 97.3125 109.5625 C96.6525 109.5625 95.9925 109.5625 95.3125 109.5625 C94.6525 107.9125 93.9925 106.2625 93.3125 104.5625 C92.3225 104.5625 91.3325 104.5625 90.3125 104.5625 C90.3125 103.9025 90.3125 103.2425 90.3125 102.5625 C89.6525 102.5625 88.9925 102.5625 88.3125 102.5625 C88.3125 101.9025 88.3125 101.2425 88.3125 100.5625 C87.6525 100.5625 86.9925 100.5625 86.3125 100.5625 C86.065 99.86125 85.8175 99.16 85.5625 98.4375 C84.15210489 95.19359126 82.28600947 92.49093341 80.3125 89.5625 C79.9825 88.5725 79.6525 87.5825 79.3125 86.5625 C78.6525 86.5625 77.9925 86.5625 77.3125 86.5625 C77.18875 86.02882813 77.065 85.49515625 76.9375 84.9453125 C74.21427782 75.10767236 68.04047774 68.09709661 59.48828125 62.71875 C46.12665569 55.61813749 26.64165693 53.37517931 12.046875 57.6171875 C7.78046194 59.23383281 4.10555004 61.03379998 0.3125 63.5625 C-0.6775 63.5625 -1.6675 63.5625 -2.6875 63.5625 C-1.30150001 59.40450003 0.87060127 58.76541058 4.6171875 56.765625 C8.35376626 55.09770289 12.15269539 54.08956443 16.125 53.140625 C18.27372763 52.76892567 18.27372763 52.76892567 19.3125 51.5625 C20.39791646 38.66274284 18.63750715 25.41436245 11.3125 14.5625 C10.93609375 13.94375 10.5596875 13.325 10.171875 12.6875 C9.05561323 10.83539957 9.05561323 10.83539957 7.3125 8.5625 C6.6525 8.5625 5.9925 8.5625 5.3125 8.5625 C5.3125 7.9025 5.3125 7.2425 5.3125 6.5625 C2.83903696 4.08903696 1.60488832 3.57936856 -1.9375 3.375 C-2.845 3.436875 -3.7525 3.49875 -4.6875 3.5625 Z M67.6875 272.3125 C60.26030236 278.14717467 51.34339013 280.29619297 42.3125 282.5625 C42.6425 285.5325 42.9725 288.5025 43.3125 291.5625 C47.36999693 292.57687423 51.22366748 292.90444622 55.375 293.125 C56.13216309 293.1652832 56.88932617 293.20556641 57.66943359 293.24707031 C59.88351916 293.35916399 62.09787065 293.46181156 64.3125 293.5625 C65.40691406 293.61792969 66.50132812 293.67335938 67.62890625 293.73046875 C73.32563064 293.8968543 77.38065501 293.54215635 82.3125 290.5625 C84.53496502 288.20113092 85.24935496 286.64780535 85.4375 283.4140625 C85.21150442 279.16252069 84.68307167 277.03322618 82 273.625 C76.95799214 269.75555211 73.02767922 267.72221829 67.6875 272.3125 Z " fill="#2E2E2E" transform="translate(235.6875,98.4375)"/>
<path d="M0 0 C0.80824219 0.10183594 1.61648437 0.20367187 2.44921875 0.30859375 C3.06410156 0.39238281 3.67898437 0.47617188 4.3125 0.5625 C4.3125 1.2225 4.3125 1.8825 4.3125 2.5625 C5.3025 2.5625 6.2925 2.5625 7.3125 2.5625 C7.3125 3.2225 7.3125 3.8825 7.3125 4.5625 C7.9725 4.5625 8.6325 4.5625 9.3125 4.5625 C19.67637271 14.89515623 23.31802194 29.60990329 23.43994141 43.74267578 C23.43647245 46.6836576 23.38479557 49.62248002 23.3125 52.5625 C25.05273438 52.51029297 25.05273438 52.51029297 26.828125 52.45703125 C41.76820861 52.13953242 52.8302509 54.84312102 66.3125 61.5625 C66.3125 62.2225 66.3125 62.8825 66.3125 63.5625 C66.951875 63.830625 67.59125 64.09875 68.25 64.375 C70.3125 65.5625 70.3125 65.5625 71.3125 68.5625 C71.9725 68.5625 72.6325 68.5625 73.3125 68.5625 C73.3125 69.5525 73.3125 70.5425 73.3125 71.5625 C73.9725 71.5625 74.6325 71.5625 75.3125 71.5625 C75.90417969 72.70847656 76.49585938 73.85445313 77.10546875 75.03515625 C77.90336951 76.56524829 78.70156221 78.09518812 79.5 79.625 C79.88736328 80.37716797 80.27472656 81.12933594 80.67382812 81.90429688 C82.62001288 85.6197405 84.62676446 89.113203 87.11328125 92.49609375 C89.3125 95.5625 89.3125 95.5625 89.3125 97.5625 C89.9725 97.5625 90.6325 97.5625 91.3125 97.5625 C91.3125 98.2225 91.3125 98.8825 91.3125 99.5625 C91.9725 99.8925 92.6325 100.2225 93.3125 100.5625 C92.9825 101.8825 92.6525 103.2025 92.3125 104.5625 C91.6525 104.5625 90.9925 104.5625 90.3125 104.5625 C90.3125 103.9025 90.3125 103.2425 90.3125 102.5625 C89.6525 102.5625 88.9925 102.5625 88.3125 102.5625 C88.3125 101.9025 88.3125 101.2425 88.3125 100.5625 C87.6525 100.5625 86.9925 100.5625 86.3125 100.5625 C84.5859375 98.26171875 84.5859375 98.26171875 82.6875 95.25 C82.05585938 94.26386719 81.42421875 93.27773437 80.7734375 92.26171875 C79.3125 89.5625 79.3125 89.5625 79.3125 86.5625 C78.6525 86.5625 77.9925 86.5625 77.3125 86.5625 C77.03277344 85.94503906 76.75304687 85.32757813 76.46484375 84.69140625 C70.90768097 72.95167653 64.61645828 65.17648435 52.3125 60.5625 C37.77723354 55.65741008 19.73074449 54.83116362 5.640625 61.2734375 C3.15581978 62.60756021 3.15581978 62.60756021 0.3125 64.5625 C-1.875 64.1875 -1.875 64.1875 -3.6875 63.5625 C-1.5550795 58.35851006 2.34592101 56.74721217 7.3125 54.5625 C10.94317477 53.38649738 14.59394482 52.41742016 18.3125 51.5625 C18.95425111 37.46774418 17.57677215 23.83130008 8.65625 12.44921875 C7.3125 10.5625 7.3125 10.5625 7.3125 8.5625 C6.6525 8.5625 5.9925 8.5625 5.3125 8.5625 C5.3125 7.9025 5.3125 7.2425 5.3125 6.5625 C1.9105513 4.46899311 -0.74022412 4.38307837 -4.6875 4.5625 C-5.0175 5.2225 -5.3475 5.8825 -5.6875 6.5625 C-6.3475 6.5625 -7.0075 6.5625 -7.6875 6.5625 C-8.10322266 7.86380859 -8.10322266 7.86380859 -8.52734375 9.19140625 C-9.97372515 13.39419126 -11.7637127 17.40477134 -13.56640625 21.46484375 C-17.31092675 31.8112018 -17.38247242 47.09022065 -13.6875 57.5625 C-12.60206046 59.50809917 -11.39440877 61.31270161 -10.1328125 63.1484375 C-8.17174341 66.42395289 -6.74557449 69.84229498 -5.3125 73.375 C-5.03760742 74.03395264 -4.76271484 74.69290527 -4.47949219 75.37182617 C-2.56539235 80.19617704 -2.56539235 80.19617704 -3.6875 83.5625 C-4.6775 83.5625 -5.6675 83.5625 -6.6875 83.5625 C-7.36345315 82.15024074 -8.02790059 80.73247095 -8.6875 79.3125 C-9.05875 78.52359375 -9.43 77.7346875 -9.8125 76.921875 C-10.6875 74.5625 -10.6875 74.5625 -10.6875 70.5625 C-11.3475 70.5625 -12.0075 70.5625 -12.6875 70.5625 C-13.01621094 69.88445312 -13.34492188 69.20640625 -13.68359375 68.5078125 C-18.69908374 58.69430635 -25.0607014 50.88339419 -34.25390625 44.71875 C-34.72699219 44.3371875 -35.20007813 43.955625 -35.6875 43.5625 C-35.6875 42.9025 -35.6875 42.2425 -35.6875 41.5625 C-36.20699219 41.315 -36.72648437 41.0675 -37.26171875 40.8125 C-41.03077363 38.87031391 -44.6589221 36.67076063 -48.29101562 34.484375 C-53.98482875 31.1562574 -59.98459907 28.70681052 -66.6875 29.5625 C-70.91231746 31.8383823 -70.91231746 31.8383823 -73.6875 35.5625 C-75.04614317 50.28484643 -70.33261053 61.34579575 -62.61328125 73.4453125 C-60.6875 76.5625 -60.6875 76.5625 -59.6875 79.5625 C-58.2025 80.0575 -58.2025 80.0575 -56.6875 80.5625 C-56.6875 81.2225 -56.6875 81.8825 -56.6875 82.5625 C-56.0275 82.5625 -55.3675 82.5625 -54.6875 82.5625 C-54.6875 83.2225 -54.6875 83.8825 -54.6875 84.5625 C-54.0275 84.5625 -53.3675 84.5625 -52.6875 84.5625 C-50.99876121 86.20679829 -49.33444485 87.87634218 -47.6875 89.5625 C-46.924375 90.119375 -46.16125 90.67625 -45.375 91.25 C-44.818125 91.683125 -44.26125 92.11625 -43.6875 92.5625 C-43.6875 93.2225 -43.6875 93.8825 -43.6875 94.5625 C-42.45 94.93375 -42.45 94.93375 -41.1875 95.3125 C-37.15761011 96.75174639 -33.48036917 98.59833561 -29.6875 100.5625 C-28.5325 101.14 -27.3775 101.7175 -26.1875 102.3125 C-25.3625 102.725 -24.5375 103.1375 -23.6875 103.5625 C-23.6875 104.8825 -23.6875 106.2025 -23.6875 107.5625 C-25.3375 107.2325 -26.9875 106.9025 -28.6875 106.5625 C-30.22517346 115.54967886 -31.16893798 124.460372 -31.6875 133.5625 C-32.0175 133.5625 -32.3475 133.5625 -32.6875 133.5625 C-33.1825 129.1075 -33.1825 129.1075 -33.6875 124.5625 C-34.0175 128.5225 -34.3475 132.4825 -34.6875 136.5625 C-35.0175 136.5625 -35.3475 136.5625 -35.6875 136.5625 C-35.8946352 125.66488692 -35.84479044 115.29116761 -33.6875 104.5625 C-34.37714844 104.21058594 -35.06679687 103.85867187 -35.77734375 103.49609375 C-42.17568881 100.13454895 -48.43358512 96.59588018 -53.6875 91.5625 C-53.6875 90.9025 -53.6875 90.2425 -53.6875 89.5625 C-55.1725 89.0675 -55.1725 89.0675 -56.6875 88.5625 C-56.6875 87.9025 -56.6875 87.2425 -56.6875 86.5625 C-57.3475 86.5625 -58.0075 86.5625 -58.6875 86.5625 C-58.6875 85.9025 -58.6875 85.2425 -58.6875 84.5625 C-59.3475 84.5625 -60.0075 84.5625 -60.6875 84.5625 C-67.40970153 77.1008563 -71.95638181 68.86030256 -75.6875 59.5625 C-76.01621094 58.75941406 -76.34492188 57.95632812 -76.68359375 57.12890625 C-79.75347657 48.88869448 -81.05318589 39.83647782 -77.6875 31.5625 C-74.58083272 27.98749092 -71.45455952 25.29723945 -66.6875 24.5625 C-58.91507275 24.50625957 -52.51457857 25.85587906 -45.6875 29.5625 C-45.6875 30.2225 -45.6875 30.8825 -45.6875 31.5625 C-45.171875 31.645 -44.65625 31.7275 -44.125 31.8125 C-40.64294268 32.88390225 -37.81549115 34.69773605 -34.6875 36.5625 C-34.6875 37.2225 -34.6875 37.8825 -34.6875 38.5625 C-34.171875 38.789375 -33.65625 39.01625 -33.125 39.25 C-28.06329127 41.97553547 -23.59866379 45.33844311 -19.6875 49.5625 C-19.84863281 48.840625 -20.00976562 48.11875 -20.17578125 47.375 C-22.50259202 34.5864217 -19.56697233 21.38219268 -14.6875 9.5625 C-14.0275 9.5625 -13.3675 9.5625 -12.6875 9.5625 C-12.605 9.005625 -12.5225 8.44875 -12.4375 7.875 C-11.44360222 4.81048184 -9.85587401 2.92220113 -7.6875 0.5625 C-4.59271121 -0.46909626 -3.16118607 -0.41232862 0 0 Z " fill="#303030" transform="translate(235.6875,98.4375)"/>
<path d="M0 0 C0.66 0.33 1.32 0.66 2 1 C2.34375 2.890625 2.34375 2.890625 2.5 5.25 C2.7451591 8.90287064 3.61702944 11.61997866 5 15 C5.43861884 16.8908751 5.85420961 18.78719868 6.25 20.6875 C7.55904228 26.1746254 9.68184379 30.36102059 12.79296875 35.0390625 C14 37 14 37 14 39 C14.66 39 15.32 39 16 39 C17.62109375 40.6796875 17.62109375 40.6796875 19.4375 42.875 C21.58400884 45.46193722 23.16776562 47.11184374 26 49 C26 50.32 26 51.64 26 53 C23.03824877 52.38722388 21.61941217 51.74627478 19 50 C16.92814244 50.08858983 16.92814244 50.08858983 15 51 C13.16447942 53.24148089 11.54302523 55.41745112 9.9375 57.8125 C9.07184957 59.06917232 8.20596998 60.32568681 7.33984375 61.58203125 C6.55961946 62.72116492 5.77964334 63.86046864 5 65 C3.31640625 67.44921875 3.31640625 67.44921875 2 69 C1.34 69 0.68 69 0 69 C0 69.99 0 70.98 0 72 C-0.66 72 -1.32 72 -2 72 C-2.20625 72.66 -2.4125 73.32 -2.625 74 C-3.8569343 76.68785665 -5.04808509 78.41308321 -6.875 80.6875 C-9.87756459 84.53430646 -11.58484545 88.42647159 -13.23828125 92.99609375 C-14 95 -14 95 -15 96 C-15.23363881 97.84891946 -15.41303635 99.70488031 -15.5625 101.5625 C-15.64628906 102.57441406 -15.73007813 103.58632813 -15.81640625 104.62890625 C-15.90728516 105.80259766 -15.90728516 105.80259766 -16 107 C-17.98 107.495 -17.98 107.495 -20 108 C-20.33 106.68 -20.66 105.36 -21 104 C-24.29702607 104.27475217 -25.71941215 104.72766473 -28.125 107.0625 C-33.59545836 115.63288477 -33.96600509 124.10607421 -33 134 C-31.97620761 137.07137717 -30.73476159 139.23522371 -29 142 C-29 142.99 -29 143.98 -29 145 C-28.34 145 -27.68 145 -27 145 C-27 145.66 -27 146.32 -27 147 C-26.34 147 -25.68 147 -25 147 C-25 147.66 -25 148.32 -25 149 C-22.03 149.33 -19.06 149.66 -16 150 C-16.495 148.948125 -16.99 147.89625 -17.5 146.8125 C-18.82779788 143.74547391 -19.30715006 141.37865064 -19 138 C-18.01 138 -17.02 138 -16 138 C-15.68546875 138.64066406 -15.3709375 139.28132812 -15.046875 139.94140625 C-13.02609435 144.02557436 -11.00333289 148.07387471 -8.6875 152 C-7 155 -7 155 -7 157 C-6.34 157 -5.68 157 -5 157 C-4.13375 158.11375 -4.13375 158.11375 -3.25 159.25 C-0.80323504 162.2404905 1.79595703 163.88824441 5 166 C5 166.66 5 167.32 5 168 C5.56074219 168.12632812 6.12148437 168.25265625 6.69921875 168.3828125 C9.16239856 169.04356362 11.44189395 169.93549714 13.8125 170.875 C25.7203777 175.13447583 36.85712298 176.32138219 49.4375 176.5 C51.25109009 176.54592285 51.25109009 176.54592285 53.10131836 176.59277344 C60.24772989 176.59475621 65.61969661 176.01624961 71 171 C73.22038744 167.66941883 73.70223318 166.86228249 73 163 C69.71822623 157.69777476 65.96371325 154.92051782 60 153 C57.61244162 152.45825255 55.2307521 151.95632029 52.8203125 151.52734375 C52.21960938 151.35332031 51.61890625 151.17929687 51 151 C50.67 150.34 50.34 149.68 50 149 C50.33 148.34 50.66 147.68 51 147 C58.56871571 146.32722527 65.76625157 148.60983812 71.875 153.125 C72.926875 154.053125 72.926875 154.053125 74 155 C76.6794645 156.24016669 76.6794645 156.24016669 79 157 C79 157.66 79 158.32 79 159 C78.34 159 77.68 159 77 159 C77.495 163.455 77.495 163.455 78 168 C94.335 168.99 94.335 168.99 111 170 C110.34 171.32 109.68 172.64 109 174 C108.0212793 173.9592334 107.04255859 173.9184668 106.03417969 173.87646484 C102.39669128 173.72779165 98.75879309 173.59323186 95.12060547 173.46289062 C93.54721619 173.40455693 91.97396318 173.34241645 90.40087891 173.27636719 C88.13729671 173.18199168 85.87357465 173.10139976 83.609375 173.0234375 C82.90818542 172.99124115 82.20699585 172.9590448 81.48455811 172.9258728 C77.83418573 172.81436983 74.99324297 172.75737027 72 175 C71.67 175.99 71.34 176.98 71 178 C60.65560391 184.89626406 37.65544741 181.56436148 25.71484375 179.40625 C18.95863686 177.80219572 12.46880901 175.50857357 6 173 C6 172.34 6 171.68 6 171 C4.93652344 170.90138672 4.93652344 170.90138672 3.8515625 170.80078125 C0.0908428 169.74468873 -1.79148612 167.85318868 -4.625 165.1875 C-5.56601563 164.31480469 -6.50703125 163.44210937 -7.4765625 162.54296875 C-10 160 -10 160 -11.5390625 157.73828125 C-13.477788 155.43150893 -14.80069448 155.36637336 -17.75 155 C-24.08241871 153.92155315 -28.67861399 152.0316061 -32.75 146.8125 C-38.78915597 137.32524507 -39.6206542 126.05917156 -37.42578125 115.14453125 C-35.37022143 108.65157247 -32.25771294 103.42125861 -27 99 C-25.80375 98.7525 -24.6075 98.505 -23.375 98.25 C-19.97555246 97.42380257 -19.97555246 97.42380257 -19.1328125 95.3046875 C-18.68927752 93.7769559 -18.26934993 92.24226518 -17.8671875 90.703125 C-15.36801447 82.91290998 -10.07617337 75.38147509 -5 69 C-4.34 69 -3.68 69 -3 69 C-2.896875 68.360625 -2.79375 67.72125 -2.6875 67.0625 C-2.460625 66.381875 -2.23375 65.70125 -2 65 C-1.01 64.67 -0.02 64.34 1 64 C2.00916033 62.23408113 2.00916033 62.23408113 3 60 C5.00196355 56.93032256 7.06427816 53.90547329 9.125 50.875 C10.59886782 48.61506934 11.87244522 46.44303535 13 44 C12.505 43.38125 12.01 42.7625 11.5 42.125 C10 40 10 40 10 38 C9.34 38 8.68 38 8 38 C2.71743668 27.79918807 -0.19860815 19.20466283 -0.0625 7.625 C-0.05798828 6.88894531 -0.05347656 6.15289062 -0.04882812 5.39453125 C-0.03715142 3.59631842 -0.01922011 1.79814803 0 0 Z " fill="#2B2B2B" transform="translate(201,222)"/>
<path d="M0 0 C3.8639627 2.14827528 6.32327211 4.76423602 8.4375 8.625 C10.86663685 23.1998211 6.45122046 35.07253861 -2 47 C-2.66 47 -3.32 47 -4 47 C-4.33 47.99 -4.66 48.98 -5 50 C-10.9046552 49.39187936 -15.96717667 47.17522908 -21.375 44.875 C-22.2825 44.50890625 -23.19 44.1428125 -24.125 43.765625 C-31.50331482 40.6399412 -38.62821297 36.63740981 -42.0625 29.0625 C-43.74838952 23.40272803 -43.00006229 18.86218496 -40.1875 13.625 C-37.3552751 10.22633012 -35.5440937 9.14266083 -31.125 8.734375 C-30.09375 8.73953125 -29.0625 8.7446875 -28 8.75 C-26.453125 8.74226563 -26.453125 8.74226563 -24.875 8.734375 C-22.05402722 8.99500835 -20.39854282 9.54703656 -18 11 C-17.814375 10.113125 -17.62875 9.22625 -17.4375 8.3125 C-14.29992646 1.08243924 -7.6558955 -1.90384703 0 0 Z M-11 6 C-11 6.66 -11 7.32 -11 8 C-11.66 8 -12.32 8 -13 8 C-13.99 10.64 -14.98 13.28 -16 16 C-20 15 -20 15 -23 13 C-27.93012739 12.20616593 -31.80794774 12.28476865 -36.125 14.875 C-38.78124426 19.30207376 -38.98776874 22.96399871 -38 28 C-32.41344016 37.25273974 -22.09123593 40.30082964 -12.4140625 43.765625 C-9 45 -9 45 -7 46 C0.14436281 36.56783561 6.28116459 26.26257539 5 14 C4.05918076 10.51343458 2.68126394 7.72824766 0.1875 5.0625 C-4.0963056 2.98179442 -7.11562188 3.41041459 -11 6 Z " fill="#343434" transform="translate(302,78)"/>
<path d="M0 0 C1.8046875 0.17578125 1.8046875 0.17578125 4 1 C5.6328125 3.29296875 5.6328125 3.29296875 7.125 6.1875 C7.62257813 7.12980469 8.12015625 8.07210938 8.6328125 9.04296875 C10 12 10 12 12 18 C13.32 12.72 14.64 7.44 16 2 C17.32 2 18.64 2 20 2 C19.855625 2.69222656 19.71125 3.38445312 19.5625 4.09765625 C17.92474378 12.7299963 16.16358477 23.49075431 19 32 C20.65 32.33 22.3 32.66 24 33 C20.92677456 33.91058531 18.19902639 34.08886184 15 34 C15 33.34 15 32.68 15 32 C14.34 32 13.68 32 13 32 C12.401875 33.134375 11.80375 34.26875 11.1875 35.4375 C9.375 38.875 9.375 38.875 6 40 C-1.64692302 40.69105527 -7.54579643 40.29763074 -14 36 C-15.2375 35.195625 -15.2375 35.195625 -16.5 34.375 C-16.995 33.92125 -17.49 33.4675 -18 33 C-18 32.34 -18 31.68 -18 31 C-19.32 30.34 -20.64 29.68 -22 29 C-22 28.34 -22 27.68 -22 27 C-22.66 27 -23.32 27 -24 27 C-24 26.34 -24 25.68 -24 25 C-25.0209375 24.59394531 -25.0209375 24.59394531 -26.0625 24.1796875 C-29.38297267 22.8461998 -32.696137 21.49923612 -36 20.125 C-37.19625 19.63257813 -38.3925 19.14015625 -39.625 18.6328125 C-42.91129417 17.04291555 -45.41436697 15.57583897 -48 13 C-48 11.68 -48 10.36 -48 9 C-45.23018431 9.42612549 -43.76049449 10.16940634 -41.4375 11.8125 C-38.61177082 13.80417171 -35.76499757 14.87917994 -32.5 16 C-25.71653492 18.36226358 -20.81720522 21.61606475 -16 27 C-16 27.66 -16 28.32 -16 29 C-15.484375 29.2475 -14.96875 29.495 -14.4375 29.75 C-12 31 -12 31 -8.875 33.125 C-4.52267192 35.65520374 0.08715135 35.77240399 5 35 C7.37198211 32.62801789 7.75597133 30.83393407 8.09765625 27.54296875 C7.82927883 20.55442084 4.95420268 13.58175961 1.75 7.4375 C0 4 0 4 0 0 Z " fill="#333333" transform="translate(286,282)"/>
<path d="M0 0 C7.56871571 -0.67277473 14.76625157 1.60983812 20.875 6.125 C21.926875 7.053125 21.926875 7.053125 23 8 C25.6794645 9.24016669 25.6794645 9.24016669 28 10 C28 10.66 28 11.32 28 12 C27.34 12 26.68 12 26 12 C26.495 16.455 26.495 16.455 27 21 C43.335 21.99 43.335 21.99 60 23 C59.34 24.32 58.68 25.64 58 27 C57.0212793 26.9592334 56.04255859 26.9184668 55.03417969 26.87646484 C51.39669128 26.72779165 47.75879309 26.59323186 44.12060547 26.46289062 C42.54721619 26.40455693 40.97396318 26.34241645 39.40087891 26.27636719 C37.13729671 26.18199168 34.87357465 26.10139976 32.609375 26.0234375 C31.90818542 25.99124115 31.20699585 25.9590448 30.48455811 25.9258728 C26.83418573 25.81436983 23.99324297 25.75737027 21 28 C20.505 29.485 20.505 29.485 20 31 C10.4762417 37.3491722 -7.16499638 34.14916705 -18 33 C-18.33 32.01 -18.66 31.02 -19 30 C-18.1028125 29.99589111 -17.205625 29.99178223 -16.28125 29.98754883 C-12.91832687 29.96040747 -9.55717779 29.91115877 -6.19482422 29.84741211 C-4.74604347 29.82436699 -3.2970984 29.80986831 -1.84814453 29.80444336 C10.035169 29.89864466 10.035169 29.89864466 20 24 C22.22038744 20.66941883 22.70223318 19.86228249 22 16 C18.71822623 10.69777476 14.96371325 7.92051782 9 6 C6.61244162 5.45825255 4.2307521 4.95632029 1.8203125 4.52734375 C1.21960938 4.35332031 0.61890625 4.17929687 0 4 C-0.33 3.34 -0.66 2.68 -1 2 C-0.67 1.34 -0.34 0.68 0 0 Z " fill="#262626" transform="translate(252,369)"/>
<path d="M0 0 C0.99 0.33 1.98 0.66 3 1 C3.495 12.385 3.495 12.385 4 24 C4.33 24 4.66 24 5 24 C5.75103092 32.44909788 2.44798321 39.93930459 -2 47 C-1.319375 47.04125 -0.63875 47.0825 0.0625 47.125 C4.76367124 48.52534888 8.5783113 51.72435967 11.18359375 55.89453125 C12.71552601 59.84530392 12.53204624 63.84215717 12 68 C9.82660072 72.42729482 7.53503435 75.00900931 3 77 C0.1875 77.1875 0.1875 77.1875 -2 77 C-2 75.68 -2 74.36 -2 73 C-0.2421875 72.34895833 1.515625 71.69791667 3.2734375 71.046875 C5.55546088 69.66320472 6.13127311 68.5071548 7 66 C7.06598329 63.7295629 7.06598329 63.7295629 6.6875 61.4375 C6.58824219 60.67308594 6.48898437 59.90867187 6.38671875 59.12109375 C6.0191013 56.82240377 6.0191013 56.82240377 5 54 C2.20898563 52.7913437 2.20898563 52.7913437 -1 52 C-2.175625 51.505 -2.175625 51.505 -3.375 51 C-7.18313662 51 -8.87884813 53.03237038 -11.765625 55.37109375 C-17.97944986 59.90110243 -25.5719259 61.56230824 -33 63 C-33.99 61.68 -34.98 60.36 -36 59 C-34.80375 58.814375 -33.6075 58.62875 -32.375 58.4375 C-23.65633044 56.51385703 -14.6615558 51.90787613 -8 46 C-7.67 45.34 -7.34 44.68 -7 44 C-6.34 44 -5.68 44 -5 44 C-4.83177734 43.17048828 -4.83177734 43.17048828 -4.66015625 42.32421875 C-4 40 -4 40 -2.80859375 37.64453125 C2.55999208 26.55557191 2.00601128 14.07850255 1 2 C0.505 1.01 0.505 1.01 0 0 Z " fill="#313131" transform="translate(313,318)"/>
<path d="M0 0 C2.38639606 2.14775645 3.87068782 3.67291626 5.0625 6.6875 C5.371875 7.450625 5.68125 8.21375 6 9 C6.99 9.33 7.98 9.66 9 10 C9 10.66 9 11.32 9 12 C9.66 12 10.32 12 11 12 C11 12.66 11 13.32 11 14 C11.66 14 12.32 14 13 14 C14.68873879 15.64429829 16.35305515 17.31384218 18 19 C18.763125 19.556875 19.52625 20.11375 20.3125 20.6875 C20.869375 21.120625 21.42625 21.55375 22 22 C22 22.66 22 23.32 22 24 C22.825 24.2475 23.65 24.495 24.5 24.75 C28.52988989 26.18924639 32.20713083 28.03583561 36 30 C37.155 30.5775 38.31 31.155 39.5 31.75 C40.325 32.1625 41.15 32.575 42 33 C42 34.32 42 35.64 42 37 C40.35 36.67 38.7 36.34 37 36 C35.46232654 44.98717886 34.51856202 53.897872 34 63 C33.67 63 33.34 63 33 63 C32.505 58.545 32.505 58.545 32 54 C31.67 57.96 31.34 61.92 31 66 C30.67 66 30.34 66 30 66 C29.7928648 55.10238692 29.84270956 44.72866761 32 34 C31.31035156 33.64808594 30.62070313 33.29617187 29.91015625 32.93359375 C23.51181119 29.57204895 17.25391488 26.03338018 12 21 C12 20.34 12 19.68 12 19 C11.01 18.67 10.02 18.34 9 18 C9 17.34 9 16.68 9 16 C8.34 16 7.68 16 7 16 C7 15.34 7 14.68 7 14 C6.34 14 5.68 14 5 14 C3.55925285 12.217871 2.19489351 10.37339724 0.875 8.5 C0.15054688 7.4790625 -0.57390625 6.458125 -1.3203125 5.40625 C-1.87460938 4.6121875 -2.42890625 3.818125 -3 3 C-2.01 2.67 -1.02 2.34 0 2 C0 1.34 0 0.68 0 0 Z " fill="#303030" transform="translate(170,169)"/>
<path d="M0 0 C0.66 0 1.32 0 2 0 C4.96188576 10.161917 2.57459006 18.85081988 -2 28 C-2.66 28 -3.32 28 -4 28 C-4 28.66 -4 29.32 -4 30 C-4.66 30 -5.32 30 -6 30 C-6 30.66 -6 31.32 -6 32 C-6.66 32 -7.32 32 -8 32 C-8 32.66 -8 33.32 -8 34 C-8.99 34 -9.98 34 -11 34 C-10.7525 35.7325 -10.7525 35.7325 -10.5 37.5 C-9.99464405 42.14481571 -9.82111101 46.7692715 -9.75 51.4375 C-9.72873047 52.14777344 -9.70746094 52.85804688 -9.68554688 53.58984375 C-9.671875 55.62109375 -9.671875 55.62109375 -10 59 C-10.99 59.66 -11.98 60.32 -13 61 C-13.33 53.08 -13.66 45.16 -14 37 C-14.66 36.67 -15.32 36.34 -16 36 C-16 36.66 -16 37.32 -16 38 C-20.05606165 37.53199289 -23.46588679 37.12046792 -27 35 C-27 34.34 -27 33.68 -27 33 C-26.40832031 33.02320313 -25.81664062 33.04640625 -25.20703125 33.0703125 C-20.64629888 33.17447278 -17.14389699 33.13114702 -13 31 C-12.236875 30.62875 -11.47375 30.2575 -10.6875 29.875 C-9.8521875 29.441875 -9.8521875 29.441875 -9 29 C-9 28.34 -9 27.68 -9 27 C-8.34 27 -7.68 27 -7 27 C-6.7525 26.195625 -6.505 25.39125 -6.25 24.5625 C-5.28294076 21.80638115 -4.23413976 19.46356447 -2.9375 16.875 C-0.42975845 11.4213613 -0.20074766 5.93209349 0 0 Z " fill="#303030" transform="translate(329,282)"/>
<path d="M0 0 C3.9644789 0.61355031 6.5524654 2.59856266 9.75 4.9375 C10.73484375 5.64777344 11.7196875 6.35804688 12.734375 7.08984375 C13.48203125 7.72019531 14.2296875 8.35054687 15 9 C15 9.66 15 10.32 15 11 C15.66 11 16.32 11 17 11 C17 11.66 17 12.32 17 13 C17.99 13.33 18.98 13.66 20 14 C28.71015824 24.55173456 34.59685737 36.77550715 38 50 C37.01 50.66 36.02 51.32 35 52 C32.63055531 48.31190782 31.04275695 44.68295296 29.5625 40.5625 C27.8014601 35.83971119 25.89811338 32.07882624 23 28 C23 27.01 23 26.02 23 25 C22.34 25 21.68 25 21 25 C21 24.01 21 23.02 21 22 C20.34 22 19.68 22 19 22 C16 18.53846154 16 18.53846154 16 16 C14.68 15.34 13.36 14.68 12 14 C12 13.34 12 12.68 12 12 C11.43796875 11.74476563 10.8759375 11.48953125 10.296875 11.2265625 C7.70613518 9.84307219 5.54892155 8.20061417 3.25 6.375 C2.45078125 5.74335938 1.6515625 5.11171875 0.828125 4.4609375 C0.22484375 3.97882813 -0.3784375 3.49671875 -1 3 C-0.67 2.01 -0.34 1.02 0 0 Z " fill="#2E2E2E" transform="translate(186,140)"/>
<path d="M0 0 C0 0.99 0 1.98 0 3 C-0.65226562 3.02578125 -1.30453125 3.0515625 -1.9765625 3.078125 C-7.86568123 3.4603097 -11.46206116 4.1602056 -16 8 C-19.16834505 14.3366901 -17.16003312 23.41084869 -15.25 29.875 C-13.63070339 34.65797576 -11.60050329 38.69571869 -9 43 C-8.25 45.9375 -8.25 45.9375 -8 48 C-8.99 48.495 -8.99 48.495 -10 49 C-10 48.34 -10 47.68 -10 47 C-10.99 47 -11.98 47 -13 47 C-24.71863323 22.46292653 -24.71863323 22.46292653 -22.5 9.6875 C-18.40725289 -0.37383665 -9.98200113 -2.41987906 0 0 Z " fill="#3C3C3C" transform="translate(179,124)"/>
<path d="M0 0 C0.99 0 1.98 0 3 0 C3 0.66 3 1.32 3 2 C3.99 2 4.98 2 6 2 C6 2.66 6 3.32 6 4 C6.66 4 7.32 4 8 4 C18.36387271 14.33265623 22.00552194 29.04740329 22.12744141 43.18017578 C22.12397245 46.1211576 22.07229557 49.05998002 22 52 C21.67 52 21.34 52 21 52 C21 49.36 21 46.72 21 44 C20.34 44 19.68 44 19 44 C19 46.97 19 49.94 19 53 C17.02 53 15.04 53 13 53 C14.32 52.34 15.64 51.68 17 51 C17.64175111 36.90524418 16.26427215 23.26880008 7.34375 11.88671875 C6 10 6 10 6 8 C5.34 8 4.68 8 4 8 C4 7.34 4 6.68 4 6 C3.38125 5.71125 2.7625 5.4225 2.125 5.125 C0 4 0 4 -2 2 C-1.34 1.34 -0.68 0.68 0 0 Z " fill="#303030" transform="translate(237,99)"/>
<path d="M0 0 C0.495 1.485 0.495 1.485 1 3 C-0.98567708 3.22786458 -2.97135417 3.45572917 -4.95703125 3.68359375 C-7.19396393 3.97170735 -7.19396393 3.97170735 -10 5 C-10 5.66 -10 6.32 -10 7 C-10.66 7 -11.32 7 -12 7 C-12.12375 7.556875 -12.2475 8.11375 -12.375 8.6875 C-13.05976855 11.22114364 -13.99133763 13.57921032 -15 16 C-17.96175123 15.38722388 -19.38058783 14.74627478 -22 13 C-24.41287346 12.72076033 -24.41287346 12.72076033 -27 12.8125 C-27.86625 12.81894531 -28.7325 12.82539062 -29.625 12.83203125 C-32.14927465 12.91169563 -32.14927465 12.91169563 -35 14 C-36.12085312 16.3430809 -36.12085312 16.3430809 -37 19 C-37.65213539 20.34050052 -38.31379969 21.67661368 -39 23 C-39.66 23 -40.32 23 -41 23 C-41.45543387 17.30707666 -40.68246386 14.3984985 -37 10 C-33.68817025 7.8385182 -30.90628505 7.73046857 -27 7.75 C-25.453125 7.74226563 -25.453125 7.74226563 -23.875 7.734375 C-21.05402722 7.99500835 -19.39854282 8.54703656 -17 10 C-16.773125 9.0925 -16.54625 8.185 -16.3125 7.25 C-13.08854431 -0.73312838 -7.6466949 -0.53452625 0 0 Z " fill="#151515" transform="translate(301,79)"/>
<path d="M0 0 C0.33 0.66 0.66 1.32 1 2 C1.66 2 2.32 2 3 2 C2.07014106 5.57638054 1.26851255 8.5274179 -0.5625 11.75 C-2.6132669 16.38651646 -2.7409176 20.97916177 -3 26 C-4.32 26.33 -5.64 26.66 -7 27 C-7.33 25.68 -7.66 24.36 -8 23 C-11.52534029 23.29377836 -12.74304935 23.72102501 -15.1875 26.375 C-16.47450432 28.23893729 -17.74355295 30.11532943 -19 32 C-19 31.01 -19 30.02 -19 29 C-20.32 29.33 -21.64 29.66 -23 30 C-20.43552861 24.19619633 -17.27470916 20.51647277 -12 17 C-10.34450469 16.61500109 -8.6777567 16.27206865 -7 16 C-6.82984375 15.43152344 -6.6596875 14.86304688 -6.484375 14.27734375 C-4.84932263 9.0677886 -2.86690828 4.64636859 0 0 Z " fill="#292929" transform="translate(188,303)"/>
<path d="M0 0 C3.72433382 1.2125738 7.37802806 2.50859979 11 4 C11 4.66 11 5.32 11 6 C11.515625 6.0825 12.03125 6.165 12.5625 6.25 C16.04455732 7.32140225 18.87200885 9.13523605 22 11 C22 11.66 22 12.32 22 13 C22.515625 13.226875 23.03125 13.45375 23.5625 13.6875 C27.89670522 16.02130281 31.96985206 18.24016393 34.5 22.5625 C35.03422064 25.16682561 34.72087396 26.49284276 34 29 C33.48050781 28.45730469 32.96101563 27.91460937 32.42578125 27.35546875 C28.80447315 23.64044843 25.54957526 20.55913609 21 18 C21 17.34 21 16.68 21 16 C20.48050781 15.7525 19.96101563 15.505 19.42578125 15.25 C15.65672637 13.30781391 12.0285779 11.10826063 8.39648438 8.921875 C4.33920605 6.55033609 0.56701742 5.12274948 -4 4 C-2.68 2.68 -1.36 1.36 0 0 Z " fill="#3A3A3A" transform="translate(179,124)"/>
<path d="M0 0 C0.66 0 1.32 0 2 0 C2 2.64 2 5.28 2 8 C3.19496094 7.96519531 3.19496094 7.96519531 4.4140625 7.9296875 C14.93848858 7.75043937 14.93848858 7.75043937 20 10 C20 10.33 20 10.66 20 11 C19.41210693 10.99887207 18.82421387 10.99774414 18.21850586 10.99658203 C4.08090968 11.05999787 -7.93185829 11.9545722 -20 20 C-22.1875 19.625 -22.1875 19.625 -24 19 C-22.57694602 15.43095018 -21.05343443 14.10577935 -17.6875 12.3125 C-16.92824219 11.89613281 -16.16898438 11.47976562 -15.38671875 11.05078125 C-11.51716132 9.34716268 -7.88757651 8.86631226 -3.6875 8.9375 C-1.8621875 8.9684375 -1.8621875 8.9684375 0 9 C0 6.03 0 3.06 0 0 Z " fill="#313131" transform="translate(256,143)"/>
<path d="M0 0 C1.32 0.33 2.64 0.66 4 1 C2.66937346 4.76567312 1.01113358 7.52864461 -1.5 10.625 C-3.45152976 13.04787381 -5.27171442 15.40757162 -7 18 C-7.66 18 -8.32 18 -9 18 C-9 18.99 -9 19.98 -9 21 C-9.66 21 -10.32 21 -11 21 C-11.226875 21.680625 -11.45375 22.36125 -11.6875 23.0625 C-13.35572357 26.79614324 -15.55729608 29.72163421 -18 33 C-18.99 32.67 -19.98 32.34 -21 32 C-20.706999 26.13998008 -17.96570849 22.14453354 -14 18 C-13.34 18 -12.68 18 -12 18 C-11.896875 17.360625 -11.79375 16.72125 -11.6875 16.0625 C-11.3471875 15.0415625 -11.3471875 15.0415625 -11 14 C-10.01 13.67 -9.02 13.34 -8 13 C-6.94646591 11.18593026 -6.94646591 11.18593026 -6 9 C-4.97940324 7.40300403 -3.93693244 5.81981317 -2.875 4.25 C-2.33617187 3.45078125 -1.79734375 2.6515625 -1.2421875 1.828125 C-0.83226562 1.22484375 -0.42234375 0.6215625 0 0 Z " fill="#272727" transform="translate(210,273)"/>
<path d="M0 0 C6.64330983 2.79718309 10.57371213 9.47497735 13.375 15.875 C16.00755314 23.16253981 17.72081695 33.49714114 15 41 C12.94921875 42.24609375 12.94921875 42.24609375 11 43 C11.03480469 41.87722656 11.06960938 40.75445312 11.10546875 39.59765625 C11.3467823 28.51579553 10.09168342 20.94090572 5 11 C5 10.34 5 9.68 5 9 C4.34 9 3.68 9 3 9 C0.8125 6.1875 0.8125 6.1875 -1 3 C-0.67 2.01 -0.34 1.02 0 0 Z " fill="#282828" transform="translate(328,199)"/>
<path d="M0 0 C5.75 1.875 5.75 1.875 8 3 C8 4.32 8 5.64 8 7 C6.35 6.67 4.7 6.34 3 6 C1.46232654 14.98717886 0.51856202 23.897872 0 33 C-0.33 33 -0.66 33 -1 33 C-1.33 30.03 -1.66 27.06 -2 24 C-2.33 27.96 -2.66 31.92 -3 36 C-3.33 36 -3.66 36 -4 36 C-4.2071352 25.10238692 -4.15729044 14.72866761 -2 4 C-3.32 3.34 -4.64 2.68 -6 2 C-5.34 1.67 -4.68 1.34 -4 1 C-3.01 1.33 -2.02 1.66 -1 2 C-0.67 1.34 -0.34 0.68 0 0 Z " fill="#424242" transform="translate(204,199)"/>
<path d="M0 0 C0.66 0.66 1.32 1.32 2 2 C-1.33751464 6.17189331 -4.84806988 7.40146694 -10 8 C-19.37855289 8.39077304 -28.66422937 7.99015749 -38 7 C-38.33 6.01 -38.66 5.02 -39 4 C-38.09757568 3.98018066 -37.19515137 3.96036133 -36.26538086 3.93994141 C-32.88996242 3.86144835 -29.51495602 3.77474332 -26.13989258 3.68261719 C-24.68424482 3.64453573 -23.22850963 3.609648 -21.77270508 3.578125 C-19.66976852 3.53201745 -17.56742325 3.47410453 -15.46484375 3.4140625 C-14.202771 3.3826416 -12.94069824 3.3512207 -11.64038086 3.31884766 C-5.36316259 2.85506203 -5.36316259 2.85506203 0 0 Z " fill="#1C1C1C" transform="translate(272,395)"/>
<path d="M0 0 C0.66 0.99 1.32 1.98 2 3 C2.7425 4.0725 3.485 5.145 4.25 6.25 C6.7530449 10.25936832 8.59172271 14.44942884 10.375 18.8125 C10.64989258 19.47088867 10.92478516 20.12927734 11.20800781 20.80761719 C13.12163042 25.63510873 13.12163042 25.63510873 12 29 C11.01 29 10.02 29 9 29 C8.32404685 27.58774074 7.65959941 26.16997095 7 24.75 C6.62875 23.96109375 6.2575 23.1721875 5.875 22.359375 C5 20 5 20 5 16 C4.34 16 3.68 16 3 16 C2.0204042 14.20856793 1.0413367 12.41684696 0.0625 10.625 C-0.48277344 9.62726563 -1.02804688 8.62953125 -1.58984375 7.6015625 C-2.4149759 6.07929654 -3.22564391 4.54871217 -4 3 C-2.68 2.67 -1.36 2.34 0 2 C0 1.34 0 0.68 0 0 Z " fill="#505050" transform="translate(220,153)"/>
<path d="M0 0 C0.99 0.495 0.99 0.495 2 1 C2.34375 2.890625 2.34375 2.890625 2.5 5.25 C2.74524375 8.90413195 3.61213889 11.61996926 5 15 C5.76448195 18.00989751 6.44458511 21.03174129 7.12109375 24.0625 C8.02499994 27.08355536 9.36853876 29.32237576 11 32 C10.6875 34.3125 10.6875 34.3125 10 36 C9.01 36 8.02 36 7 36 C6.01233987 33.79513181 5.03481484 31.58662689 4.0625 29.375 C3.78470703 28.75753906 3.50691406 28.14007813 3.22070312 27.50390625 C0.2884585 20.79153903 -0.14697891 14.8122057 -0.0625 7.625 C-0.05798828 6.88894531 -0.05347656 6.15289062 -0.04882812 5.39453125 C-0.03715142 3.59631842 -0.01922011 1.79814803 0 0 Z " fill="#393939" transform="translate(201,222)"/>
<path d="M0 0 C3.9644789 0.61355031 6.5524654 2.59856266 9.75 4.9375 C10.73484375 5.64777344 11.7196875 6.35804688 12.734375 7.08984375 C13.48203125 7.72019531 14.2296875 8.35054687 15 9 C15 9.66 15 10.32 15 11 C15.66 11 16.32 11 17 11 C17 11.66 17 12.32 17 13 C17.99 13.33 18.98 13.66 20 14 C21.1875 16.5625 21.1875 16.5625 22 19 C21.34 19 20.68 19 20 19 C19.67 19.99 19.34 20.98 19 22 C16 18.25 16 18.25 16 16 C14.68 15.34 13.36 14.68 12 14 C12 13.34 12 12.68 12 12 C11.43796875 11.74476563 10.8759375 11.48953125 10.296875 11.2265625 C7.70613518 9.84307219 5.54892155 8.20061417 3.25 6.375 C2.45078125 5.74335938 1.6515625 5.11171875 0.828125 4.4609375 C0.22484375 3.97882813 -0.3784375 3.49671875 -1 3 C-0.67 2.01 -0.34 1.02 0 0 Z " fill="#393939" transform="translate(186,140)"/>
<path d="M0 0 C0.99 0.33 1.98 0.66 3 1 C2.58893779 3.8774355 2.1709478 4.84977314 -0.0625 6.8125 C-2.38292028 8.98295695 -2.38292028 8.98295695 -2.25 12.75 C-2.12625 14.35875 -2.12625 14.35875 -2 16 C-3.98 16.99 -3.98 16.99 -6 18 C-7.35439668 15.29120665 -7.06501451 12.99066732 -7 10 C-7.63808594 9.89042969 -8.27617187 9.78085938 -8.93359375 9.66796875 C-9.75988281 9.50941406 -10.58617187 9.35085937 -11.4375 9.1875 C-12.26121094 9.03667969 -13.08492188 8.88585937 -13.93359375 8.73046875 C-14.61550781 8.48941406 -15.29742187 8.24835938 -16 8 C-16.33 7.01 -16.66 6.02 -17 5 C-12.20699867 3.60848348 -7.84864218 4.31337311 -3 5 C-3 4.34 -3 3.68 -3 3 C-2.34 3 -1.68 3 -1 3 C-0.67 2.01 -0.34 1.02 0 0 Z " fill="#2A2A2A" transform="translate(318,206)"/>
<path d="M0 0 C0.88405518 -0.00193359 1.76811035 -0.00386719 2.67895508 -0.00585938 C3.62407959 -0.00134766 4.5692041 0.00316406 5.54296875 0.0078125 C6.49389404 0.00974609 7.44481934 0.01167969 8.42456055 0.01367188 C15.2401782 0.05543921 21.95574165 0.34733689 28.73046875 1.1328125 C28.07046875 2.4528125 27.41046875 3.7728125 26.73046875 5.1328125 C22.49404075 5.06404179 18.25857745 4.97613129 14.02294922 4.87036133 C12.58165533 4.83708072 11.14023012 4.80905846 9.69873047 4.78637695 C7.62801078 4.7528863 5.55849782 4.7005795 3.48828125 4.64453125 C2.24191895 4.61834717 0.99555664 4.59216309 -0.28857422 4.56518555 C-1.27229004 4.42250244 -2.25600586 4.27981934 -3.26953125 4.1328125 C-3.92953125 3.1428125 -4.58953125 2.1528125 -5.26953125 1.1328125 C-3.70484888 -0.43186987 -2.1715823 0.00306875 0 0 Z " fill="#252525" transform="translate(283.26953125,390.8671875)"/>
<path d="M0 0 C5.61 0 11.22 0 17 0 C17.08058764 4.29203802 17.14030584 8.58257868 17.1875 12.875 C17.21263672 14.09832031 17.23777344 15.32164062 17.26367188 16.58203125 C17.27333984 17.74863281 17.28300781 18.91523438 17.29296875 20.1171875 C17.3086792 21.19597168 17.32438965 22.27475586 17.34057617 23.38623047 C17.22818604 24.24877441 17.1157959 25.11131836 17 26 C16.01 26.66 15.02 27.32 14 28 C13.67 20.08 13.34 12.16 13 4 C12.34 3.67 11.68 3.34 11 3 C11 3.66 11 4.32 11 5 C6.94393835 4.53199289 3.53411321 4.12046792 0 2 C0 1.34 0 0.68 0 0 Z " fill="#202020" transform="translate(302,315)"/>
<path d="M0 0 C0.33 0.99 0.66 1.98 1 3 C-0.134375 3.28875 -1.26875 3.5775 -2.4375 3.875 C-3.613125 4.24625 -4.78875 4.6175 -6 5 C-6.33 5.66 -6.66 6.32 -7 7 C-7.66 7 -8.32 7 -9 7 C-9.268125 7.86625 -9.53625 8.7325 -9.8125 9.625 C-10.97111987 12.91791964 -12.38209839 15.91127875 -14 19 C-14.33 18.34 -14.66 17.68 -15 17 C-17.33075929 17.95865509 -17.33075929 17.95865509 -19 21 C-18.53199289 16.94393835 -18.12046792 13.53411321 -16 10 C-15.34 10 -14.68 10 -14 10 C-13.9175 9.443125 -13.835 8.88625 -13.75 8.3125 C-12.75610222 5.24798184 -11.16837401 3.35970113 -9 1 C-5.8035914 -0.06546953 -3.34252724 -0.07427838 0 0 Z " fill="#383838" transform="translate(237,98)"/>
<path d="M0 0 C1.65 0.33 3.3 0.66 5 1 C6.90427108 10.13029973 7.22823248 18.71854592 7 28 C6.67 28 6.34 28 6 28 C6 25.36 6 22.72 6 20 C5.34 20 4.68 20 4 20 C4 22.97 4 25.94 4 29 C2.02 29 0.04 29 -2 29 C-0.68 28.34 0.64 27.68 2 27 C2.19312779 20.05812881 2.20835509 13.62068179 0.4453125 6.87890625 C-0.10525449 4.55589989 -0.153337 2.37672346 0 0 Z " fill="#5F5F5F" transform="translate(252,123)"/>
<path d="M0 0 C1.32 0 2.64 0 4 0 C3.855625 0.69222656 3.71125 1.38445312 3.5625 2.09765625 C1.92474378 10.7299963 0.16358477 21.49075431 3 30 C4.65 30.33 6.3 30.66 8 31 C4.92677456 31.91058531 2.19902639 32.08886184 -1 32 C-1 31.34 -1 30.68 -1 30 C-1.66 30 -2.32 30 -3 30 C-2.67 29.34 -2.34 28.68 -2 28 C-1.67 28 -1.34 28 -1 28 C-1 23.05 -1 18.1 -1 13 C-1.33 15.64 -1.66 18.28 -2 21 C-2.33 21 -2.66 21 -3 21 C-3.38999191 13.40237976 -2.60758587 7.15533979 0 0 Z " fill="#323232" transform="translate(302,284)"/>
<path d="M0 0 C0.99 0.33 1.98 0.66 3 1 C3.35666988 6.01319327 3.56305357 9.85303903 1.3125 14.4375 C-1.79585327 17.88189146 -4.0968547 19.87312365 -8.8125 20.1875 C-9.534375 20.125625 -10.25625 20.06375 -11 20 C-11 18.68 -11 17.36 -11 16 C-9.88625 15.5875 -8.7725 15.175 -7.625 14.75 C-5.00679305 13.64453484 -4.16506911 13.25119213 -2.5625 10.8125 C-2.376875 10.214375 -2.19125 9.61625 -2 9 C-1.34 9 -0.68 9 0 9 C-0.185625 7.700625 -0.37125 6.40125 -0.5625 5.0625 C-0.87890625 2.84765625 -0.87890625 2.84765625 -1 1 C-0.67 0.67 -0.34 0.34 0 0 Z " fill="#1F201F" transform="translate(322,375)"/>
<path d="M0 0 C1.07765625 0.01804688 2.1553125 0.03609375 3.265625 0.0546875 C4.49539063 0.08949219 4.49539063 0.08949219 5.75 0.125 C6.08 1.445 6.41 2.765 6.75 4.125 C3.75 5.125 3.75 5.125 0.875 4.625 C-2.22929856 4.12831223 -4.24274653 4.32896232 -7.25 5.125 C-7.25 5.785 -7.25 6.445 -7.25 7.125 C-7.91 7.125 -8.57 7.125 -9.25 7.125 C-9.58 8.115 -9.91 9.105 -10.25 10.125 C-11.57 9.795 -12.89 9.465 -14.25 9.125 C-13.68416161 5.84313734 -12.83727596 4.23315078 -10.25 2.125 C-6.79554323 -0.04682248 -4.03430548 -0.08770229 0 0 Z " fill="#4B4B4B" transform="translate(264.25,206.875)"/>
<path d="M0 0 C6.59087429 -0.44937779 12.74345165 0.93030722 19 3 C19.66 3.66 20.32 4.32 21 5 C17.45459599 7.36360267 16.17834902 7.32141146 12 7 C11.00355469 6.67773438 10.00710938 6.35546875 8.98046875 6.0234375 C4.08627952 4.57598782 -0.86623951 4.54138449 -5.9375 4.375 C-7.3925293 4.31699219 -7.3925293 4.31699219 -8.87695312 4.2578125 C-11.25112076 4.16424924 -13.62529492 4.07850792 -16 4 C-16 3.67 -16 3.34 -16 3 C-9.73 2.67 -3.46 2.34 3 2 C2.01 1.34 1.02 0.68 0 0 Z " fill="#545454" transform="translate(270,151)"/>
<path d="M0 0 C0.33 0.99 0.66 1.98 1 3 C0.22914063 3.15855469 -0.54171875 3.31710938 -1.3359375 3.48046875 C-2.33882813 3.71378906 -3.34171875 3.94710937 -4.375 4.1875 C-5.37273437 4.40792969 -6.37046875 4.62835938 -7.3984375 4.85546875 C-10.20611555 5.76622838 -10.20611555 5.76622838 -11.28125 8.46875 C-11.5184375 9.3040625 -11.755625 10.139375 -12 11 C-12.65213539 12.34050052 -13.31379969 13.67661368 -14 15 C-14.66 15 -15.32 15 -16 15 C-16.45543387 9.30707666 -15.68246386 6.3984985 -12 2 C-8.43030146 -0.80476313 -4.34004512 -0.14466817 0 0 Z " fill="#1D1D1D" transform="translate(276,87)"/>
<path d="M0 0 C0.66 0 1.32 0 2 0 C2 0.66 2 1.32 2 2 C2.515625 2.226875 3.03125 2.45375 3.5625 2.6875 C7.89670522 5.02130281 11.96985206 7.24016393 14.5 11.5625 C15.03422064 14.16682561 14.72087396 15.49284276 14 18 C13.48050781 17.45730469 12.96101562 16.91460937 12.42578125 16.35546875 C8.80447315 12.64044843 5.54957526 9.55913609 1 7 C1 6.34 1 5.68 1 5 C0.01 4.67 -0.98 4.34 -2 4 C-1.01 3.67 -0.02 3.34 1 3 C0.67 2.01 0.34 1.02 0 0 Z " fill="#515151" transform="translate(199,135)"/>
<path d="M0 0 C2.83315441 0.43586991 4.3383998 1.23072714 6.75 2.875 C10.4379983 5.2863835 13.8464425 6.56773879 18 8 C18 9.32 18 10.64 18 12 C11.49952283 11.71737056 5.94306225 9.2801995 1 5 C0.2109375 2.296875 0.2109375 2.296875 0 0 Z " fill="#333333" transform="translate(238,291)"/>
<path d="M0 0 C0.66 0 1.32 0 2 0 C2 2.64 2 5.28 2 8 C3.19496094 7.96519531 3.19496094 7.96519531 4.4140625 7.9296875 C14.93848858 7.75043937 14.93848858 7.75043937 20 10 C20 10.33 20 10.66 20 11 C6.635 11.495 6.635 11.495 -7 12 C-6.67 11.01 -6.34 10.02 -6 9 C-4.02 9 -2.04 9 0 9 C0 6.03 0 3.06 0 0 Z " fill="#060706" transform="translate(256,143)"/>
<path d="M0 0 C6.53660686 -0.58103172 12.09262683 1.19961895 18 4 C18.33 4.66 18.66 5.32 19 6 C18.0625 8.125 18.0625 8.125 17 10 C16.47792969 9.53722656 15.95585937 9.07445312 15.41796875 8.59765625 C12.42724438 6.62155566 9.82041857 6.12494205 6.3125 5.4375 C4.19511318 5.02061739 2.08531423 4.55550212 0 4 C-0.33 3.34 -0.66 2.68 -1 2 C-0.67 1.34 -0.34 0.68 0 0 Z " fill="#393939" transform="translate(252,369)"/>
<path d="M0 0 C-1.71912699 6.65030706 -4.15360722 11.12223898 -9 16 C-9.33 15.01 -9.66 14.02 -10 13 C-12.43929746 14.92576115 -14.80090595 16.80090595 -17 19 C-17.66 18.34 -18.32 17.68 -19 17 C-18.34 17 -17.68 17 -17 17 C-17 16.34 -17 15.68 -17 15 C-16.113125 14.443125 -15.22625 13.88625 -14.3125 13.3125 C-10.50235366 10.91652145 -8.39397255 7.73841365 -6 4 C-3.33333333 0 -3.33333333 0 0 0 Z " fill="#3A3A3A" transform="translate(343,240)"/>
<path d="M0 0 C0.99 0 1.98 0 3 0 C5.91911741 5.83823482 5.13901196 13.86340429 4.64453125 20.22265625 C4 22 4 22 0 24 C0 16.08 0 8.16 0 0 Z " fill="#1B1B1B" transform="translate(339,218)"/>
<path d="M0 0 C5.99593888 1.11035905 10.00021017 4.54309134 14 9 C14 9.66 14 10.32 14 11 C12.02 11.99 12.02 11.99 10 13 C9.34 11.68 8.68 10.36 8 9 C7.34 9 6.68 9 6 9 C6 8.34 6 7.68 6 7 C5.21625 6.71125 4.4325 6.4225 3.625 6.125 C1 5 1 5 -1 3 C-0.67 2.01 -0.34 1.02 0 0 Z " fill="#404040" transform="translate(256,300)"/>
<path d="M0 0 C1.828125 0.203125 1.828125 0.203125 4 1 C5.484375 3.109375 5.484375 3.109375 6.75 5.75 C7.17796875 6.61109375 7.6059375 7.4721875 8.046875 8.359375 C9.03636629 11.10075251 9.18702237 13.11154335 9 16 C8.01 16.33 7.02 16.66 6 17 C4.99063464 14.921188 3.99282154 12.8367638 3 10.75 C2.443125 9.58984375 1.88625 8.4296875 1.3125 7.234375 C0 4 0 4 0 0 Z " fill="#3A3A3A" transform="translate(286,282)"/>
<path d="M0 0 C0.33 0 0.66 0 1 0 C1 2.97 1 5.94 1 9 C1.66 9 2.32 9 3 9 C4.78409802 12.06246747 5.22880021 14.22079273 5.125 17.75 C5.10695312 18.54921875 5.08890625 19.3484375 5.0703125 20.171875 C5.03550781 21.07679688 5.03550781 21.07679688 5 22 C3.68 22.33 2.36 22.66 1 23 C-0.5625 20.6875 -0.5625 20.6875 -2 18 C-1.505 16.515 -1.505 16.515 -1 15 C-0.34 15 0.32 15 1 15 C0.835 14.38125 0.67 13.7625 0.5 13.125 C-0.20075317 8.74529271 -0.07734251 4.42571011 0 0 Z " fill="#191919" transform="translate(215,133)"/>
<path d="M0 0 C5.96351455 1.27789598 8.48417174 4.33716394 12 9 C11 11 11 11 10 12 C9.95907063 14.33297433 9.95758277 16.66705225 10 19 C9.67 19 9.34 19 9 19 C8.86722656 18.38511719 8.73445313 17.77023437 8.59765625 17.13671875 C8.42105469 16.32847656 8.24445313 15.52023437 8.0625 14.6875 C7.88847656 13.88699219 7.71445312 13.08648437 7.53515625 12.26171875 C7.00113841 9.854599 7.00113841 9.854599 6 7 C5.01 6.690625 4.02 6.38125 3 6.0625 C2.01 5.711875 1.02 5.36125 0 5 C-0.9375 2.9375 -0.9375 2.9375 -1 1 C-0.67 0.67 -0.34 0.34 0 0 Z " fill="#333333" transform="translate(312,365)"/>
<path d="M0 0 C0.33 0.66 0.66 1.32 1 2 C0.67 2.66 0.34 3.32 0 4 C0.99 4.33 1.98 4.66 3 5 C2.67 5.99 2.34 6.98 2 8 C1.34 8 0.68 8 0 8 C0 8.66 0 9.32 0 10 C-0.66 10 -1.32 10 -2 10 C-2 10.66 -2 11.32 -2 12 C-2.66 12 -3.32 12 -4 12 C-4 12.66 -4 13.32 -4 14 C-5.65 14 -7.3 14 -9 14 C-9 13.01 -9 12.02 -9 11 C-7.68 10.34 -6.36 9.68 -5 9 C-5 8.34 -5 7.68 -5 7 C-4.34 7 -3.68 7 -3 7 C-2.690625 6.030625 -2.38125 5.06125 -2.0625 4.0625 C-1 1 -1 1 0 0 Z " fill="#313131" transform="translate(325,302)"/>
<path d="M0 0 C5.61 0 11.22 0 17 0 C16.67 2.31 16.34 4.62 16 7 C15.67 6.01 15.34 5.02 15 4 C12.98491642 3.26676204 12.98491642 3.26676204 11 3 C11 3.66 11 4.32 11 5 C6.94393835 4.53199289 3.53411321 4.12046792 0 2 C0 1.34 0 0.68 0 0 Z " fill="#181A19" transform="translate(302,315)"/>
<path d="M0 0 C0.33 0.66 0.66 1.32 1 2 C1.66 2 2.32 2 3 2 C1.87204037 6.10899581 0.66489182 10.07561214 -1 14 C-1.33 13.34 -1.66 12.68 -2 12 C-2.99 12.495 -2.99 12.495 -4 13 C-4.65213292 15.02463255 -4.65213292 15.02463255 -5 17 C-5.66 16.67 -6.32 16.34 -7 16 C-5.26017005 10.18738629 -3.1889511 5.16830006 0 0 Z " fill="#3D3D3D" transform="translate(188,303)"/>
<path d="M0 0 C3.97732616 -0.48701953 7.50116304 -0.79496325 11.12109375 1.125 C14.36184094 3.71220774 15.80869814 5.3113133 16.9375 9.375 C16.958125 10.24125 16.97875 11.1075 17 12 C16.34 11.67 15.68 11.34 15 11 C14.01 12.485 14.01 12.485 13 14 C12.566875 12.906875 12.13375 11.81375 11.6875 10.6875 C10.50504359 7.90591207 9.39199957 5.93638061 7 4 C7.33 3.01 7.66 2.02 8 1 C5.36 1 2.72 1 0 1 C0 0.67 0 0.34 0 0 Z " fill="#414141" transform="translate(293,78)"/>
<path d="M0 0 C3.71423292 3.20192493 5.3324251 6.41416902 7 11 C7 11.99 7 12.98 7 14 C4.6875 13.9375 4.6875 13.9375 2 13 C-0.23251374 8.99687192 -1.54165317 5.60405192 -1 1 C-0.67 0.67 -0.34 0.34 0 0 Z " fill="#464646" transform="translate(183,359)"/>
<path d="M0 0 C0.33 0.66 0.66 1.32 1 2 C1.66 2 2.32 2 3 2 C3.02694851 3.95825873 3.04637218 5.91662226 3.0625 7.875 C3.07410156 8.96554688 3.08570313 10.05609375 3.09765625 11.1796875 C3 14 3 14 2 16 C1.01 16 0.02 16 -1 16 C-1.02685095 13.52076199 -1.04676547 11.0418116 -1.0625 8.5625 C-1.07506836 7.50192383 -1.07506836 7.50192383 -1.08789062 6.41992188 C-1.09653588 4.61306441 -1.05220011 2.80612397 -1 1 C-0.67 0.67 -0.34 0.34 0 0 Z " fill="#242424" transform="translate(308,88)"/>
<path d="M0 0 C0.99 0.33 1.98 0.66 3 1 C3.33 8.59 3.66 16.18 4 24 C4.33 24 4.66 24 5 24 C5 26.31 5 28.62 5 31 C4.01 31 3.02 31 2 31 C0.31201173 32.43750191 0.31201173 32.43750191 -1 34 C-0.67386719 33.10925781 -0.34773438 32.21851563 -0.01171875 31.30078125 C1.5862765 25.70004061 1.25037511 19.96208235 1.1875 14.1875 C1.1865332 12.47143555 1.1865332 12.47143555 1.18554688 10.72070312 C1.42227652 5.18787121 1.42227652 5.18787121 0 0 Z " fill="#535454" transform="translate(313,318)"/>
<path d="M0 0 C4.17153059 -0.3148325 7.94153944 0.01613077 12 1 C12 1.99 12 2.98 12 4 C11.33613281 4.04898438 10.67226562 4.09796875 9.98828125 4.1484375 C3.2887764 4.71125812 3.2887764 4.71125812 -3 7 C-2.38722388 4.03824877 -1.74627478 2.61941217 0 0 Z " fill="#232323" transform="translate(167,123)"/>
<path d="M0 0 C0.33 0 0.66 0 1 0 C1 1.65 1 3.3 1 5 C2.32 5.33 3.64 5.66 5 6 C4.443125 6.2475 3.88625 6.495 3.3125 6.75 C0.84916017 7.98416275 0.84916017 7.98416275 -1.5625 10.125 C-4 12 -4 12 -7 12 C-8.67099977 12.31088368 -10.33871537 12.64080332 -12 13 C-11.236875 12.4225 -10.47375 11.845 -9.6875 11.25 C-6.99108421 9.16642802 -6.99108421 9.16642802 -5.3125 6.75 C-4.879375 6.1725 -4.44625 5.595 -4 5 C-3.34 5 -2.68 5 -2 5 C-1.34 3.35 -0.68 1.7 0 0 Z " fill="#464646" transform="translate(278,385)"/>
<path d="M0 0 C5.75 1.875 5.75 1.875 8 3 C8 4.32 8 5.64 8 7 C6.35 6.67 4.7 6.34 3 6 C2.67 6.66 2.34 7.32 2 8 C2 7.01 2 6.02 2 5 C1.34 5 0.68 5 0 5 C-0.33 5.66 -0.66 6.32 -1 7 C-1.33 6.01 -1.66 5.02 -2 4 C-4.00016466 2.79117904 -4.00016466 2.79117904 -6 2 C-5.34 1.67 -4.68 1.34 -4 1 C-3.01 1.33 -2.02 1.66 -1 2 C-0.67 1.34 -0.34 0.68 0 0 Z " fill="#4A4A4A" transform="translate(204,199)"/>
<path d="M0 0 C0.66 0.33 1.32 0.66 2 1 C1.34 1.66 0.68 2.32 0 3 C-2.31514338 7.72289249 -3.46034777 11.71140811 -4 17 C-4.33 17 -4.66 17 -5 17 C-5 14.36 -5 11.72 -5 9 C-5.66 9 -6.32 9 -7 9 C-7 10.65 -7 12.3 -7 14 C-7.33 14 -7.66 14 -8 14 C-8.45796457 10.87057543 -8.50559016 8.76774802 -6.734375 6.078125 C-2.71672662 1.35836331 -2.71672662 1.35836331 0 0 Z " fill="#404040" transform="translate(165,124)"/>
<path d="M0 0 C0.66 0.66 1.32 1.32 2 2 C-1.37269196 6.21586495 -4.86008298 7.19787743 -10 8 C-10.99 8 -11.98 8 -13 8 C-12.67 7.01 -12.34 6.02 -12 5 C-9.53125 3.8671875 -9.53125 3.8671875 -6.5 2.875 C-2.97094293 1.92229962 -2.97094293 1.92229962 0 0 Z " fill="#1C1C1C" transform="translate(272,395)"/>
<path d="M0 0 C1.58409994 0.11487748 3.16728963 0.24234508 4.75 0.375 C6.07257813 0.47941406 6.07257813 0.47941406 7.421875 0.5859375 C9.99066382 0.99850055 11.75841015 1.71160957 14 3 C13.01 3 12.02 3 11 3 C11.33 3.99 11.66 4.98 12 6 C7.30976546 5.43393721 2.65499974 4.81462495 -2 4 C-2 3.67 -2 3.34 -2 3 C-0.35 3 1.3 3 3 3 C3 2.34 3 1.68 3 1 C2.01 0.67 1.02 0.34 0 0 Z " fill="#414141" transform="translate(222,396)"/>
<path d="M0 0 C4.61513112 1.31860889 8.09897612 3.21355437 12 6 C11.67 6.99 11.34 7.98 11 9 C9.36881217 8.43420053 7.74515506 7.84665767 6.125 7.25 C4.76761719 6.76273438 4.76761719 6.76273438 3.3828125 6.265625 C0.67952982 4.82978305 0.03293147 3.82572058 -1 1 C-0.67 0.67 -0.34 0.34 0 0 Z " fill="#303030" transform="translate(192,193)"/>
<path d="M0 0 C0.33 0 0.66 0 1 0 C1 1.65 1 3.3 1 5 C0.34 5 -0.32 5 -1 5 C-0.67 3.35 -0.34 1.7 0 0 Z M-4 5 C-3.01 5 -2.02 5 -1 5 C-2.875 9.875 -2.875 9.875 -4 11 C-10.52542373 11.23728814 -10.52542373 11.23728814 -13 10 C-13 9.34 -13 8.68 -13 8 C-11.88625 7.87625 -10.7725 7.7525 -9.625 7.625 C-5.96896323 7.3534187 -5.96896323 7.3534187 -4 5 Z " fill="#131313" transform="translate(296,311)"/>
<path d="M0 0 C2.53910197 0.38520564 3.72751123 0.70097943 5.484375 2.62890625 C5.90203125 3.26699219 6.3196875 3.90507812 6.75 4.5625 C7.17796875 5.20316406 7.6059375 5.84382812 8.046875 6.50390625 C8.36140625 6.99761719 8.6759375 7.49132812 9 8 C8 10 8 10 5 12 C3 9 3 9 3 6 C2.34 6 1.68 6 1 6 C0.67 4.02 0.34 2.04 0 0 Z " fill="#3A3A3A" transform="translate(206,159)"/>
<path d="M0 0 C2 3 4 6 6 9 C5.67 9.66 5.34 10.32 5 11 C3.68 11.33 2.36 11.66 1 12 C-0.65 9.03 -2.3 6.06 -4 3 C-2.68 2.67 -1.36 2.34 0 2 C0 1.34 0 0.68 0 0 Z " fill="#414141" transform="translate(220,153)"/>
<path d="M0 0 C2.5 1.375 2.5 1.375 5 3 C5 3.66 5 4.32 5 5 C5.598125 5.12375 6.19625 5.2475 6.8125 5.375 C9 6 9 6 12 8 C10.02 8.66 8.04 9.32 6 10 C6 9.34 6 8.68 6 8 C4.35 7.67 2.7 7.34 1 7 C0 2.25 0 2.25 0 0 Z " fill="#383838" transform="translate(201,385)"/>
<path d="M0 0 C3 1 3 1 4.203125 2.9609375 C4.54859375 3.75757812 4.8940625 4.55421875 5.25 5.375 C5.60578125 6.16648437 5.9615625 6.95796875 6.328125 7.7734375 C7 10 7 10 6 13 C3.5625 11.5625 3.5625 11.5625 1 9 C0.26848111 6.00695442 0.07226313 3.07446787 0 0 Z " fill="#2C2C2C" transform="translate(249,112)"/>
<path d="M0 0 C0.33 0.66 0.66 1.32 1 2 C1.99 2.33 2.98 2.66 4 3 C2.36630142 6.26739717 -0.70894675 6.71704704 -4 8 C-5.32276056 8.37308631 -6.65232077 8.73046415 -8 9 C-6.06273348 4.41173718 -4.51135667 2.19471406 0 0 Z " fill="#222222" transform="translate(308,363)"/>
<path d="M0 0 C3.72433382 1.2125738 7.37802806 2.50859979 11 4 C10.01 4.33 9.02 4.66 8 5 C8 5.66 8 6.32 8 7 C3.91621717 6.25749403 -0.01939223 5.17076699 -4 4 C-2.68 2.68 -1.36 1.36 0 0 Z " fill="#353535" transform="translate(179,124)"/>
<path d="M0 0 C0.69965443 1.26418246 1.38434763 2.53665402 2.0625 3.8125 C2.63677734 4.87404297 2.63677734 4.87404297 3.22265625 5.95703125 C4 8 4 8 3 11 C-1.04131267 9.65289578 -1.90288434 7.61571666 -4 4 C-4 3.01 -4 2.02 -4 1 C-2 0 -2 0 0 0 Z " fill="#2C2C2C" transform="translate(311,170)"/>
<path d="M0 0 C0.33 1.32 0.66 2.64 1 4 C1.66 4 2.32 4 3 4 C3.39253254 8.44870215 2.15305957 11.14243493 0 15 C-1.58203125 13.88671875 -1.58203125 13.88671875 -3 12 C-2.63671875 9.08203125 -2.63671875 9.08203125 -1.6875 5.8125 C-1.38199219 4.72582031 -1.07648438 3.63914062 -0.76171875 2.51953125 C-0.51035156 1.68808594 -0.25898438 0.85664062 0 0 Z " fill="#424242" transform="translate(306,100)"/>
<path d="M0 0 C3.87729472 0.57441403 6.21519058 2.29254639 9 5 C9 6.32 9 7.64 9 9 C5.57308643 7.76250343 2.64697231 6.5489363 0 4 C0 2.68 0 1.36 0 0 Z " fill="#444444" transform="translate(238,291)"/>
<path d="M0 0 C3.3 0.66 6.6 1.32 10 2 C9.01 2.66 8.02 3.32 7 4 C8.65 4.33 10.3 4.66 12 5 C12 5.33 12 5.66 12 6 C6.32723489 6.29341888 3.00932754 6.00559652 -2 3 C-1.34 2.67 -0.68 2.34 0 2 C0 1.34 0 0.68 0 0 Z " fill="#3A3A3A" transform="translate(176,371)"/>
<path d="M0 0 C0.66 0.33 1.32 0.66 2 1 C2 5.95 2 10.9 2 16 C1.34 16.33 0.68 16.66 0 17 C-0.66 16.67 -1.32 16.34 -2 16 C-1.34 10.72 -0.68 5.44 0 0 Z " fill="#0B0B0B" transform="translate(300,296)"/>
<path d="M0 0 C0.33 0 0.66 0 1 0 C1 4.95 1 9.9 1 15 C0.67 15 0.34 15 0 15 C0 12.36 0 9.72 0 7 C-0.66 7 -1.32 7 -2 7 C-2 9.97 -2 12.94 -2 16 C-3.98 16 -5.96 16 -8 16 C-7.03320312 15.69449219 -7.03320312 15.69449219 -6.046875 15.3828125 C-3.68846128 14.1332065 -3.68846128 14.1332065 -3.390625 11.1796875 C-3.34421875 10.08914062 -3.2978125 8.99859375 -3.25 7.875 C-3.19328125 6.77929688 -3.1365625 5.68359375 -3.078125 4.5546875 C-3.05234375 3.71164063 -3.0265625 2.86859375 -3 2 C-2.34 2.33 -1.68 2.66 -1 3 C-0.67 2.01 -0.34 1.02 0 0 Z " fill="#848584" transform="translate(258,136)"/>
<path d="M0 0 C0.66 0.33 1.32 0.66 2 1 C1.67 5.95 1.34 10.9 1 16 C0.67 15.01 0.34 14.02 0 13 C-0.66 13 -1.32 13 -2 13 C-2.2493357 11.39884424 -2.47378648 9.79379841 -2.6875 8.1875 C-2.81511719 7.29417969 -2.94273437 6.40085938 -3.07421875 5.48046875 C-3 3 -3 3 -1.51953125 1.17578125 C-1.01808594 0.78777344 -0.51664063 0.39976562 0 0 Z " fill="#0C0C0C" transform="translate(218,129)"/>
<path d="M0 0 C0.33 0 0.66 0 1 0 C1.34179688 2.97851562 1.34179688 2.97851562 1.68359375 5.95703125 C1.97170735 8.19396393 1.97170735 8.19396393 3 11 C2.01 11 1.02 11 0 11 C-0.33 11.66 -0.66 12.32 -1 13 C-1.5345256 11.75579353 -2.05208611 10.50429064 -2.5625 9.25 C-2.85253906 8.55390625 -3.14257812 7.8578125 -3.44140625 7.140625 C-4.07831803 4.69987216 -3.80248831 3.3596345 -3 1 C-3 1.99 -3 2.98 -3 4 C-2.34 3.67 -1.68 3.34 -1 3 C-0.67 2.01 -0.34 1.02 0 0 Z " fill="#3C3C3C" transform="translate(263,98)"/>
<path d="M0 0 C2.625 1.3125 2.625 1.3125 5 3 C5 3.66 5 4.32 5 5 C5.66 5 6.32 5 7 5 C7 6.32 7 7.64 7 9 C3.41209425 8.70100785 2.21833224 8.23013399 -0.3125 5.5625 C-2 3 -2 3 -2 1 C-1.34 0.67 -0.68 0.34 0 0 Z " fill="#1E1E1E" transform="translate(169,364)"/>
<path d="M0 0 C3.04376178 2.02917452 3.74810874 2.72582285 5 6 C5 7.32 5 8.64 5 10 C4.34 10 3.68 10 3 10 C2.67 11.32 2.34 12.64 2 14 C1.71125 13.113125 1.4225 12.22625 1.125 11.3125 C0.16851252 8.49617576 -0.86798946 5.74916844 -2 3 C-1.34 2.67 -0.68 2.34 0 2 C0 1.34 0 0.68 0 0 Z " fill="#464646" transform="translate(336,208)"/>
<path d="M0 0 C3.3 0 6.6 0 10 0 C10.33 1.32 10.66 2.64 11 4 C7.52128379 5.15957207 6.65780355 4.77456651 3.3125 3.5625 C2.50425781 3.27503906 1.69601562 2.98757812 0.86328125 2.69140625 C0.24839844 2.46324219 -0.36648438 2.23507813 -1 2 C-0.67 1.34 -0.34 0.68 0 0 Z " fill="#2E2E2E" transform="translate(260,207)"/>
<path d="M0 0 C0.66 1.32 1.32 2.64 2 4 C1.34 4.61875 0.68 5.2375 0 5.875 C-2.2284549 7.75637427 -2.2284549 7.75637427 -2 10 C-4.31 10.33 -6.62 10.66 -9 11 C-9 9.68 -9 8.36 -9 7 C-7.88625 6.5875 -6.7725 6.175 -5.625 5.75 C-3.00679305 4.64453484 -2.16506911 4.25119213 -0.5625 1.8125 C-0.376875 1.214375 -0.19125 0.61625 0 0 Z " fill="#3F3F3F" transform="translate(320,384)"/>
<path d="M0 0 C0.66 0 1.32 0 2 0 C2.33 0.99 2.66 1.98 3 3 C3.66 2.34 4.32 1.68 5 1 C5.69710731 2.28650706 6.38242876 3.57940665 7.0625 4.875 C7.63677734 5.95394531 7.63677734 5.95394531 8.22265625 7.0546875 C8.47917969 7.69664062 8.73570312 8.33859375 9 9 C8.67 9.66 8.34 10.32 8 11 C6.35 10.67 4.7 10.34 3 10 C2.01 6.7 1.02 3.4 0 0 Z " fill="#494949" transform="translate(163,355)"/>
<path d="M0 0 C1.5 1.375 1.5 1.375 3 3 C3 3.66 3 4.32 3 5 C3.66 5 4.32 5 5 5 C5 5.66 5 6.32 5 7 C5.66 7.33 6.32 7.66 7 8 C6.67 9.32 6.34 10.64 6 12 C5.34 12 4.68 12 4 12 C4 11.34 4 10.68 4 10 C3.34 10 2.68 10 2 10 C2 9.34 2 8.68 2 8 C1.34 8 0.68 8 0 8 C-1.09658936 4.71023192 -0.79953138 3.28696233 0 0 Z " fill="#5A5A5A" transform="translate(322,191)"/>
<path d="M0 0 C4.29 0.66 8.58 1.32 13 2 C13 2.33 13 2.66 13 3 C10.69 3 8.38 3 6 3 C6 3.66 6 4.32 6 5 C6.66 5.33 7.32 5.66 8 6 C0.25 5.25 0.25 5.25 -2 3 C-1.34 2.34 -0.68 1.68 0 1 C0 0.67 0 0.34 0 0 Z " fill="#505050" transform="translate(277,316)"/>
<path d="M0 0 C0.99 0 1.98 0 3 0 C4.60725635 3.21451269 4.05748185 6.43612536 4 10 C3.01 10.33 2.02 10.66 1 11 C-0.17571451 7.32589215 -0.07366746 3.83070817 0 0 Z " fill="#272727" transform="translate(339,218)"/>
<path d="M0 0 C0.66 0 1.32 0 2 0 C2.33 4.95 2.66 9.9 3 15 C2.01 15.495 2.01 15.495 1 16 C1 14.68 1 13.36 1 12 C0.34 11.67 -0.32 11.34 -1 11 C-0.67 7.37 -0.34 3.74 0 0 Z " fill="#070707" transform="translate(164,343)"/>
<path d="M0 0 C2.66735273 2.48952921 4.55746343 4.63408134 6 8 C4.02 8.99 4.02 8.99 2 10 C0.35 7.69 -1.3 5.38 -3 3 C-2.01 2.67 -1.02 2.34 0 2 C0 1.34 0 0.68 0 0 Z " fill="#464646" transform="translate(170,169)"/>
<path d="M0 0 C2.9375 0.8125 2.9375 0.8125 4.9375 2.8125 C1.48504176 5.11413882 -0.00988713 5.15740322 -4.0625 4.8125 C-4.7225 4.1525 -5.3825 3.4925 -6.0625 2.8125 C-4.08959835 0.07235882 -3.46862789 -0.21236497 0 0 Z " fill="#484848" transform="translate(286.0625,153.1875)"/>
<path d="M0 0 C0.33 0.99 0.66 1.98 1 3 C-3.455 4.485 -3.455 4.485 -8 6 C-8.33 4.35 -8.66 2.7 -9 1 C-5.8035914 -0.06546953 -3.34252724 -0.07427838 0 0 Z " fill="#121212" transform="translate(237,98)"/>
<path d="M0 0 C2.9375 1.625 2.9375 1.625 6 4 C6.875 7.25 6.875 7.25 7 10 C3.64084842 8.56036361 1.28375062 6.87583411 -1 4 C-0.75 1.75 -0.75 1.75 0 0 Z " fill="#484848" transform="translate(186,187)"/>
<path d="M0 0 C1.65 1.65 3.3 3.3 5 5 C4.34 6.65 3.68 8.3 3 10 C0.33264727 7.51047079 -1.55746343 5.36591866 -3 2 C-2.01 2 -1.02 2 0 2 C0 1.34 0 0.68 0 0 Z " fill="#4F4F4F" transform="translate(246,106)"/>
<path d="M0 0 C2.97 0.495 2.97 0.495 6 1 C6.66 3.31 7.32 5.62 8 8 C7.29875 7.525625 6.5975 7.05125 5.875 6.5625 C2.83918663 4.91260143 0.40831214 4.39631536 -3 4 C-2.01 3.34 -1.02 2.68 0 2 C0 1.34 0 0.68 0 0 Z " fill="#474747" transform="translate(276,87)"/>
<path d="M0 0 C0.33 0 0.66 0 1 0 C1.06058594 0.61488281 1.12117188 1.22976563 1.18359375 1.86328125 C1.26738281 2.67152344 1.35117187 3.47976563 1.4375 4.3125 C1.51871094 5.11300781 1.59992188 5.91351563 1.68359375 6.73828125 C1.95265693 9.16087179 1.95265693 9.16087179 3 12 C4.65 12.33 6.3 12.66 8 13 C4.92677456 13.91058531 2.19902639 14.08886184 -1 14 C-1 13.34 -1 12.68 -1 12 C-1.66 12 -2.32 12 -3 12 C-2.67 11.34 -2.34 10.68 -2 10 C-1.67 10 -1.34 10 -1 10 C-0.67 6.7 -0.34 3.4 0 0 Z " fill="#949494" transform="translate(302,302)"/>
<path d="M0 0 C1.32 0 2.64 0 4 0 C4.33 2.64 4.66 5.28 5 8 C4.01 8.33 3.02 8.66 2 9 C0.50178941 5.62902617 0 3.79557881 0 0 Z " fill="#262626" transform="translate(290,290)"/>
<path d="M0 0 C1.98 0.495 1.98 0.495 4 1 C4 1.66 4 2.32 4 3 C4.66 3 5.32 3 6 3 C6 4.32 6 5.64 6 7 C5.01 7.33 4.02 7.66 3 8 C0.9375 5.6875 0.9375 5.6875 -1 3 C-0.67 2.01 -0.34 1.02 0 0 Z " fill="#343434" transform="translate(303,164)"/>
<path d="M0 0 C3.3 0 6.6 0 10 0 C9.34 1.32 8.68 2.64 8 4 C5.03 3.67 2.06 3.34 -1 3 C-0.67 2.01 -0.34 1.02 0 0 Z " fill="#090909" transform="translate(302,392)"/>
<path d="M0 0 C1.5 1.375 1.5 1.375 3 3 C3 3.66 3 4.32 3 5 C3.66 5 4.32 5 5 5 C4 7 4 7 1 9 C0.34 7.35 -0.32 5.7 -1 4 C-1.66 4 -2.32 4 -3 4 C-3 3.01 -3 2.02 -3 1 C-2.01 0.67 -1.02 0.34 0 0 Z " fill="#4B4B4B" transform="translate(212,256)"/>
<path d="M0 0 C2.475 0.495 2.475 0.495 5 1 C5.33 3.31 5.66 5.62 6 8 C5.01 8.495 5.01 8.495 4 9 C0 4.5 0 4.5 0 0 Z " fill="#222222" transform="translate(222,163)"/>
<path d="M0 0 C0.99 0.495 0.99 0.495 2 1 C2.4140625 3.94140625 2.4140625 3.94140625 2.625 7.5625 C2.69976562 8.76003906 2.77453125 9.95757812 2.8515625 11.19140625 C2.90054688 12.11824219 2.94953125 13.04507813 3 14 C2.01 14.495 2.01 14.495 1 15 C-0.44207941 12.11584117 -0.09394887 9.58278472 -0.0625 6.375 C-0.05347656 5.18648437 -0.04445312 3.99796875 -0.03515625 2.7734375 C-0.02355469 1.85820312 -0.01195312 0.94296875 0 0 Z " fill="#050505" transform="translate(201,222)"/>
<path d="M0 0 C2.64 0 5.28 0 8 0 C8.33 0.99 8.66 1.98 9 3 C5.37 3.33 1.74 3.66 -2 4 C-1.34 2.68 -0.68 1.36 0 0 Z " fill="#121212" transform="translate(293,79)"/>
<path d="M0 0 C4.8 3.44615385 4.8 3.44615385 5.8125 6.25 C5.874375 6.8275 5.93625 7.405 6 8 C5.01 8.495 5.01 8.495 4 9 C4 11.31 4 13.62 4 16 C3.67 16 3.34 16 3 16 C2.86722656 15.37351562 2.73445313 14.74703125 2.59765625 14.1015625 C2.42105469 13.28429687 2.24445313 12.46703125 2.0625 11.625 C1.88847656 10.81289063 1.71445312 10.00078125 1.53515625 9.1640625 C1.07669307 6.970537 1.07669307 6.970537 0 5 C0.66 4.67 1.32 4.34 2 4 C1.34 2.68 0.68 1.36 0 0 Z " fill="#4D4E4E" transform="translate(318,368)"/>
<path d="M0 0 C6.4 0.49230769 6.4 0.49230769 9.4375 3.0625 C10.2109375 4.0215625 10.2109375 4.0215625 11 5 C6.94393835 4.53199289 3.53411321 4.12046792 0 2 C0 1.34 0 0.68 0 0 Z " fill="#313332" transform="translate(302,315)"/>
<path d="M0 0 C0.99 0.33 1.98 0.66 3 1 C4.1875 4.5625 4.1875 4.5625 5 8 C4.01 8.495 4.01 8.495 3 9 C3 8.34 3 7.68 3 7 C2.01 7 1.02 7 0 7 C-0.38133299 5.0085944 -0.71325582 3.00720923 -1 1 C-0.67 0.67 -0.34 0.34 0 0 Z " fill="#282828" transform="translate(166,164)"/>
<path d="M0 0 C1.32 0.33 2.64 0.66 4 1 C4.33 2.65 4.66 4.3 5 6 C3.02 6.99 3.02 6.99 1 8 C-0.35439668 5.29120665 -0.06501451 2.99066732 0 0 Z " fill="#5A5A5A" transform="translate(311,216)"/>
<path d="M0 0 C1.5625 1.75 1.5625 1.75 3 4 C2.73495121 7.00388632 2.16695725 7.83304275 0 10 C-1.5625 7.1875 -1.5625 7.1875 -3 4 C-2.67 3.01 -2.34 2.02 -2 1 C-2 1.66 -2 2.32 -2 3 C-1.34 3 -0.68 3 0 3 C0 2.01 0 1.02 0 0 Z " fill="#4A4A4A" transform="translate(164,157)"/>
<path d="M0 0 C2.20914 3.31371 2.22481553 4.3446021 2.125 8.1875 C2.10695313 9.08855469 2.08890625 9.98960937 2.0703125 10.91796875 C2.03550781 11.94857422 2.03550781 11.94857422 2 13 C0.08854396 11.39538295 -0.91104348 10.53479815 -1.328125 8.02734375 C-1.11111111 2.22222222 -1.11111111 2.22222222 0 0 Z " fill="#111111" transform="translate(256,128)"/>
<path d="M0 0 C3.34249629 0.59687434 5.46436342 1.73603877 8 4 C8 4.66 8 5.32 8 6 C2.25 5.125 2.25 5.125 0 4 C0 2.68 0 1.36 0 0 Z " fill="#1F1F1F" transform="translate(279,118)"/>
<path d="M0 0 C2.475 0.99 2.475 0.99 5 2 C4.67 3.65 4.34 5.3 4 7 C3.2575 6.54625 2.515 6.0925 1.75 5.625 C-0.46930578 4.31359204 -2.67967822 3.11719197 -5 2 C-3.35 2 -1.7 2 0 2 C0 1.34 0 0.68 0 0 Z " fill="#3F3F3F" transform="translate(266,372)"/>
<path d="M0 0 C1.37562854 1.28965176 2.70766393 2.62689293 4 4 C4 4.66 4 5.32 4 6 C3.34 6 2.68 6 2 6 C1.67 6.99 1.34 7.98 1 9 C-0.5625 7.25 -0.5625 7.25 -2 5 C-1.75203633 2.83031791 -1.55766393 1.55766393 0 0 Z " fill="#515151" transform="translate(204,153)"/>
<path d="M0 0 C0.33 0 0.66 0 1 0 C1 2.97 1 5.94 1 9 C1.66 9 2.32 9 3 9 C3.93065133 11.60582371 4.14917407 12.64198224 3.0625 15.25 C2.711875 15.8275 2.36125 16.405 2 17 C1.34 17 0.68 17 0 17 C0 11.39 0 5.78 0 0 Z " fill="#3F3F3F" transform="translate(215,133)"/>
<path d="M0 0 C-0.33 0.66 -0.66 1.32 -1 2 C-0.01 2.33 0.98 2.66 2 3 C0.02253397 3.73080266 -1.98072489 4.39421747 -4 5 C-4.66 4.67 -5.32 4.34 -6 4 C-6.625 1.9375 -6.625 1.9375 -7 0 C-2.25 -1.125 -2.25 -1.125 0 0 Z " fill="#525252" transform="translate(250,153)"/>
<path d="M0 0 C2.09749995 2.35968744 2.96905704 3.54616994 3.1875 6.75 C3.125625 7.4925 3.06375 8.235 3 9 C2.34 9 1.68 9 1 9 C1 8.34 1 7.68 1 7 C0.34 7 -0.32 7 -1 7 C-1.33 5.02 -1.66 3.04 -2 1 C-1.34 0.67 -0.68 0.34 0 0 Z " fill="#222222" transform="translate(161,151)"/>
<path d="M0 0 C1.64826111 2.96687001 2.44271087 5.65626525 3 9 C2.34 8.67 1.68 8.34 1 8 C0.67 9.65 0.34 11.3 0 13 C-0.33 13 -0.66 13 -1 13 C-2.42857143 4.57142857 -2.42857143 4.57142857 0 0 Z " fill="#696969" transform="translate(295,294)"/>
<path d="M0 0 C2 2 2 2 2.125 5.125 C2.08375 6.07375 2.0425 7.0225 2 8 C1.34 8 0.68 8 0 8 C-1.98 4.535 -1.98 4.535 -4 1 C-2.125 0.375 -2.125 0.375 0 0 Z " fill="#3B3B3B" transform="translate(320,188)"/>
<path d="M0 0 C0.33 1.65 0.66 3.3 1 5 C0.01 5 -0.98 5 -2 5 C-2 4.34 -2 3.68 -2 3 C-3.98 3 -5.96 3 -8 3 C-6.23110084 -0.53779831 -3.70375662 0 0 0 Z " fill="#070707" transform="translate(190,373)"/>
<path d="M0 0 C0.33 0.66 0.66 1.32 1 2 C0.67 2.66 0.34 3.32 0 4 C0.99 4.33 1.98 4.66 3 5 C2.67 5.99 2.34 6.98 2 8 C1.34 8 0.68 8 0 8 C-0.33 8.66 -0.66 9.32 -1 10 C-1 9.01 -1 8.02 -1 7 C-1.66 7 -2.32 7 -3 7 C-1.125 1.125 -1.125 1.125 0 0 Z " fill="#4A4A4A" transform="translate(325,302)"/>
<path d="M0 0 C1.4606285 2.64738916 2 3.89448334 2 7 C1.34 7 0.68 7 0 7 C-0.33 10.96 -0.66 14.92 -1 19 C-1.33 19 -1.66 19 -2 19 C-2.22262303 12.2718373 -1.95021536 6.46008837 0 0 Z " fill="#585858" transform="translate(301,286)"/>
<path d="M0 0 C0.66 0 1.32 0 2 0 C3.28571429 7.42857143 3.28571429 7.42857143 2 11 C1.34 11 0.68 11 0 11 C0 7.37 0 3.74 0 0 Z " fill="#080808" transform="translate(329,282)"/>
<path d="M0 0 C2.125 0.9375 2.125 0.9375 4 2 C4 3.98 4 5.96 4 8 C1.95880212 6.38405168 -0.04072937 4.7143618 -2 3 C-2 2.34 -2 1.68 -2 1 C-1.34 0.67 -0.68 0.34 0 0 Z " fill="#454545" transform="translate(210,145)"/>
<path d="M0 0 C0.66 0.33 1.32 0.66 2 1 C1.01 2.485 1.01 2.485 0 4 C0.66 4.33 1.32 4.66 2 5 C1.34 5 0.68 5 0 5 C0 5.66 0 6.32 0 7 C-0.66 6.67 -1.32 6.34 -2 6 C-4.11683841 6.89163577 -4.11683841 6.89163577 -6 8 C-4.73058503 4.08597051 -3.48832306 2.20927127 0 0 Z " fill="#4C4C4C" transform="translate(291,79)"/>
<path d="M0 0 C0.33 0 0.66 0 1 0 C0.67 2.31 0.34 4.62 0 7 C-1.65 7.66 -3.3 8.32 -5 9 C-3.75471468 5.55151758 -2.38532951 2.80016942 0 0 Z " fill="#1D1D1D" transform="translate(316,347)"/>
<path d="M0 0 C1.32 0.99 2.64 1.98 4 3 C3.625 4.9375 3.625 4.9375 3 7 C2.01 7.495 2.01 7.495 1 8 C-0.42944945 5.64561267 -1.08661261 4.51967567 -0.625 1.75 C-0.41875 1.1725 -0.2125 0.595 0 0 Z " fill="#222222" transform="translate(213,168)"/>
<path d="M0 0 C8.19256018 -0.63019694 8.19256018 -0.63019694 11.5625 2 C12.036875 2.66 12.51125 3.32 13 4 C11.02 4.99 11.02 4.99 9 6 C8.34 5.34 7.68 4.68 7 4 C7.33 3.01 7.66 2.02 8 1 C5.36 1 2.72 1 0 1 C0 0.67 0 0.34 0 0 Z " fill="#4B4B4B" transform="translate(293,78)"/>
<path d="M0 0 C1.32 0.33 2.64 0.66 4 1 C4.33 2.32 4.66 3.64 5 5 C4.01 5.66 3.02 6.32 2 7 C0 5 0 5 -0.125 2.375 C-0.08375 1.59125 -0.0425 0.8075 0 0 Z " fill="#424242" transform="translate(219,185)"/>
<path d="M0 0 C0.66 0 1.32 0 2 0 C2 0.66 2 1.32 2 2 C3.32 2.66 4.64 3.32 6 4 C4.625 5.5 4.625 5.5 3 7 C2.34 7 1.68 7 1 7 C1 6.34 1 5.68 1 5 C0.01 4.67 -0.98 4.34 -2 4 C-1.01 3.67 -0.02 3.34 1 3 C0.67 2.01 0.34 1.02 0 0 Z " fill="#676767" transform="translate(199,135)"/>
<path d="M0 0 C2 1.3125 2 1.3125 4 3 C4 3.99 4 4.98 4 6 C2.35 5.67 0.7 5.34 -1 5 C-0.67 3.35 -0.34 1.7 0 0 Z " fill="#2C2C2C" transform="translate(186,367)"/>
<path d="M0 0 C0.33 0.66 0.66 1.32 1 2 C1.99 2.33 2.98 2.66 4 3 C3.67 3.66 3.34 4.32 3 5 C1.02 5 -0.96 5 -3 5 C-2.625 3.0625 -2.625 3.0625 -2 1 C-1.34 0.67 -0.68 0.34 0 0 Z " fill="#0C0C0C" transform="translate(308,363)"/>
<path d="M0 0 C0.33 0 0.66 0 1 0 C1 2.97 1 5.94 1 9 C-0.32 8.67 -1.64 8.34 -3 8 C-2.67 6.68 -2.34 5.36 -2 4 C-1.34 4 -0.68 4 0 4 C0 2.68 0 1.36 0 0 Z " fill="#292929" transform="translate(331,289)"/>
<path d="M0 0 C2.4375 0.8125 2.4375 0.8125 5 2 C5.33 2.99 5.66 3.98 6 5 C5.34 5.66 4.68 6.32 4 7 C2 5.1875 2 5.1875 0 3 C0 2.01 0 1.02 0 0 Z " fill="#101010" transform="translate(196,383)"/>
<path d="M0 0 C2.97 0.495 2.97 0.495 6 1 C6 1.99 6 2.98 6 4 C3.36 4 0.72 4 -2 4 C-1.34 2.68 -0.68 1.36 0 0 Z " fill="#292929" transform="translate(260,370)"/>
<path d="M0 0 C1.65 0.33 3.3 0.66 5 1 C5.33 2.32 5.66 3.64 6 5 C3.69 4.34 1.38 3.68 -1 3 C-0.67 2.01 -0.34 1.02 0 0 Z " fill="#171717" transform="translate(198,197)"/>
<path d="M0 0 C1.32 0 2.64 0 4 0 C4.33 1.65 4.66 3.3 5 5 C4.01 5.495 4.01 5.495 3 6 C1.5 4.6875 1.5 4.6875 0 3 C0 2.01 0 1.02 0 0 Z " fill="#1C1C1C" transform="translate(310,175)"/>
<path d="M0 0 C0.99 0.33 1.98 0.66 3 1 C2.34 1 1.68 1 1 1 C1 1.66 1 2.32 1 3 C2.32 3 3.64 3 5 3 C5.33 4.65 5.66 6.3 6 8 C3.69 6.35 1.38 4.7 -1 3 C-0.67 2.01 -0.34 1.02 0 0 Z " fill="#676767" transform="translate(186,140)"/>
<path d="M0 0 C0.66 0 1.32 0 2 0 C2 2.31 2 4.62 2 7 C0.68 7.33 -0.64 7.66 -2 8 C-2 7.01 -2 6.02 -2 5 C-1.34 5 -0.68 5 0 5 C0 3.35 0 1.7 0 0 Z " fill="#161616" transform="translate(158,133)"/>
<path d="M0 0 C2.64 0.33 5.28 0.66 8 1 C8 1.99 8 2.98 8 4 C5.36 3.67 2.72 3.34 0 3 C0 2.01 0 1.02 0 0 Z " fill="#0B0B0B" transform="translate(171,123)"/>
<path d="M0 0 C0.33 0.66 0.66 1.32 1 2 C0.0625 4.625 0.0625 4.625 -1 7 C-2.32 6.67 -3.64 6.34 -5 6 C-5 5.34 -5 4.68 -5 4 C-3.37373596 2.61767557 -1.7074998 1.28062485 0 0 Z " fill="#2B2B2B" transform="translate(289,83)"/>
<path d="M0 0 C2.64 0 5.28 0 8 0 C8.33 0.66 8.66 1.32 9 2 C7.02 2.66 5.04 3.32 3 4 C2.01 2.68 1.02 1.36 0 0 Z " fill="#303030" transform="translate(277,377)"/>
<path d="M0 0 C1 3 1 3 1 6 C0.01 6.33 -0.98 6.66 -2 7 C-2 6.34 -2 5.68 -2 5 C-3.32 4.67 -4.64 4.34 -6 4 C-4.02 2.68 -2.04 1.36 0 0 Z " fill="#505050" transform="translate(301,367)"/>
<path d="M0 0 C0.66 0.33 1.32 0.66 2 1 C2.5625 2.9375 2.5625 2.9375 3 5 C3.33 5.66 3.66 6.32 4 7 C3.01 7.33 2.02 7.66 1 8 C-0.42944945 5.64561267 -1.08661261 4.51967567 -0.625 1.75 C-0.41875 1.1725 -0.2125 0.595 0 0 Z " fill="#0F0F0F" transform="translate(215,262)"/>
<path d="M0 0 C0.66 0 1.32 0 2 0 C1.42655063 2.86724686 1.1385485 3.8614515 -1 6 C-1.99 6 -2.98 6 -4 6 C-2.84826645 3.53199953 -1.95216435 1.95216435 0 0 Z " fill="#0D0D0D" transform="translate(331,253)"/>
<path d="M0 0 C0.99 0.33 1.98 0.66 3 1 C2.67 2.32 2.34 3.64 2 5 C1.01 5 0.02 5 -1 5 C-1.66 4.34 -2.32 3.68 -3 3 C-2.34 3 -1.68 3 -1 3 C-0.67 2.01 -0.34 1.02 0 0 Z " fill="#464646" transform="translate(318,206)"/>
<path d="M0 0 C0.33 0 0.66 0 1 0 C1 1.65 1 3.3 1 5 C-0.32 5.33 -1.64 5.66 -3 6 C-3.33 4.68 -3.66 3.36 -4 2 C-3.01 2 -2.02 2 -1 2 C-0.67 1.34 -0.34 0.68 0 0 Z " fill="#5F5F5F" transform="translate(184,324)"/>
<path d="M0 0 C1.32 0 2.64 0 4 0 C4 1.32 4 2.64 4 4 C1.69 3.67 -0.62 3.34 -3 3 C-2.01 2.67 -1.02 2.34 0 2 C0 1.34 0 0.68 0 0 Z " fill="#2D2D2D" transform="translate(252,299)"/>
<path d="M0 0 C2.475 0.495 2.475 0.495 5 1 C5.33 1.99 5.66 2.98 6 4 C3.03 3.505 3.03 3.505 0 3 C0 2.01 0 1.02 0 0 Z " fill="#161616" transform="translate(194,134)"/>
<path d="M0 0 C0.33 0 0.66 0 1 0 C1 1.98 1 3.96 1 6 C0.01 6 -0.98 6 -2 6 C-2.33 6.66 -2.66 7.32 -3 8 C-3.33 5.69 -3.66 3.38 -4 1 C-3.67 1.99 -3.34 2.98 -3 4 C-2.34 3.67 -1.68 3.34 -1 3 C-0.67 2.01 -0.34 1.02 0 0 Z " fill="#737373" transform="translate(263,98)"/>
<path d="M0 0 C0 0.66 0 1.32 0 2 C1.32 2.33 2.64 2.66 4 3 C-0.455 3.495 -0.455 3.495 -5 4 C-4.67 3.01 -4.34 2.02 -4 1 C-2 0 -2 0 0 0 Z " fill="#252525" transform="translate(264,399)"/>
<path d="M0 0 C1.65 0 3.3 0 5 0 C5 0.66 5 1.32 5 2 C6.32 2.33 7.64 2.66 9 3 C6.36 3 3.72 3 1 3 C0.67 2.01 0.34 1.02 0 0 Z " fill="#151515" transform="translate(233,399)"/>
<path d="M0 0 C0.66 0.33 1.32 0.66 2 1 C2 3.31 2 5.62 2 8 C1.01 7.67 0.02 7.34 -1 7 C-1.04254356 5.00045254 -1.04080783 2.99958364 -1 1 C-0.67 0.67 -0.34 0.34 0 0 Z " fill="#030303" transform="translate(276,383)"/>
<path d="M0 0 C-0.66 1.98 -1.32 3.96 -2 6 C-2.33 5.34 -2.66 4.68 -3 4 C-3.99 4 -4.98 4 -6 4 C-6 3.34 -6 2.68 -6 2 C-3 0 -3 0 0 0 Z " fill="#454545" transform="translate(316,354)"/>
<path d="M0 0 C0.33 0 0.66 0 1 0 C1.33 2.31 1.66 4.62 2 7 C1.01 7.66 0.02 8.32 -1 9 C-1.09765625 2.84765625 -1.09765625 2.84765625 -1 1 C-0.67 0.67 -0.34 0.34 0 0 Z " fill="#030303" transform="translate(317,334)"/>
<path d="M0 0 C1.32 0.33 2.64 0.66 4 1 C3.67 2.65 3.34 4.3 3 6 C2.34 6 1.68 6 1 6 C0.67 6.66 0.34 7.32 0 8 C0 5.36 0 2.72 0 0 Z " fill="#2D2D2D" transform="translate(198,288)"/>
<path d="M0 0 C0.185625 0.9590625 0.185625 0.9590625 0.375 1.9375 C0.684375 2.9584375 0.684375 2.9584375 1 4 C1.66 4.33 2.32 4.66 3 5 C-0.75 6.125 -0.75 6.125 -3 5 C-3 4.01 -3 3.02 -3 2 C-2.01 1.34 -1.02 0.68 0 0 Z " fill="#616161" transform="translate(319,259)"/>
<path d="M0 0 C0.66 0.99 1.32 1.98 2 3 C1.125 6.6875 1.125 6.6875 0 10 C-0.33 10 -0.66 10 -1 10 C-1.02689216 8.52093108 -1.04634621 7.04172517 -1.0625 5.5625 C-1.07410156 4.73878906 -1.08570313 3.91507813 -1.09765625 3.06640625 C-1 1 -1 1 0 0 Z " fill="#050505" transform="translate(342,228)"/>
<path d="M0 0 C0.66 1.32 1.32 2.64 2 4 C0.02 4.99 0.02 4.99 -2 6 C-2.66 4.35 -3.32 2.7 -4 1 C-2.68 0.67 -1.36 0.34 0 0 Z " fill="#4F4F4F" transform="translate(315,179)"/>
<path d="M0 0 C0.99 0.99 1.98 1.98 3 3 C2.67 3.66 2.34 4.32 2 5 C-0.0625 5.625 -0.0625 5.625 -2 6 C-2.66 4.35 -3.32 2.7 -4 1 C-3.01 1.33 -2.02 1.66 -1 2 C-0.67 1.34 -0.34 0.68 0 0 Z " fill="#6D6D6D" transform="translate(223,159)"/>
<path d="M0 0 C1.98 0.495 1.98 0.495 4 1 C3.67 2.65 3.34 4.3 3 6 C1.68 5.01 0.36 4.02 -1 3 C-0.67 2.01 -0.34 1.02 0 0 Z " fill="#393939" transform="translate(268,112)"/>
<path d="M0 0 C0.99 0 1.98 0 3 0 C2.34 1.32 1.68 2.64 1 4 C-0.32 4 -1.64 4 -3 4 C-1.6875 2 -1.6875 2 0 0 Z " fill="#2B2B2B" transform="translate(320,388)"/>
<path d="M0 0 C1.32 1.32 2.64 2.64 4 4 C3.01 4.33 2.02 4.66 1 5 C0.67 3.35 0.34 1.7 0 0 Z M-1 5 C0.98 5.99 0.98 5.99 3 7 C2.34 7.66 1.68 8.32 1 9 C0.34 7.68 -0.32 6.36 -1 5 Z " fill="#484848" transform="translate(190,373)"/>
<path d="M0 0 C0.99 0.66 1.98 1.32 3 2 C3 2.66 3 3.32 3 4 C1.02 4.99 1.02 4.99 -1 6 C-1.66 4.68 -2.32 3.36 -3 2 C-2.01 2.33 -1.02 2.66 0 3 C0 2.01 0 1.02 0 0 Z " fill="#616161" transform="translate(267,307)"/>
<path d="M0 0 C0.99 0 1.98 0 3 0 C2.67 2.97 2.34 5.94 2 9 C1.67 9 1.34 9 1 9 C-1.125 2.25 -1.125 2.25 0 0 Z " fill="#2B2B2B" transform="translate(301,293)"/>
<path d="M0 0 C0.66 0.66 1.32 1.32 2 2 C1.625 4.625 1.625 4.625 1 7 C-0.32 6.34 -1.64 5.68 -3 5 C-1.125 1.125 -1.125 1.125 0 0 Z " fill="#3F3F3F" transform="translate(214,268)"/>
<path d="M0 0 C1.65 0 3.3 0 5 0 C5.33 1.32 5.66 2.64 6 4 C4.35 3.67 2.7 3.34 1 3 C0.67 2.01 0.34 1.02 0 0 Z " fill="#2D2D2D" transform="translate(201,140)"/>
<path d="M0 0 C1.98 0.66 3.96 1.32 6 2 C5.01 2.66 4.02 3.32 3 4 C1.68 3.34 0.36 2.68 -1 2 C-0.67 1.34 -0.34 0.68 0 0 Z M-4 3 C0 4 0 4 0 4 Z " fill="#5B5B5B" transform="translate(179,124)"/>
<path d="M0 0 C0.33 0.99 0.66 1.98 1 3 C-1.31 3 -3.62 3 -6 3 C-6 2.34 -6 1.68 -6 1 C-4 0 -4 0 0 0 Z " fill="#060606" transform="translate(276,87)"/>
</svg>
