<?xml version="1.0" encoding="UTF-8"?>
<svg version="1.1" xmlns="http://www.w3.org/2000/svg" width="661" height="377">
<path d="M0 0 C1.8125 0.8125 1.8125 0.8125 2.8125 2.8125 C2.72598369 4.35863014 2.57247364 5.90159387 2.375 7.4375 C2.27316406 8.25476563 2.17132813 9.07203125 2.06640625 9.9140625 C1.98261719 10.54054687 1.89882813 11.16703125 1.8125 11.8125 C2.42609375 11.95558594 3.0396875 12.09867188 3.671875 12.24609375 C5.91457767 12.8395096 7.77279847 13.71980275 9.8125 14.8125 C9.75 17.125 9.75 17.125 8.8125 19.8125 C7.678125 20.204375 6.54375 20.59625 5.375 21 C1.66534802 22.38339662 1.66534802 22.38339662 0.90625 25.21875 C0.42243734 27.75165156 0.04851294 30.24525715 -0.1875 32.8125 C-4.1875 32.8125 -4.1875 32.8125 -6.75 30.3125 C-9.74313469 27.56685965 -12.05782099 27.47429603 -16.0625 27.5 C-17.7721456 27.57978346 -19.48145413 27.6758949 -21.1875 27.8125 C-21.8125 25.99609375 -21.8125 25.99609375 -22.1875 23.8125 C-21.5275 22.843125 -20.8675 21.87375 -20.1875 20.875 C-17.91795508 18.07917815 -17.91795508 18.07917815 -18.375 15.375 C-18.643125 14.529375 -18.91125 13.68375 -19.1875 12.8125 C-19.53153308 10.48072025 -19.86699202 8.14762959 -20.1875 5.8125 C-15.8975 5.8125 -11.6075 5.8125 -7.1875 5.8125 C-6.8575 4.8225 -6.5275 3.8325 -6.1875 2.8125 C-3.00755623 -0.25779053 -3.00755623 -0.25779053 0 0 Z " fill="#131313" transform="translate(317.1875,145.1875)"/>
<path d="M0 0 C0.33 1.98 0.66 3.96 1 6 C2.98 6.66 4.96 7.32 7 8 C7 9.32 7 10.64 7 12 C5.35 12.66 3.7 13.32 2 14 C2.020625 15.11375 2.04125 16.2275 2.0625 17.375 C2 21 2 21 1 23 C-0.875 22.6875 -0.875 22.6875 -3 22 C-3.66 21.01 -4.32 20.02 -5 19 C-7.97 19.33 -10.94 19.66 -14 20 C-15.25541557 16.23375329 -14.37061958 14.62811066 -13 11 C-13.66 10.34 -14.32 9.68 -15 9 C-15 7.68 -15 6.36 -15 5 C-11.86650268 3.95550089 -11.01031744 4.06576355 -8 5 C-7.566875 3.7934375 -7.566875 3.7934375 -7.125 2.5625 C-5.35420017 -1.4709885 -3.85559812 -1.15667944 0 0 Z " fill="#1B1B1B" transform="translate(442,217)"/>
<path d="M0 0 C6.69461078 0.9011976 6.69461078 0.9011976 9.125 1.6875 C11.81352203 2.135587 13.54313318 1.07094195 16 0 C16.99 0 17.98 0 19 0 C18.67 1.65 18.34 3.3 18 5 C17.34 5 16.68 5 16 5 C14.60848348 9.79300133 15.31337311 14.15135782 16 19 C14.0625 18.6875 14.0625 18.6875 12 18 C11.67 17.01 11.34 16.02 11 15 C8.36 15 5.72 15 3 15 C3 15.66 3 16.32 3 17 C1.68 17.33 0.36 17.66 -1 18 C-1.33 16.35 -1.66 14.7 -2 13 C-1.34 13 -0.68 13 0 13 C1.19838209 10.67145537 1.19838209 10.67145537 2 8 C1.34 7.01 0.68 6.02 0 5 C-0.125 2.3125 -0.125 2.3125 0 0 Z " fill="#191919" transform="translate(358,202)"/>
<path d="M0 0 C2 1 2 1 3.25 3.75 C5.35906724 7.66683916 7.48284044 9.34259055 11 12 C10.443125 12.598125 9.88625 13.19625 9.3125 13.8125 C6.11896878 18.21439438 4.12995622 23.01555328 2 28 C1.34 28 0.68 28 0 28 C-0.23074219 27.31292969 -0.46148437 26.62585938 -0.69921875 25.91796875 C-2.6705598 20.17785216 -2.6705598 20.17785216 -6.75 15.875 C-7.4925 15.58625 -8.235 15.2975 -9 15 C-8.75 12.625 -8.75 12.625 -8 10 C-7.05640625 9.55140625 -7.05640625 9.55140625 -6.09375 9.09375 C-3.48192753 7.72936513 -2.94737709 6.52633499 -1.75 3.875 C-1.41484375 3.15054688 -1.0796875 2.42609375 -0.734375 1.6796875 C-0.49203125 1.12539062 -0.2496875 0.57109375 0 0 Z " fill="#161616" transform="translate(155,136)"/>
<path d="M0 0 C4.62 0 9.24 0 14 0 C14.33 1.98 14.66 3.96 15 6 C16.43691955 7.85801239 16.43691955 7.85801239 18 9 C17.67 9.99 17.34 10.98 17 12 C15.35 12.33 13.7 12.66 12 13 C11.34 14.98 10.68 16.96 10 19 C8.1875 18.75 8.1875 18.75 6 18 C5.525625 17.34 5.05125 16.68 4.5625 16 C3.12113694 13.74724544 3.12113694 13.74724544 0.3125 13.25 C-0.450625 13.1675 -1.21375 13.085 -2 13 C-1 9 -1 9 -0.4375 7.0625 C0.17292017 4.53620339 0.17292017 4.53620339 0 0 Z " fill="#202020" transform="translate(63,216)"/>
<path d="M0 0 C2.55426358 0.4561185 3.85018367 0.86568191 5.8125 2.625 C9.02342618 4.64329646 11.38242219 3.66992182 15 3 C15.66 3.33 16.32 3.66 17 4 C16.44933254 6.38622565 15.78839614 8.52900966 14.875 10.8125 C13.84586526 14.56149082 14.24419103 17.22095517 15 21 C12.625 20.75 12.625 20.75 10 20 C9.34 18.68 8.68 17.36 8 16 C3.05 16.495 3.05 16.495 -2 17 C-2.33 15.68 -2.66 14.36 -3 13 C-2.360625 12.608125 -1.72125 12.21625 -1.0625 11.8125 C1.43778819 9.61527704 1.64950425 8.24208567 2 5 C1.34 4.67 0.68 4.34 0 4 C0 2.68 0 1.36 0 0 Z " fill="#161616" transform="translate(226,140)"/>
<path d="M0 0 C3.50202263 2.33468175 4.33823637 4.20168313 6 8 C6 8.66 6 9.32 6 10 C8.64 10.33 11.28 10.66 14 11 C14 12.32 14 13.64 14 15 C13.195625 15.391875 12.39125 15.78375 11.5625 16.1875 C8.82150722 17.71012513 8.82150722 17.71012513 8.4453125 20.1875 C8.21055947 22.46389301 8.05275145 24.71250528 8 27 C7.01 27 6.02 27 5 27 C4.79246094 26.46890625 4.58492188 25.9378125 4.37109375 25.390625 C1.89644576 19.71653672 -0.38887038 17.58975213 -6 15 C-6 14.01 -6 13.02 -6 12 C-4.02 11.34 -2.04 10.68 0 10 C-0.08378906 9.36191406 -0.16757812 8.72382813 -0.25390625 8.06640625 C-0.40666016 6.82697266 -0.40666016 6.82697266 -0.5625 5.5625 C-0.66691406 4.73878906 -0.77132813 3.91507813 -0.87890625 3.06640625 C-0.91886719 2.38449219 -0.95882813 1.70257813 -1 1 C-0.67 0.67 -0.34 0.34 0 0 Z " fill="#212121" transform="translate(474,226)"/>
<path d="M0 0 C2.84550012 0.66010476 5.52325999 1.51724966 8.25 2.5625 C8.95640625 2.83191406 9.6628125 3.10132813 10.390625 3.37890625 C10.92171875 3.58386719 11.4528125 3.78882813 12 4 C11.814375 4.9075 11.62875 5.815 11.4375 6.75 C11.03276424 9.75660854 11.17475269 11.1880462 12 14 C10.75336669 14.50833591 9.50250613 15.00631145 8.25 15.5 C7.55390625 15.7784375 6.8578125 16.056875 6.140625 16.34375 C4 17 4 17 0 17 C-0.33 15.02 -0.66 13.04 -1 11 C-2.32 11 -3.64 11 -5 11 C-5 9.68 -5 8.36 -5 7 C-4.34 7 -3.68 7 -3 7 C-3 6.01 -3 5.02 -3 4 C-2.34 3.67 -1.68 3.34 -1 3 C-0.67 2.01 -0.34 1.02 0 0 Z " fill="#181818" transform="translate(581,169)"/>
<path d="M0 0 C1.875 1.6875 1.875 1.6875 3 4 C2.76261647 7.87726431 2.17282078 9.74076883 0 13 C-3.06997072 13.39191116 -5.11365285 13.47271848 -7.875 12 C-9.68540577 8.78150085 -9.67217898 5.59242319 -9 2 C-6.24775186 -1.36385884 -3.97039819 -1.52707623 0 0 Z " fill="#171717" transform="translate(99,170)"/>
<path d="M0 0 C0.99 0 1.98 0 3 0 C3.20625 0.804375 3.4125 1.60875 3.625 2.4375 C4.07875 3.283125 4.5325 4.12875 5 5 C8.05272465 5.89830839 8.05272465 5.89830839 11 6 C10.67 7.32 10.34 8.64 10 10 C8.68 10.33 7.36 10.66 6 11 C6 13.31 6 15.62 6 18 C5.01 18 4.02 18 3 18 C2.67 16.35 2.34 14.7 2 13 C-0.97 12.505 -0.97 12.505 -4 12 C-4 10.68 -4 9.36 -4 8 C-3.34 8 -2.68 8 -2 8 C-2 7.34 -2 6.68 -2 6 C-1.34 6 -0.68 6 0 6 C0 4.02 0 2.04 0 0 Z " fill="#222222" transform="translate(99,197)"/>
<path d="M0 0 C0.66 0 1.32 0 2 0 C5 5.75 5 5.75 5 8 C6.32 8 7.64 8 9 8 C8.343621 12.48525648 7.29925791 16.66914029 6 21 C5.01 20.67 4.02 20.34 3 20 C3 18.68 3 17.36 3 16 C1.02 15.34 -0.96 14.68 -3 14 C-2.46247412 10.6212659 -1.88159493 7.30598099 -1 4 C-0.814375 3.2575 -0.62875 2.515 -0.4375 1.75 C-0.2209375 0.88375 -0.2209375 0.88375 0 0 Z " fill="#323232" transform="translate(534,214)"/>
<path d="M0 0 C0.99 0 1.98 0 3 0 C2.979375 0.763125 2.95875 1.52625 2.9375 2.3125 C2.87057159 5.10185786 2.87057159 5.10185786 4 8 C4.66 8 5.32 8 6 8 C6 9.32 6 10.64 6 12 C4.02 12 2.04 12 0 12 C-0.33 13.32 -0.66 14.64 -1 16 C-2.32 16 -3.64 16 -5 16 C-5 14.02 -5 12.04 -5 10 C-5.99 9.67 -6.98 9.34 -8 9 C-8.6875 6.9375 -8.6875 6.9375 -9 5 C-6.69 5 -4.38 5 -2 5 C-1.34 3.35 -0.68 1.7 0 0 Z " fill="#1E1E1E" transform="translate(346,144)"/>
<path d="M0 0 C3 3.75 3 3.75 3 6 C3.99 6.33 4.98 6.66 6 7 C5.21302675 10.41021743 4.12880057 13.68885166 3 17 C1.68 17 0.36 17 -1 17 C-1.33 15.02 -1.66 13.04 -2 11 C-3.32 10.67 -4.64 10.34 -6 10 C-5.42680175 6.67545017 -4.45672125 5.26018355 -2 3 C-1.34 2.01 -0.68 1.02 0 0 Z " fill="#272727" transform="translate(347,176)"/>
<path d="M0 0 C0.33 0.99 0.66 1.98 1 3 C1.99 3.33 2.98 3.66 4 4 C4 4.66 4 5.32 4 6 C4.66 6 5.32 6 6 6 C5.690625 6.886875 5.38125 7.77375 5.0625 8.6875 C4.1709329 11.46709155 3.50622993 14.13136375 3 17 C2.01 17.33 1.02 17.66 0 18 C-0.45375 17.030625 -0.9075 16.06125 -1.375 15.0625 C-2.65786221 11.92920418 -2.65786221 11.92920418 -5 11 C-4.39102647 7.44765442 -3.54266151 4.2668126 -2 1 C-1.34 0.67 -0.68 0.34 0 0 Z " fill="#111111" transform="translate(208,110)"/>
<path d="M0 0 C0.66 0 1.32 0 2 0 C2.474375 0.804375 2.94875 1.60875 3.4375 2.4375 C4.79983672 5.2918076 4.79983672 5.2918076 8 6 C8 9 8 9 6.125 11.1875 C4 13 4 13 2 13 C2 13.99 2 14.98 2 16 C1.34 16 0.68 16 0 16 C-5 10.88372093 -5 10.88372093 -5 7.75 C-4 6 -4 6 -1 4 C-0.27617533 1.94074861 -0.27617533 1.94074861 0 0 Z " fill="#1C1C1C" transform="translate(276,130)"/>
<path d="M0 0 C2.77160341 2.39365749 4.14380778 4.41955982 5 8 C4.57161296 11.07096733 3.84432483 14.01888388 3 17 C2.01 17 1.02 17 0 17 C-2.25 14.1875 -2.25 14.1875 -4 11 C-3.67 10.01 -3.34 9.02 -3 8 C-2.34 8 -1.68 8 -1 8 C-1.020625 6.865625 -1.04125 5.73125 -1.0625 4.5625 C-1 1 -1 1 0 0 Z " fill="#161616" transform="translate(387,176)"/>
<path d="M0 0 C0.99 0 1.98 0 3 0 C3.33 1.32 3.66 2.64 4 4 C4.99 4 5.98 4 7 4 C7 5.65 7 7.3 7 9 C6.34 9 5.68 9 5 9 C4.67 10.32 4.34 11.64 4 13 C3.01 13 2.02 13 1 13 C0.71125 12.360625 0.4225 11.72125 0.125 11.0625 C-0.82823451 8.84793921 -0.82823451 8.84793921 -3 8 C-3 6.68 -3 5.36 -3 4 C-2.34 4 -1.68 4 -1 4 C-0.67 2.68 -0.34 1.36 0 0 Z " fill="#212121" transform="translate(260,153)"/>
<path d="M0 0 C0.66 0 1.32 0 2 0 C2.33 1.65 2.66 3.3 3 5 C3.99 5 4.98 5 6 5 C6 5.99 6 6.98 6 8 C5.34 8 4.68 8 4 8 C3.34 9.98 2.68 11.96 2 14 C-0.31 12.02 -2.62 10.04 -5 8 C-4.67 7.01 -4.34 6.02 -4 5 C-3.34 4.67 -2.68 4.34 -2 4 C-0.86649466 1.98330173 -0.86649466 1.98330173 0 0 Z " fill="#1B1B1B" transform="translate(572,190)"/>
<path d="M0 0 C0 0.66 0 1.32 0 2 C0.99 2.33 1.98 2.66 3 3 C2.43628586 6.26954202 1.50037734 7.82575883 -1 10 C-2.98 9.01 -4.96 8.02 -7 7 C-7 5.02 -7 3.04 -7 1 C-4.53721199 -0.231394 -2.7204945 -0.07159196 0 0 Z " fill="#0D0D0D" transform="translate(244,104)"/>
<path d="M0 0 C1.010625 0.0825 2.02125 0.165 3.0625 0.25 C5.2144437 3.47791555 5.26336443 4.53400809 5.0625 8.25 C1.6875 8.875 1.6875 8.875 -1.9375 9.25 C-3.9375 7.25 -3.9375 7.25 -4.125 4.1875 C-3.87878357 0.33010924 -3.87878357 0.33010924 0 0 Z " fill="#383838" transform="translate(501.9375,249.75)"/>
<path d="M0 0 C1.32 0.33 2.64 0.66 4 1 C4 1.66 4 2.32 4 3 C4.66 3 5.32 3 6 3 C5.67 4.98 5.34 6.96 5 9 C1.94736336 9.98120464 0.05263664 9.98120464 -3 9 C-3.33 7.02 -3.66 5.04 -4 3 C-2.68 2.67 -1.36 2.34 0 2 C0 1.34 0 0.68 0 0 Z " fill="#252525" transform="translate(458,262)"/>
<path d="M0 0 C2 3 2 3 1.6875 5.0625 C1 7 1 7 0 9 C-2.31 8.67 -4.62 8.34 -7 8 C-7.33 5.69 -7.66 3.38 -8 1 C-3.375 -1.125 -3.375 -1.125 0 0 Z " fill="#232323" transform="translate(515,229)"/>
<path d="M0 0 C2.96175123 0.61277612 4.38058783 1.25372522 7 3 C7.29296875 5.1640625 7.29296875 5.1640625 7.1875 7.625 C7.16042969 8.44226563 7.13335937 9.25953125 7.10546875 10.1015625 C7.07066406 10.72804687 7.03585937 11.35453125 7 12 C6.01 12 5.02 12 4 12 C4 11.34 4 10.68 4 10 C1.525 9.01 1.525 9.01 -1 8 C-0.67 5.36 -0.34 2.72 0 0 Z " fill="#161616" transform="translate(298,190)"/>
<path d="M0 0 C0.8353125 0.2165625 0.8353125 0.2165625 1.6875 0.4375 C4.11384195 1.02769128 6.54906345 1.523429 9 2 C8.67 2.99 8.34 3.98 8 5 C7.34 5 6.68 5 6 5 C5.67 6.65 5.34 8.3 5 10 C2.36 9.67 -0.28 9.34 -3 9 C-3 7.68 -3 6.36 -3 5 C-2.34 4.67 -1.68 4.34 -1 4 C-0.34786708 1.97536745 -0.34786708 1.97536745 0 0 Z " fill="#2B2B2B" transform="translate(410,237)"/>
<path d="M0 0 C1.37310707 1.29233607 2.71034824 2.62437146 4 4 C3.67 4.99 3.34 5.98 3 7 C2.34 7 1.68 7 1 7 C1 7.99 1 8.98 1 10 C-1.97 9.505 -1.97 9.505 -5 9 C-5.33 6.69 -5.66 4.38 -6 2 C-2.25 0 -2.25 0 0 0 Z " fill="#1C1C1C" transform="translate(119,151)"/>
<path d="M0 0 C0.33 0.66 0.66 1.32 1 2 C1.99 2.33 2.98 2.66 4 3 C4 3.99 4 4.98 4 6 C3.01 6 2.02 6 1 6 C1 6.99 1 7.98 1 9 C-0.98 9 -2.96 9 -5 9 C-5.82638376 6.10765685 -6 4.11257569 -6 1 C-3.92446352 0.4465236 -2.15634036 0 0 0 Z " fill="#1A1A1A" transform="translate(205,137)"/>
<path d="M0 0 C1.75 1.25 1.75 1.25 3 3 C2.71483972 6.0417096 1.73969465 7.39045802 0 10 C-1.98 9.34 -3.96 8.68 -6 8 C-6.1875 5.125 -6.1875 5.125 -6 2 C-3 0 -3 0 0 0 Z " fill="#313131" transform="translate(337,210)"/>
<path d="M0 0 C0.66 0 1.32 0 2 0 C2.33 1.65 2.66 3.3 3 5 C3.99 5.33 4.98 5.66 6 6 C4.70700306 8.88437779 3.34058637 10.87219421 1 13 C-3 8.375 -3 8.375 -3 5 C-2.34 4.67 -1.68 4.34 -1 4 C-0.34786708 1.97536745 -0.34786708 1.97536745 0 0 Z " fill="#2F2F2F" transform="translate(481,260)"/>
<path d="M0 0 C0 0.66 0 1.32 0 2 C0.99 2.33 1.98 2.66 3 3 C3 3.99 3 4.98 3 6 C2.34 6 1.68 6 1 6 C1 6.99 1 7.98 1 9 C-1.31 8.67 -3.62 8.34 -6 8 C-6 5.69 -6 3.38 -6 1 C-3.92446352 0.4465236 -2.15634036 0 0 0 Z " fill="#292929" transform="translate(402,201)"/>
<path d="M0 0 C0.928125 0.20625 1.85625 0.4125 2.8125 0.625 C2.9375 3 2.9375 3 2.8125 5.625 C0.8125 7.625 0.8125 7.625 -2.25 7.8125 C-5.1875 7.625 -5.1875 7.625 -6.1875 6.625 C-6.4375 4.1875 -6.4375 4.1875 -6.1875 1.625 C-3.1875 -0.375 -3.1875 -0.375 0 0 Z " fill="#1E1E1E" transform="translate(303.1875,118.375)"/>
<path d="M0 0 C0.66 0 1.32 0 2 0 C3.74005305 5.22015915 3.74005305 5.22015915 4 8 C2.3125 10.5 2.3125 10.5 0 12 C-0.99 12 -1.98 12 -3 12 C-3.33 9.03 -3.66 6.06 -4 3 C-3.01 3 -2.02 3 -1 3 C-0.67 2.01 -0.34 1.02 0 0 Z " fill="#242424" transform="translate(400,222)"/>
<path d="M0 0 C1.1446875 0.3403125 1.1446875 0.3403125 2.3125 0.6875 C3 2.4375 3 2.4375 3.3125 4.6875 C1.875 6.9375 1.875 6.9375 0.3125 8.6875 C-2.6575 8.1925 -2.6575 8.1925 -5.6875 7.6875 C-5.91482116 4.88387237 -6.02831872 3.22563483 -4.5 0.8125 C-2.6875 -0.3125 -2.6875 -0.3125 0 0 Z " fill="#2B2B2B" transform="translate(181.6875,121.3125)"/>
<path d="M0 0 C0.6875 2.3125 0.6875 2.3125 1 5 C-0.125 6.875 -0.125 6.875 -2 8 C-4.6875 7.6875 -4.6875 7.6875 -7 7 C-7.33 5.35 -7.66 3.7 -8 2 C-4.77208445 -0.1519437 -3.71599191 -0.20086443 0 0 Z " fill="#2D2D2D" transform="translate(333,187)"/>
<path d="M0 0 C3 0.125 3 0.125 4 1.125 C4.04080783 3.12458364 4.04254356 5.12545254 4 7.125 C1.125 7.75 1.125 7.75 -2 8.125 C-4 6.125 -4 6.125 -4.1875 3.5625 C-3.91067812 -0.03618446 -3.67800108 0.15325004 0 0 Z " fill="#323232" transform="translate(435,256.875)"/>
<path d="M0 0 C2.31 0 4.62 0 7 0 C7.66 1.32 8.32 2.64 9 4 C8.01 5.485 8.01 5.485 7 7 C3.875 7.1875 3.875 7.1875 1 7 C-0.0625 5.1875 -0.0625 5.1875 -1 3 C-0.67 2.01 -0.34 1.02 0 0 Z " fill="#313131" transform="translate(489,219)"/>
<path d="M0 0 C1.65 0 3.3 0 5 0 C5 0.66 5 1.32 5 2 C5.66 2 6.32 2 7 2 C7 3.65 7 5.3 7 7 C4.1875 7.625 4.1875 7.625 1 8 C0.01 7.34 -0.98 6.68 -2 6 C-1.49396008 3.83125748 -1.00016187 2.00032373 0 0 Z " fill="#0F0F0F" transform="translate(555,198)"/>
<path d="M0 0 C4.875 0.875 4.875 0.875 6 2 C6.04063832 3.66617115 6.042721 5.33388095 6 7 C4.35 7.33 2.7 7.66 1 8 C0.01 6.35 -0.98 4.7 -2 3 C-1.34 2.01 -0.68 1.02 0 0 Z " fill="#2A2A2A" transform="translate(377,233)"/>
<path d="M0 0 C2.475 0.99 2.475 0.99 5 2 C4.125 6.75 4.125 6.75 3 9 C2.01 8.67 1.02 8.34 0 8 C-1.125 2.25 -1.125 2.25 0 0 Z " fill="#2D2D2D" transform="translate(458,222)"/>
<path d="M0 0 C2 1.25 2 1.25 4 3 C4 4.32 4 5.64 4 7 C3.34 7 2.68 7 2 7 C2 7.66 2 8.32 2 9 C1.01 8.67 0.02 8.34 -1 8 C-1.625 5.125 -1.625 5.125 -2 2 C-1.34 1.34 -0.68 0.68 0 0 Z " fill="#0E0E0E" transform="translate(605,147)"/>
<path d="M0 0 C2.125 0.9375 2.125 0.9375 4 2 C3.67 3.65 3.34 5.3 3 7 C0.13275314 6.42655063 -0.8614515 6.1385485 -3 4 C-2.67 3.01 -2.34 2.02 -2 1 C-1.34 0.67 -0.68 0.34 0 0 Z " fill="#242424" transform="translate(366,184)"/>
<path d="M0 0 C1.9375 0.6875 1.9375 0.6875 4 2 C4.75 4.625 4.75 4.625 5 7 C2 7 2 7 -1 6 C-1.042721 4.33388095 -1.04063832 2.66617115 -1 1 C-0.67 0.67 -0.34 0.34 0 0 Z " fill="#1F1F1F" transform="translate(251,130)"/>
<path d="M0 0 C1.2065625 0.0309375 1.2065625 0.0309375 2.4375 0.0625 C2.4375 1.7125 2.4375 3.3625 2.4375 5.0625 C0.4575 5.3925 -1.5225 5.7225 -3.5625 6.0625 C-3.605221 4.39638095 -3.60313832 2.72867115 -3.5625 1.0625 C-2.5625 0.0625 -2.5625 0.0625 0 0 Z " fill="#0A0A0A" transform="translate(600.5625,158.9375)"/>
<path d="M0 0 C1.5625 1.25 1.5625 1.25 3 3 C2.6875 5.1875 2.6875 5.1875 2 7 C-0.4375 6.625 -0.4375 6.625 -3 6 C-3.33 5.34 -3.66 4.68 -4 4 C-2.68 2.68 -1.36 1.36 0 0 Z " fill="#2B2B2B" transform="translate(422,203)"/>
<path d="M0 0 C1.9375 0.3125 1.9375 0.3125 4 1 C4.33 1.99 4.66 2.98 5 4 C4.67 4.66 4.34 5.32 4 6 C2.35 5.67 0.7 5.34 -1 5 C-0.67 3.35 -0.34 1.7 0 0 Z " fill="#424242" transform="translate(527,241)"/>
<path d="M0 0 C3.01898986 1.50949493 3.59960549 4.01655082 5 7 C5.33 7.66 5.66 8.32 6 9 C4.68 8.34 3.36 7.68 2 7 C2 6.34 2 5.68 2 5 C-0.475 6.485 -0.475 6.485 -3 8 C-1.125 1.125 -1.125 1.125 0 0 Z " fill="#2D2D2D" transform="translate(155,136)"/>
<path d="M0 0 C1.485 0.99 1.485 0.99 3 2 C3.1875 5.125 3.1875 5.125 3 8 C1.68 7.67 0.36 7.34 -1 7 C-1.04254356 5.00045254 -1.04080783 2.99958364 -1 1 C-0.67 0.67 -0.34 0.34 0 0 Z " fill="#292929" transform="translate(474,226)"/>
<path d="M0 0 C1.9375 0.3125 1.9375 0.3125 4 1 C4.33 1.99 4.66 2.98 5 4 C4.67 4.66 4.34 5.32 4 6 C2.68 6 1.36 6 0 6 C-1.125 2.25 -1.125 2.25 0 0 Z " fill="#1A1A1A" transform="translate(276,173)"/>
<path d="M0 0 C0.99 0.33 1.98 0.66 3 1 C3 2.65 3 4.3 3 6 C1.35 5.67 -0.3 5.34 -2 5 C-1.125 1.125 -1.125 1.125 0 0 Z " fill="#141414" transform="translate(553,219)"/>
<path d="M0 0 C1.32 0 2.64 0 4 0 C4 1.65 4 3.3 4 5 C1.03 4.505 1.03 4.505 -2 4 C-1.34 2.68 -0.68 1.36 0 0 Z " fill="#2D2D2D" transform="translate(451,243)"/>
<path d="M0 0 C1.9375 0.3125 1.9375 0.3125 4 1 C4.33 1.99 4.66 2.98 5 4 C4.360625 4.103125 3.72125 4.20625 3.0625 4.3125 C2.381875 4.539375 1.70125 4.76625 1 5 C0.67 5.99 0.34 6.98 0 8 C-1.43088528 5.13822943 -0.59991697 3.06624227 0 0 Z " fill="#030303" transform="translate(298,190)"/>
<path d="M0 0 C2.475 0.495 2.475 0.495 5 1 C5 2.32 5 3.64 5 5 C3.35 4.67 1.7 4.34 0 4 C0 2.68 0 1.36 0 0 Z " fill="#393939" transform="translate(52,238)"/>
<path d="M0 0 C0.99 1.32 1.98 2.64 3 4 C2.67 4.66 2.34 5.32 2 6 C0.68 5.67 -0.64 5.34 -2 5 C-2 3.68 -2 2.36 -2 1 C-1.34 0.67 -0.68 0.34 0 0 Z " fill="#303030" transform="translate(136,163)"/>
<path d="M0 0 C-0.33 1.65 -0.66 3.3 -1 5 C-2.32 4.34 -3.64 3.68 -5 3 C-5 2.34 -5 1.68 -5 1 C-3 0 -3 0 0 0 Z " fill="#353535" transform="translate(377,202)"/>
<path d="M0 0 C1.32 0.66 2.64 1.32 4 2 C3.67 2.99 3.34 3.98 3 5 C1.68 4.67 0.36 4.34 -1 4 C-0.67 2.68 -0.34 1.36 0 0 Z " fill="#333333" transform="translate(80,196)"/>
<path d="M0 0 C1.32 0 2.64 0 4 0 C3.67 0.99 3.34 1.98 3 3 C2.34 3 1.68 3 1 3 C0.67 4.65 0.34 6.3 0 8 C-0.66 7.67 -1.32 7.34 -2 7 C-2 6.34 -2 5.68 -2 5 C-1.34 5 -0.68 5 0 5 C0 3.35 0 1.7 0 0 Z " fill="#4F4F4F" transform="translate(415,239)"/>
<path d="" fill="#000000" transform="translate(0,0)"/>
<path d="" fill="#FFFFFF" transform="translate(0,0)"/>
<path d="" fill="#000000" transform="translate(0,0)"/>
</svg>
